<svg viewBox="0 0 1015 400" xmlns="http://www.w3.org/2000/svg"><g><g><g><g><g><line x1="41.171875" y1="377" x2="36.171875" y2="377" style="visibility: inherit;" fill="rgb(0, 0, 0)" stroke="rgb(204, 204, 204)" stroke-width="1px"></line><line x1="41.171875" y1="329.875" x2="36.171875" y2="329.875" style="visibility: inherit;" fill="rgb(0, 0, 0)" stroke="rgb(204, 204, 204)" stroke-width="1px"></line><line x1="41.171875" y1="282.75" x2="36.171875" y2="282.75" style="visibility: inherit;" fill="rgb(0, 0, 0)" stroke="rgb(204, 204, 204)" stroke-width="1px"></line><line x1="41.171875" y1="235.625" x2="36.171875" y2="235.625" style="visibility: inherit;" fill="rgb(0, 0, 0)" stroke="rgb(204, 204, 204)" stroke-width="1px"></line><line x1="41.171875" y1="188.5" x2="36.171875" y2="188.5" style="visibility: inherit;" fill="rgb(0, 0, 0)" stroke="rgb(204, 204, 204)" stroke-width="1px"></line><line x1="41.171875" y1="141.375" x2="36.171875" y2="141.375" style="visibility: inherit;" fill="rgb(0, 0, 0)" stroke="rgb(204, 204, 204)" stroke-width="1px"></line><line x1="41.171875" y1="94.24999999999996" x2="36.171875" y2="94.24999999999996" style="visibility: inherit;" fill="rgb(0, 0, 0)" stroke="rgb(204, 204, 204)" stroke-width="1px"></line><line x1="41.171875" y1="47.12500000000004" x2="36.171875" y2="47.12500000000004" style="visibility: inherit;" fill="rgb(0, 0, 0)" stroke="rgb(204, 204, 204)" stroke-width="1px"></line><line x1="41.171875" y1="0" x2="36.171875" y2="0" style="visibility: inherit;" fill="rgb(0, 0, 0)" stroke="rgb(204, 204, 204)" stroke-width="1px"></line></g><g transform="translate(31.171875, 0)"><text x="0" y="377" dx="0em" dy="0.3em" style="text-anchor: end; visibility: hidden; font-family: Roboto, sans-serif; font-size: 12px; font-weight: 200;" fill="rgb(33, 33, 33)" stroke="none" stroke-width="1px">0.3</text><text x="0" y="329.875" dx="0em" dy="0.3em" style="text-anchor: end; visibility: inherit; font-family: Roboto, sans-serif; font-size: 12px; font-weight: 200;" fill="rgb(33, 33, 33)" stroke="none" stroke-width="1px">0.4</text><text x="0" y="282.75" dx="0em" dy="0.3em" style="text-anchor: end; visibility: inherit; font-family: Roboto, sans-serif; font-size: 12px; font-weight: 200;" fill="rgb(33, 33, 33)" stroke="none" stroke-width="1px">0.5</text><text x="0" y="235.625" dx="0em" dy="0.3em" style="text-anchor: end; visibility: inherit; font-family: Roboto, sans-serif; font-size: 12px; font-weight: 200;" fill="rgb(33, 33, 33)" stroke="none" stroke-width="1px">0.6</text><text x="0" y="188.5" dx="0em" dy="0.3em" style="text-anchor: end; visibility: inherit; font-family: Roboto, sans-serif; font-size: 12px; font-weight: 200;" fill="rgb(33, 33, 33)" stroke="none" stroke-width="1px">0.7</text><text x="0" y="141.375" dx="0em" dy="0.3em" style="text-anchor: end; visibility: inherit; font-family: Roboto, sans-serif; font-size: 12px; font-weight: 200;" fill="rgb(33, 33, 33)" stroke="none" stroke-width="1px">0.8</text><text x="0" y="94.24999999999996" dx="0em" dy="0.3em" style="text-anchor: end; visibility: inherit; font-family: Roboto, sans-serif; font-size: 12px; font-weight: 200;" fill="rgb(33, 33, 33)" stroke="none" stroke-width="1px">0.9</text><text x="0" y="47.12500000000004" dx="0em" dy="0.3em" style="text-anchor: end; visibility: inherit; font-family: Roboto, sans-serif; font-size: 12px; font-weight: 200;" fill="rgb(33, 33, 33)" stroke="none" stroke-width="1px">1</text><text x="0" y="0" dx="0em" dy="0.3em" style="text-anchor: end; visibility: hidden; font-family: Roboto, sans-serif; font-size: 12px; font-weight: 200;" fill="rgb(33, 33, 33)" stroke="none" stroke-width="1px">1.1</text></g><line x1="41.171875" y1="0" x2="41.171875" y2="377" fill="rgb(0, 0, 0)" stroke="rgb(204, 204, 204)" stroke-width="1px"></line></g></g><g transform="translate(41, 0)" clip-path="url(#clip_0)"><clipPath id="clip_0"><rect width="973" height="377"></rect></clipPath><g><g><g><line x1="0" y1="0" x2="0" y2="377" fill="rgb(0, 0, 0)" stroke="rgb(66, 66, 66)" stroke-width="1px" opacity="0.25"></line><line x1="81.15234375" y1="0" x2="81.15234375" y2="377" fill="rgb(0, 0, 0)" stroke="rgb(66, 66, 66)" stroke-width="1px" opacity="0.25"></line><line x1="162.3046875" y1="0" x2="162.3046875" y2="377" fill="rgb(0, 0, 0)" stroke="rgb(66, 66, 66)" stroke-width="1px" opacity="0.25"></line><line x1="243.45703125" y1="0" x2="243.45703125" y2="377" fill="rgb(0, 0, 0)" stroke="rgb(66, 66, 66)" stroke-width="1px" opacity="0.25"></line><line x1="324.609375" y1="0" x2="324.609375" y2="377" fill="rgb(0, 0, 0)" stroke="rgb(66, 66, 66)" stroke-width="1px" opacity="0.25"></line><line x1="405.76171875" y1="0" x2="405.76171875" y2="377" fill="rgb(0, 0, 0)" stroke="rgb(66, 66, 66)" stroke-width="1px" opacity="0.25"></line><line x1="486.9140625" y1="0" x2="486.9140625" y2="377" fill="rgb(0, 0, 0)" stroke="rgb(66, 66, 66)" stroke-width="1px" opacity="0.25"></line><line x1="568.06640625" y1="0" x2="568.06640625" y2="377" fill="rgb(0, 0, 0)" stroke="rgb(66, 66, 66)" stroke-width="1px" opacity="0.25"></line><line x1="649.21875" y1="0" x2="649.21875" y2="377" fill="rgb(0, 0, 0)" stroke="rgb(66, 66, 66)" stroke-width="1px" opacity="0.25"></line><line x1="730.37109375" y1="0" x2="730.37109375" y2="377" fill="rgb(0, 0, 0)" stroke="rgb(66, 66, 66)" stroke-width="1px" opacity="0.25"></line><line x1="811.5234375" y1="0" x2="811.5234375" y2="377" fill="rgb(0, 0, 0)" stroke="rgb(66, 66, 66)" stroke-width="1px" opacity="0.25"></line><line x1="892.67578125" y1="0" x2="892.67578125" y2="377" fill="rgb(0, 0, 0)" stroke="rgb(66, 66, 66)" stroke-width="1px" opacity="0.25"></line><line x1="973.828125" y1="0" x2="973.828125" y2="377" fill="rgb(0, 0, 0)" stroke="rgb(66, 66, 66)" stroke-width="1px" opacity="0.25"></line></g><g><line x1="0" y1="377" x2="973.828125" y2="377" fill="rgb(0, 0, 0)" stroke="rgb(66, 66, 66)" stroke-width="1px" opacity="0.25"></line><line x1="0" y1="329.875" x2="973.828125" y2="329.875" fill="rgb(0, 0, 0)" stroke="rgb(66, 66, 66)" stroke-width="1px" opacity="0.25"></line><line x1="0" y1="282.75" x2="973.828125" y2="282.75" fill="rgb(0, 0, 0)" stroke="rgb(66, 66, 66)" stroke-width="1px" opacity="0.25"></line><line x1="0" y1="235.625" x2="973.828125" y2="235.625" fill="rgb(0, 0, 0)" stroke="rgb(66, 66, 66)" stroke-width="1px" opacity="0.25"></line><line x1="0" y1="188.5" x2="973.828125" y2="188.5" fill="rgb(0, 0, 0)" stroke="rgb(66, 66, 66)" stroke-width="1px" opacity="0.25"></line><line x1="0" y1="141.375" x2="973.828125" y2="141.375" fill="rgb(0, 0, 0)" stroke="rgb(66, 66, 66)" stroke-width="1px" opacity="0.25"></line><line x1="0" y1="94.24999999999996" x2="973.828125" y2="94.24999999999996" fill="rgb(0, 0, 0)" stroke="rgb(66, 66, 66)" stroke-width="1px" opacity="0.25"></line><line x1="0" y1="47.12500000000004" x2="973.828125" y2="47.12500000000004" fill="rgb(0, 0, 0)" stroke="rgb(66, 66, 66)" stroke-width="1px" opacity="0.25"></line><line x1="0" y1="0" x2="973.828125" y2="0" fill="rgb(0, 0, 0)" stroke="rgb(66, 66, 66)" stroke-width="1px" opacity="0.25"></line></g></g></g><g><g><line x1="0" y1="518.375" x2="973.828125" y2="518.375" fill="rgb(0, 0, 0)" stroke="rgb(153, 153, 153)" stroke-width="1.5px"></line></g></g><g><g><line x1="81.15234375" y1="0" x2="81.15234375" y2="377" fill="rgb(0, 0, 0)" stroke="rgb(153, 153, 153)" stroke-width="1.5px"></line></g></g><g><g><g><g><g><path stroke="rgb(0, 119, 187)" stroke-width="2px" d="M81.15234375,211.67960622906693L89.267578125,203.02167166583237L97.3828125,197.95684576308238L105.498046875,199.41947287507355L113.61328125,195.74325333534642L121.728515625,197.77273907804928L129.84375,193.13890576857074L137.958984375,197.79400046700744L146.07421875,192.40102178765116L154.189453125,188.76740593570756L162.3046875,186.13503673211764L170.419921875,183.21656640788197L178.53515625,181.8313945572186L186.650390625,181.00145019843148L194.765625,182.01895224055446L202.880859375,180.3570076379023L210.99609375,188.77468114191717L219.111328125,184.13510607292827L227.2265625,183.2791135399983L235.341796875,180.85536083910847L243.45703125,178.90210886935412L251.57226562500003,177.91948289430366L259.6875,178.586130321199L267.802734375,178.10848578396488L275.91796875,176.85823103329648L284.033203125,177.96658857906138L292.1484375,180.12871930903572L300.263671875,176.16025154020443L308.37890625,173.15967056000167L316.494140625,172.27136260805463L324.609375,172.73645909361957L332.724609375,175.4763109941278L340.83984375,172.52559764355686L348.955078125,170.66912844924008L357.0703125,172.51507575197107L365.185546875,170.42190427935665L373.30078125,168.82182508525375L381.416015625,175.7087797826975L389.53125,172.73390757413233L397.646484375,170.72528593493132L405.76171875,169.34803040961805L413.876953125,168.91745795670522L421.9921875,168.36657640836648L430.107421875,170.04942222565967L438.22265625,169.23505026171426L446.337890625,167.93763014111667L454.453125,167.0215210224867L462.568359375,166.83322215113697L470.68359375,168.90570011757808L478.798828125,166.41498671781792L486.9140625,165.48843331820385L495.02929687499994,164.45066790989702L503.14453125000006,165.06700073010833L511.259765625,166.14234334425512L519.375,166.34012980578183L527.490234375,165.65001597593894L535.60546875,163.7904475724137L543.720703125,162.8123748120924L551.8359375,163.275239164666L559.951171875,162.60650378765803L568.06640625,165.3371738392243L576.181640625,163.70599631059935L584.296875,162.24545642488457L592.412109375,161.52400228830132L600.52734375,163.86167448432417L608.642578125,162.14956803721884L616.7578125,162.4989757514161L624.873046875,160.90174243904127L632.98828125,160.7005723837434L641.103515625,160.64869887372365L649.21875,161.21986366951762L657.333984375,159.9621926465291L665.44921875,160.56704886666876L673.564453125,160.1211656565186L681.6796875,158.85555473176942L689.794921875,159.6449423027534L697.91015625,159.15490810826412L706.025390625,157.96604937765L714.140625,160.19536136062743L722.255859375,159.7260706095207L730.37109375,159.0315025489514L738.486328125,161.09275707846794L746.6015625,160.50543034223267L754.716796875,158.77636271803112L762.83203125,158.66817461901024L770.947265625,156.79638381870458L779.0625,157.73831109447403L787.177734375,157.44305474307012L795.29296875,158.35002320257348L803.408203125,157.89612327961638L811.5234375,156.6601165887625L819.638671875,157.31238566976256L827.75390625,157.48003756488248L835.869140625,156.238382616549L843.984375,157.71326119834737L852.099609375,157.5484803386602L860.21484375,158.22398326802696L868.330078125,159.6273660243061L876.4453125,158.1118558454816L884.560546875,157.3918450300875" style="fill: none;" fill="none"></path></g><g><path stroke="rgb(255, 112, 67)" stroke-width="2px" d="M81.15234375,229.38505844771862L89.267578125,216.6930263917894L97.3828125,208.84686138526519L105.498046875,202.86123434174814L113.61328125,199.1107247824743L121.728515625,196.3518643161396L129.84375,193.79090827136451L137.958984375,191.64016447164346L146.07421875,189.76500453493222L154.189453125,188.06396098341855L162.3046875,186.57013135825167L170.419921875,185.28747769654345L178.53515625,184.01486841835148L186.650390625,182.68910736967774L194.765625,182.0008446529365L202.880859375,180.81861781069261L210.99609375,179.60090271857322L219.111328125,178.7747819841555L227.2265625,178.1683297588057L235.341796875,177.00694762706576L243.45703125,176.47746789656603L251.57226562500003,175.72517110673382L259.6875,174.82397231892804L267.802734375,173.9790331884389L275.91796875,173.32647133101221L284.033203125,172.73284256064525L292.1484375,172.02462443109292L300.263671875,171.32154841398886L308.37890625,170.61937786203498L316.494140625,169.75260022826828L324.609375,169.30423858505475L332.724609375,168.73316708872798L340.83984375,168.2666643317503L348.955078125,167.60864398715864L357.0703125,166.81181523525606L365.185546875,166.32068484112023L373.30078125,165.76306277218714L381.416015625,165.22856548053193L389.53125,164.62102541562965L397.646484375,164.31300458412147L405.76171875,163.6827167154311L413.876953125,163.0763739571609L421.9921875,162.46918543116425L430.107421875,161.92016109776628L438.22265625,161.46905506220017L446.337890625,161.17013421990532L454.453125,160.6756940384803L462.568359375,159.98352995513895L470.68359375,159.17707965968367L478.798828125,158.95615331648594L486.9140625,158.691041370145L495.02929687499994,158.34074640864722L503.14453125000006,157.75028229114068L511.259765625,157.12654341075748L519.375,156.71535783895186L527.490234375,156.5968545072575L535.60546875,155.73476379473786L543.720703125,155.66733286595218L551.8359375,155.22702620515742L559.951171875,154.78682724886846L568.06640625,154.49011376055304L576.181640625,153.9709092173113L584.296875,153.45294586379126L592.412109375,152.99439887737512L600.52734375,152.61714021286534L608.642578125,152.0735176558564L616.7578125,151.8451264652771L624.873046875,151.35823027808436L632.98828125,150.92267172049864L641.103515625,150.5765873939477L649.21875,150.21681969467892L657.333984375,149.90969330730496L665.44921875,149.4885511795429L673.564453125,148.56873707173753L681.6796875,148.16461758135853L689.794921875,147.70484055470882L697.91015625,147.4572315597025L706.025390625,147.13481964966581L714.140625,146.7631778615768L722.255859375,146.33592060792776L730.37109375,145.99699674599364L738.486328125,145.4350846979201L746.6015625,145.0740283771265L754.716796875,144.8117673184817L762.83203125,144.23934974589017L770.947265625,144.11538421701232L779.0625,143.55640760416296L787.177734375,143.21233661386077L795.29296875,142.5082635725302L803.408203125,142.09668445257918L811.5234375,141.8953642467772L819.638671875,141.43122722626416L827.75390625,141.05931079936434L835.869140625,140.68621228666555L843.984375,140.35587457735215L852.099609375,140.0816190178328L860.21484375,139.8649106046637L868.330078125,139.59581284052615L876.4453125,139.41479321912814L884.560546875,138.64774887320934" style="fill: none;" fill="none"></path></g></g></g></g><g opacity="0.2"><g><g><g><path stroke="rgb(0, 119, 187)" stroke-width="2px" d="M81.15234375,211.67960622906685L89.267578125,197.82691092789173L97.3828125,193.0946128964424L105.498046875,201.13952235877514L113.61328125,190.94358110427856L121.728515625,200.58024847507477L129.84375,186.51244999468327L137.958984375,204.5811732262373L146.07421875,184.44742576777935L154.189453125,183.37190987169743L162.3046875,182.21035832166672L170.419921875,178.85474310815334L178.53515625,179.75815960764885L186.650390625,179.75815960764885L194.765625,183.54400926828384L202.880859375,177.8652628660202L210.99609375,201.3976293206215L219.111328125,177.17692145705223L227.2265625,181.99525514245033L235.341796875,177.21995332837105L243.45703125,175.9723380357027L251.57226562500003,176.4455762654543L259.6875,179.58608829975128L267.802734375,177.39202463626862L275.91796875,174.98285779356956L284.033203125,179.6291201710701L292.1484375,183.37190987169743L300.263671875,170.20755597949028L308.37890625,168.65880185365677L316.494140625,170.93890117108822L324.609375,173.43410366773605L332.724609375,179.58608829975128L340.83984375,168.0995279699564L348.955078125,167.88442479074L357.0703125,175.28399662673473L365.185546875,167.28214712440968L373.30078125,166.42170631885529L381.416015625,186.03921176493168L389.53125,168.27159927785397L397.646484375,167.71235348284245L405.76171875,167.28214712440968L413.876953125,168.27159927785397L421.9921875,167.54025408625603L430.107421875,172.5736909508705L438.22265625,168.0134923160076L446.337890625,165.99149996042252L454.453125,165.64735734462738L462.568359375,166.5507738441229L470.68359375,172.01441706717014L478.798828125,162.67891661822796L486.9140625,164.09860321879387L495.02929687499994,162.89401979744434L503.14453125000006,165.99149996042252L511.259765625,167.7553572654724L519.375,166.63680949807167L527.490234375,164.61484523117542L535.60546875,161.00109496712685L543.720703125,161.34526567161083L551.8359375,163.96953569352627L559.951171875,161.60340072214603L568.06640625,169.43317891657352L576.181640625,161.25923001766205L584.296875,160.05464659631252L592.412109375,160.44182108342648L600.52734375,167.36818277835846L608.642578125,159.58140836656094L616.7578125,163.02308732271194L624.873046875,158.505892470479L632.98828125,160.3988173007965L641.103515625,160.57088860869408L649.21875,162.07661086320877L657.333984375,158.07568611204624L665.44921875,161.47433319687843L673.564453125,159.45234084129333L681.6796875,156.9571383446455L689.794921875,160.82902365922928L697.91015625,158.41985681653023L706.025390625,156.18276128172874L714.140625,163.5393293350935L722.255859375,159.02213448286057L730.37109375,157.98965045809746L738.486328125,164.18463887274265L746.6015625,159.62444023787975L754.716796875,156.18276128172874L762.83203125,158.505892470479L770.947265625,153.98869761824608L779.0625,159.15120200812817L787.177734375,157.00017021596432L795.29296875,159.71047589182854L803.408203125,157.2152733951807L811.5234375,154.80610655248165L819.638671875,158.29078929126263L827.75390625,157.73151540756226L835.869140625,154.37590019404888L843.984375,159.92557907104492L852.099609375,157.3013090491295L860.21484375,159.23723766207695L868.330078125,161.73244015872478L876.4453125,155.83859057724476L884.560546875,156.31182880699635" style="fill: none;" fill="none"></path></g><g><path stroke="rgb(255, 112, 67)" stroke-width="2px" d="M81.15234375,229.38505844771862L89.267578125,209.07780715823174L97.3828125,201.314542979002L105.498046875,195.82213693857193L113.61328125,194.21405950188637L121.728515625,192.5353671014309L129.84375,190.12870015203953L137.958984375,188.50435936450958L146.07421875,186.99950785934925L154.189453125,185.5381095558405L162.3046875,184.34293584525585L170.419921875,183.37047734856606L178.53515625,182.11010979115963L186.650390625,180.7030631005764L194.765625,180.96925960481167L202.880859375,179.04611134529114L210.99609375,177.77484537661076L219.111328125,177.53581063449383L227.2265625,177.25874380767345L235.341796875,175.264980584383L243.45703125,175.6832773387432L251.57226562500003,174.59675067663193L259.6875,173.4721919298172L267.802734375,172.71163450181484L275.91796875,172.34763318300247L284.033203125,171.84240193665028L292.1484375,170.9622990489006L300.263671875,170.26693546772003L308.37890625,169.56612268090248L316.494140625,168.45243425667286L324.609375,168.63169626891613L332.724609375,167.8765599578619L340.83984375,167.56691025197506L348.955078125,166.6216135174036L357.0703125,165.61657214164734L365.185546875,165.58398926258087L373.30078125,164.9266296774149L381.416015625,164.42681954801083L389.53125,163.70971532166004L397.646484375,163.85097333788872L405.76171875,162.7372849136591L413.876953125,162.16685982048512L421.9921875,161.5584026426077L430.107421875,161.09662459790707L438.22265625,160.79239600896835L446.337890625,160.7217529565096L454.453125,159.9340337663889L462.568359375,158.94528383016586L470.68359375,157.96740421652794L478.798828125,158.62476380169392L486.9140625,158.29337345063686L495.02929687499994,157.815303966403L503.14453125000006,156.86458611488342L511.259765625,156.1909350901842L519.375,156.0985794812441L527.490234375,156.41909950971603L535.60546875,154.44162772595882L543.720703125,155.56618647277355L551.8359375,154.56656621396542L559.951171875,154.126528814435L568.06640625,154.04504352808L576.181640625,153.19210240244865L584.296875,152.67600083351135L592.412109375,152.30657839775085L600.52734375,152.0512522161007L608.642578125,151.25808382034302L616.7578125,151.50253967940807L624.873046875,150.62788599729538L632.98828125,150.26933388412L641.103515625,150.0574609041214L649.21875,149.6771681457758L657.333984375,149.44900372624397L665.44921875,148.85683798789978L673.564453125,147.1890159100294L681.6796875,147.5584383457899L689.794921875,147.01517501473427L697.91015625,147.08581806719303L706.025390625,146.65120178461075L714.140625,146.20571517944336L722.255859375,145.69503472745419L730.37109375,145.48861095309258L738.486328125,144.59221662580967L746.6015625,144.532443895936L754.716796875,144.41837573051453L762.83203125,143.38072338700294L770.947265625,143.92943592369556L779.0625,142.71794268488884L787.177734375,142.69623012840748L795.29296875,141.4521540105343L803.408203125,141.47931577265263L811.5234375,141.5933839380741L819.638671875,140.73502169549468L827.75390625,140.50143615901473L835.869140625,140.12656451761725L843.984375,139.860368013382L852.099609375,139.6702356785536L860.21484375,139.53984798491004L868.330078125,139.19216619431975L876.4453125,139.1432637870312L884.560546875,137.49718235433104" style="fill: none;" fill="none"></path></g></g></g></g></g></g><g transform="translate(41, 377)" clip-path="url(#clip_1)"><clipPath id="clip_1"><rect width="973" height="23"></rect></clipPath><g><g><line x1="0" y1="0" x2="0" y2="5" style="visibility: inherit;" fill="rgb(0, 0, 0)" stroke="rgb(204, 204, 204)" stroke-width="1px"></line><line x1="81.15234375" y1="0" x2="81.15234375" y2="5" style="visibility: inherit;" fill="rgb(0, 0, 0)" stroke="rgb(204, 204, 204)" stroke-width="1px"></line><line x1="162.3046875" y1="0" x2="162.3046875" y2="5" style="visibility: inherit;" fill="rgb(0, 0, 0)" stroke="rgb(204, 204, 204)" stroke-width="1px"></line><line x1="243.45703125" y1="0" x2="243.45703125" y2="5" style="visibility: inherit;" fill="rgb(0, 0, 0)" stroke="rgb(204, 204, 204)" stroke-width="1px"></line><line x1="324.609375" y1="0" x2="324.609375" y2="5" style="visibility: inherit;" fill="rgb(0, 0, 0)" stroke="rgb(204, 204, 204)" stroke-width="1px"></line><line x1="405.76171875" y1="0" x2="405.76171875" y2="5" style="visibility: inherit;" fill="rgb(0, 0, 0)" stroke="rgb(204, 204, 204)" stroke-width="1px"></line><line x1="486.9140625" y1="0" x2="486.9140625" y2="5" style="visibility: inherit;" fill="rgb(0, 0, 0)" stroke="rgb(204, 204, 204)" stroke-width="1px"></line><line x1="568.06640625" y1="0" x2="568.06640625" y2="5" style="visibility: inherit;" fill="rgb(0, 0, 0)" stroke="rgb(204, 204, 204)" stroke-width="1px"></line><line x1="649.21875" y1="0" x2="649.21875" y2="5" style="visibility: inherit;" fill="rgb(0, 0, 0)" stroke="rgb(204, 204, 204)" stroke-width="1px"></line><line x1="730.37109375" y1="0" x2="730.37109375" y2="5" style="visibility: inherit;" fill="rgb(0, 0, 0)" stroke="rgb(204, 204, 204)" stroke-width="1px"></line><line x1="811.5234375" y1="0" x2="811.5234375" y2="5" style="visibility: inherit;" fill="rgb(0, 0, 0)" stroke="rgb(204, 204, 204)" stroke-width="1px"></line><line x1="892.67578125" y1="0" x2="892.67578125" y2="5" style="visibility: inherit;" fill="rgb(0, 0, 0)" stroke="rgb(204, 204, 204)" stroke-width="1px"></line><line x1="973.828125" y1="0" x2="973.828125" y2="5" style="visibility: inherit;" fill="rgb(0, 0, 0)" stroke="rgb(204, 204, 204)" stroke-width="1px"></line></g><g transform="translate(0, 8)"><text x="0" y="0" dx="0em" dy="0.95em" style="text-anchor: middle; visibility: hidden; font-family: Roboto, sans-serif; font-size: 12px; font-weight: 200;" fill="rgb(33, 33, 33)" stroke="none" stroke-width="1px">-10</text><text x="81.15234375" y="0" dx="0em" dy="0.95em" style="text-anchor: middle; visibility: inherit; font-family: Roboto, sans-serif; font-size: 12px; font-weight: 200;" fill="rgb(33, 33, 33)" stroke="none" stroke-width="1px">0</text><text x="162.3046875" y="0" dx="0em" dy="0.95em" style="text-anchor: middle; visibility: inherit; font-family: Roboto, sans-serif; font-size: 12px; font-weight: 200;" fill="rgb(33, 33, 33)" stroke="none" stroke-width="1px">10</text><text x="243.45703125" y="0" dx="0em" dy="0.95em" style="text-anchor: middle; visibility: inherit; font-family: Roboto, sans-serif; font-size: 12px; font-weight: 200;" fill="rgb(33, 33, 33)" stroke="none" stroke-width="1px">20</text><text x="324.609375" y="0" dx="0em" dy="0.95em" style="text-anchor: middle; visibility: inherit; font-family: Roboto, sans-serif; font-size: 12px; font-weight: 200;" fill="rgb(33, 33, 33)" stroke="none" stroke-width="1px">30</text><text x="405.76171875" y="0" dx="0em" dy="0.95em" style="text-anchor: middle; visibility: inherit; font-family: Roboto, sans-serif; font-size: 12px; font-weight: 200;" fill="rgb(33, 33, 33)" stroke="none" stroke-width="1px">40</text><text x="486.9140625" y="0" dx="0em" dy="0.95em" style="text-anchor: middle; visibility: inherit; font-family: Roboto, sans-serif; font-size: 12px; font-weight: 200;" fill="rgb(33, 33, 33)" stroke="none" stroke-width="1px">50</text><text x="568.06640625" y="0" dx="0em" dy="0.95em" style="text-anchor: middle; visibility: inherit; font-family: Roboto, sans-serif; font-size: 12px; font-weight: 200;" fill="rgb(33, 33, 33)" stroke="none" stroke-width="1px">60</text><text x="649.21875" y="0" dx="0em" dy="0.95em" style="text-anchor: middle; visibility: inherit; font-family: Roboto, sans-serif; font-size: 12px; font-weight: 200;" fill="rgb(33, 33, 33)" stroke="none" stroke-width="1px">70</text><text x="730.37109375" y="0" dx="0em" dy="0.95em" style="text-anchor: middle; visibility: inherit; font-family: Roboto, sans-serif; font-size: 12px; font-weight: 200;" fill="rgb(33, 33, 33)" stroke="none" stroke-width="1px">80</text><text x="811.5234375" y="0" dx="0em" dy="0.95em" style="text-anchor: middle; visibility: inherit; font-family: Roboto, sans-serif; font-size: 12px; font-weight: 200;" fill="rgb(33, 33, 33)" stroke="none" stroke-width="1px">90</text><text x="892.67578125" y="0" dx="0em" dy="0.95em" style="text-anchor: middle; visibility: inherit; font-family: Roboto, sans-serif; font-size: 12px; font-weight: 200;" fill="rgb(33, 33, 33)" stroke="none" stroke-width="1px">100</text><text x="973.828125" y="0" dx="0em" dy="0.95em" style="text-anchor: middle; visibility: hidden; font-family: Roboto, sans-serif; font-size: 12px; font-weight: 200;" fill="rgb(33, 33, 33)" stroke="none" stroke-width="1px">110</text></g><line x1="0" y1="0" x2="973.828125" y2="0" fill="rgb(0, 0, 0)" stroke="rgb(204, 204, 204)" stroke-width="1px"></line></g></g></g></g></svg>