<svg viewBox="0 0 1015 400" xmlns="http://www.w3.org/2000/svg"><g><g><g><g><g><line x1="51.5625" y1="377" x2="46.5625" y2="377" style="visibility: inherit;" fill="rgb(0, 0, 0)" stroke="rgb(204, 204, 204)" stroke-width="1px"></line><line x1="51.5625" y1="339.30000000000007" x2="46.5625" y2="339.30000000000007" style="visibility: inherit;" fill="rgb(0, 0, 0)" stroke="rgb(204, 204, 204)" stroke-width="1px"></line><line x1="51.5625" y1="301.6" x2="46.5625" y2="301.6" style="visibility: inherit;" fill="rgb(0, 0, 0)" stroke="rgb(204, 204, 204)" stroke-width="1px"></line><line x1="51.5625" y1="263.9" x2="46.5625" y2="263.9" style="visibility: inherit;" fill="rgb(0, 0, 0)" stroke="rgb(204, 204, 204)" stroke-width="1px"></line><line x1="51.5625" y1="226.20000000000005" x2="46.5625" y2="226.20000000000005" style="visibility: inherit;" fill="rgb(0, 0, 0)" stroke="rgb(204, 204, 204)" stroke-width="1px"></line><line x1="51.5625" y1="188.5" x2="46.5625" y2="188.5" style="visibility: inherit;" fill="rgb(0, 0, 0)" stroke="rgb(204, 204, 204)" stroke-width="1px"></line><line x1="51.5625" y1="150.79999999999995" x2="46.5625" y2="150.79999999999995" style="visibility: inherit;" fill="rgb(0, 0, 0)" stroke="rgb(204, 204, 204)" stroke-width="1px"></line><line x1="51.5625" y1="113.09999999999994" x2="46.5625" y2="113.09999999999994" style="visibility: inherit;" fill="rgb(0, 0, 0)" stroke="rgb(204, 204, 204)" stroke-width="1px"></line><line x1="51.5625" y1="75.39999999999986" x2="46.5625" y2="75.39999999999986" style="visibility: inherit;" fill="rgb(0, 0, 0)" stroke="rgb(204, 204, 204)" stroke-width="1px"></line><line x1="51.5625" y1="37.70000000000003" x2="46.5625" y2="37.70000000000003" style="visibility: inherit;" fill="rgb(0, 0, 0)" stroke="rgb(204, 204, 204)" stroke-width="1px"></line><line x1="51.5625" y1="0" x2="46.5625" y2="0" style="visibility: inherit;" fill="rgb(0, 0, 0)" stroke="rgb(204, 204, 204)" stroke-width="1px"></line></g><g transform="translate(41.5625, 0)"><text x="0" y="377" dx="0em" dy="0.3em" style="text-anchor: end; visibility: hidden; font-family: Roboto, sans-serif; font-size: 12px; font-weight: 200;" fill="rgb(33, 33, 33)" stroke="none" stroke-width="1px">0.4</text><text x="0" y="339.30000000000007" dx="0em" dy="0.3em" style="text-anchor: end; visibility: inherit; font-family: Roboto, sans-serif; font-size: 12px; font-weight: 200;" fill="rgb(33, 33, 33)" stroke="none" stroke-width="1px">0.42</text><text x="0" y="301.6" dx="0em" dy="0.3em" style="text-anchor: end; visibility: inherit; font-family: Roboto, sans-serif; font-size: 12px; font-weight: 200;" fill="rgb(33, 33, 33)" stroke="none" stroke-width="1px">0.44</text><text x="0" y="263.9" dx="0em" dy="0.3em" style="text-anchor: end; visibility: inherit; font-family: Roboto, sans-serif; font-size: 12px; font-weight: 200;" fill="rgb(33, 33, 33)" stroke="none" stroke-width="1px">0.46</text><text x="0" y="226.20000000000005" dx="0em" dy="0.3em" style="text-anchor: end; visibility: inherit; font-family: Roboto, sans-serif; font-size: 12px; font-weight: 200;" fill="rgb(33, 33, 33)" stroke="none" stroke-width="1px">0.48</text><text x="0" y="188.5" dx="0em" dy="0.3em" style="text-anchor: end; visibility: inherit; font-family: Roboto, sans-serif; font-size: 12px; font-weight: 200;" fill="rgb(33, 33, 33)" stroke="none" stroke-width="1px">0.5</text><text x="0" y="150.79999999999995" dx="0em" dy="0.3em" style="text-anchor: end; visibility: inherit; font-family: Roboto, sans-serif; font-size: 12px; font-weight: 200;" fill="rgb(33, 33, 33)" stroke="none" stroke-width="1px">0.52</text><text x="0" y="113.09999999999994" dx="0em" dy="0.3em" style="text-anchor: end; visibility: inherit; font-family: Roboto, sans-serif; font-size: 12px; font-weight: 200;" fill="rgb(33, 33, 33)" stroke="none" stroke-width="1px">0.54</text><text x="0" y="75.39999999999986" dx="0em" dy="0.3em" style="text-anchor: end; visibility: inherit; font-family: Roboto, sans-serif; font-size: 12px; font-weight: 200;" fill="rgb(33, 33, 33)" stroke="none" stroke-width="1px">0.56</text><text x="0" y="37.70000000000003" dx="0em" dy="0.3em" style="text-anchor: end; visibility: inherit; font-family: Roboto, sans-serif; font-size: 12px; font-weight: 200;" fill="rgb(33, 33, 33)" stroke="none" stroke-width="1px">0.58</text><text x="0" y="0" dx="0em" dy="0.3em" style="text-anchor: end; visibility: hidden; font-family: Roboto, sans-serif; font-size: 12px; font-weight: 200;" fill="rgb(33, 33, 33)" stroke="none" stroke-width="1px">0.6</text></g><line x1="51.5625" y1="0" x2="51.5625" y2="377" fill="rgb(0, 0, 0)" stroke="rgb(204, 204, 204)" stroke-width="1px"></line></g></g><g transform="translate(51, 0)" clip-path="url(#clip_0)"><clipPath id="clip_0"><rect width="963" height="377"></rect></clipPath><g><g><g><line x1="0" y1="0" x2="0" y2="377" fill="rgb(0, 0, 0)" stroke="rgb(66, 66, 66)" stroke-width="1px" opacity="0.25"></line><line x1="80.28645833333333" y1="0" x2="80.28645833333333" y2="377" fill="rgb(0, 0, 0)" stroke="rgb(66, 66, 66)" stroke-width="1px" opacity="0.25"></line><line x1="160.57291666666666" y1="0" x2="160.57291666666666" y2="377" fill="rgb(0, 0, 0)" stroke="rgb(66, 66, 66)" stroke-width="1px" opacity="0.25"></line><line x1="240.859375" y1="0" x2="240.859375" y2="377" fill="rgb(0, 0, 0)" stroke="rgb(66, 66, 66)" stroke-width="1px" opacity="0.25"></line><line x1="321.1458333333333" y1="0" x2="321.1458333333333" y2="377" fill="rgb(0, 0, 0)" stroke="rgb(66, 66, 66)" stroke-width="1px" opacity="0.25"></line><line x1="401.4322916666667" y1="0" x2="401.4322916666667" y2="377" fill="rgb(0, 0, 0)" stroke="rgb(66, 66, 66)" stroke-width="1px" opacity="0.25"></line><line x1="481.71875" y1="0" x2="481.71875" y2="377" fill="rgb(0, 0, 0)" stroke="rgb(66, 66, 66)" stroke-width="1px" opacity="0.25"></line><line x1="562.0052083333334" y1="0" x2="562.0052083333334" y2="377" fill="rgb(0, 0, 0)" stroke="rgb(66, 66, 66)" stroke-width="1px" opacity="0.25"></line><line x1="642.2916666666666" y1="0" x2="642.2916666666666" y2="377" fill="rgb(0, 0, 0)" stroke="rgb(66, 66, 66)" stroke-width="1px" opacity="0.25"></line><line x1="722.578125" y1="0" x2="722.578125" y2="377" fill="rgb(0, 0, 0)" stroke="rgb(66, 66, 66)" stroke-width="1px" opacity="0.25"></line><line x1="802.8645833333334" y1="0" x2="802.8645833333334" y2="377" fill="rgb(0, 0, 0)" stroke="rgb(66, 66, 66)" stroke-width="1px" opacity="0.25"></line><line x1="883.1510416666666" y1="0" x2="883.1510416666666" y2="377" fill="rgb(0, 0, 0)" stroke="rgb(66, 66, 66)" stroke-width="1px" opacity="0.25"></line><line x1="963.4375" y1="0" x2="963.4375" y2="377" fill="rgb(0, 0, 0)" stroke="rgb(66, 66, 66)" stroke-width="1px" opacity="0.25"></line></g><g><line x1="0" y1="377" x2="963.4375" y2="377" fill="rgb(0, 0, 0)" stroke="rgb(66, 66, 66)" stroke-width="1px" opacity="0.25"></line><line x1="0" y1="339.30000000000007" x2="963.4375" y2="339.30000000000007" fill="rgb(0, 0, 0)" stroke="rgb(66, 66, 66)" stroke-width="1px" opacity="0.25"></line><line x1="0" y1="301.6" x2="963.4375" y2="301.6" fill="rgb(0, 0, 0)" stroke="rgb(66, 66, 66)" stroke-width="1px" opacity="0.25"></line><line x1="0" y1="263.9" x2="963.4375" y2="263.9" fill="rgb(0, 0, 0)" stroke="rgb(66, 66, 66)" stroke-width="1px" opacity="0.25"></line><line x1="0" y1="226.20000000000005" x2="963.4375" y2="226.20000000000005" fill="rgb(0, 0, 0)" stroke="rgb(66, 66, 66)" stroke-width="1px" opacity="0.25"></line><line x1="0" y1="188.5" x2="963.4375" y2="188.5" fill="rgb(0, 0, 0)" stroke="rgb(66, 66, 66)" stroke-width="1px" opacity="0.25"></line><line x1="0" y1="150.79999999999995" x2="963.4375" y2="150.79999999999995" fill="rgb(0, 0, 0)" stroke="rgb(66, 66, 66)" stroke-width="1px" opacity="0.25"></line><line x1="0" y1="113.09999999999994" x2="963.4375" y2="113.09999999999994" fill="rgb(0, 0, 0)" stroke="rgb(66, 66, 66)" stroke-width="1px" opacity="0.25"></line><line x1="0" y1="75.39999999999986" x2="963.4375" y2="75.39999999999986" fill="rgb(0, 0, 0)" stroke="rgb(66, 66, 66)" stroke-width="1px" opacity="0.25"></line><line x1="0" y1="37.70000000000003" x2="963.4375" y2="37.70000000000003" fill="rgb(0, 0, 0)" stroke="rgb(66, 66, 66)" stroke-width="1px" opacity="0.25"></line><line x1="0" y1="0" x2="963.4375" y2="0" fill="rgb(0, 0, 0)" stroke="rgb(66, 66, 66)" stroke-width="1px" opacity="0.25"></line></g></g></g><g><g><line x1="0" y1="1131.0000000000002" x2="963.4375" y2="1131.0000000000002" fill="rgb(0, 0, 0)" stroke="rgb(153, 153, 153)" stroke-width="1.5px"></line></g></g><g><g><line x1="80.28645833333333" y1="0" x2="80.28645833333333" y2="377" fill="rgb(0, 0, 0)" stroke="rgb(153, 153, 153)" stroke-width="1.5px"></line></g></g><g><g><g><g><g><path stroke="rgb(0, 119, 187)" stroke-width="2px" d="M88.31510416666666,-8.503488205373538L96.34375,14.981514700821366L104.37239583333334,16.98135853514945L112.40104166666667,35.71101998062614L120.4296875,28.37648733340342L128.45833333333334,49.72093378448873L136.48697916666666,35.12887821405423L144.515625,60.58271165153422L152.54427083333331,75.6471143032702L160.57291666666666,89.77888633647511L168.6015625,101.88167831611263L176.63020833333331,110.83820628160447L184.65885416666669,115.66265593238465L192.6875,107.3287571871998L200.71614583333334,119.26410461938703L208.74479166666669,76.54138231347034L216.7734375,102.48696513846647L224.80208333333334,103.44508067986511L232.83072916666666,118.2512413349586L240.859375,129.4987669489952L248.88802083333337,137.00647277761243L256.9166666666667,128.76770097726L264.9453125,130.4804517286794L272.9739583333333,133.20016441243445L281.0026041666667,131.4836298837953L289.03125,118.9214273753824L297.05989583333337,140.15948794331365L305.08854166666663,152.4072807023819L313.1171875,158.7663775071988L321.1458333333333,159.88424159724653L329.1744791666667,143.98690169674893L337.203125,160.30856466521573L345.2317708333333,171.6218566573339L353.26041666666663,162.4363557951132L361.2890625,175.70533270553605L369.31770833333337,180.9550816677009L377.3463541666667,127.56934368230245L385.375,150.4172668227998L393.4036458333333,166.45156187588265L401.4322916666667,175.64988725192566L409.4609375,181.83712361637782L417.48958333333337,185.96461625447253L425.51822916666663,177.5881143528636L433.546875,181.3149183109352L441.5755208333333,185.1539435099939L449.6041666666667,192.03170272801512L457.6328125,195.15745715562073L465.6614583333333,170.3218925011601L473.69010416666663,190.68228473753973L481.71875,199.0348647504927L489.7473958333333,207.18077336968662L497.77604166666674,199.13630866539066L505.8046875,196.36803637463524L513.8333333333334,195.60973110508087L521.8619791666666,203.6853501600722L529.890625,214.7982967974391L537.9192708333334,218.4687320281061L545.9479166666666,213.89184428983845L553.9765625,217.80003439029431L562.0052083333334,205.20756348753153L570.0338541666666,216.8929002212538L578.0625,219.81344538492286L586.0911458333333,224.7953200433393L594.1197916666667,216.0107226070011L602.1484375,224.0073754367973L610.1770833333333,218.35868939028657L618.2057291666667,226.08864365974952L626.234375,226.02272708988122L634.2630208333334,228.01648362741417L642.2916666666666,226.37234192052813L650.3203125,232.9439612922629L658.3489583333334,233.20439345226052L666.3776041666666,230.23831409564843L674.40625,235.79473540992277L682.4348958333334,235.0863337505504L690.4635416666666,234.48685076169042L698.4921875,238.8803288956396L706.5208333333333,231.33381664871638L714.5494791666667,229.5445339925258L722.578125,231.04388829750837L730.6067708333333,222.3089233081521L738.6354166666667,228.94260605817922L746.6640625,235.66105839399037L754.6927083333334,231.77028811447343L762.7213541666666,242.81051355882008L770.75,236.81329984833908L778.7786458333334,237.03781970363917L786.8072916666666,228.8691556574229L794.8359375,229.94044390447885L802.8645833333334,239.8509112067697L810.8932291666666,232.2908017318056L818.921875,234.5426261234645L826.9505208333333,240.43750436355847L834.9791666666667,238.8013262465607L843.0078125,238.7287715861207L851.0364583333333,233.36625231438913L859.0651041666667,221.91158668478744L867.09375,230.3384040014769L875.1223958333334,233.49810341696883" style="fill: none;" fill="none"></path></g><g><path stroke="rgb(255, 112, 67)" stroke-width="2px" d="M96.34375,-25.14041660513175L104.37239583333334,1.071744246079895L112.40104166666667,20.783321260620227L120.4296875,37.04317357857669L128.45833333333334,50.72466930660294L136.48697916666666,61.831600897995884L144.515625,70.99238133069612L152.54427083333331,79.72872099391984L160.57291666666666,88.0741351177335L168.6015625,95.74792117255397L176.63020833333331,102.81702035741331L184.65885416666669,109.33146842563634L192.6875,114.81943276257157L200.71614583333334,120.30137618269184L208.74479166666669,126.19208401152643L216.7734375,130.23102384171193L224.80208333333334,134.20624342836228L232.83072916666666,138.90086894145742L240.859375,142.85130863277502L248.88802083333337,146.70367548382933L256.9166666666667,150.39829593118804L264.9453125,154.80782026439672L272.9739583333333,158.93921511761502L281.0026041666667,162.05325444099242L289.03125,165.57180814587497L297.05989583333337,169.03061171172106L305.08854166666663,172.6864548313043L313.1171875,176.3354486061069L321.1458333333333,179.48111827572083L329.1744791666667,182.90616217334576L337.203125,186.10713948442927L345.2317708333333,189.58226621352944L353.26041666666663,193.49575856620257L361.2890625,196.65813379744642L369.31770833333337,200.01410341706514L377.3463541666667,203.1295257949081L385.375,206.1661226544828L393.4036458333333,209.33254024178163L401.4322916666667,213.09680560408182L409.4609375,215.8828928673451L417.48958333333337,219.10573744891866L425.51822916666663,222.0486595523615L433.546875,224.5980647621575L441.5755208333333,227.2118863356566L449.6041666666667,229.96388156975416L457.6328125,233.1249693261207L465.6614583333333,236.4823686258423L473.69010416666663,238.96975431303775L481.71875,241.94079677738557L489.7473958333333,244.23683854626978L497.77604166666674,247.3686808746354L505.8046875,250.533349382958L513.8333333333334,252.9888458300136L521.8619791666666,255.1881801276514L529.890625,257.6556418293191L537.9192708333334,260.2323641987728L545.9479166666666,262.84250950885365L553.9765625,265.50771832509383L562.0052083333334,268.4141810777399L570.0338541666666,271.3215146924624L578.0625,274.3463321248036L586.0911458333333,276.64699960466277L594.1197916666667,279.1399593515161L602.1484375,282.3496395804264L610.1770833333333,285.04202174292675L618.2057291666667,287.7951552936237L626.234375,290.7208911698342L634.2630208333334,293.36022755630495L642.2916666666666,295.2765118189315L650.3203125,298.37471607373124L658.3489583333334,301.5114043178914L666.3776041666666,304.39195891754383L674.40625,307.1331248553785L682.4348958333334,310.2078532738801L690.4635416666666,312.3543403722833L698.4921875,314.50102743971297L706.5208333333333,317.43096960465886L714.5494791666667,320.572246652131L722.578125,323.05390875416083L730.6067708333333,326.0087985091036L738.6354166666667,328.2323872859851L746.6640625,330.53319592568744L754.6927083333334,332.7057371931879L762.7213541666666,335.306172895289L770.75,338.41346941462547L778.7786458333334,340.37588808579085L786.8072916666666,342.90155141140724L794.8359375,345.56903506866513L802.8645833333334,347.8337890479053L810.8932291666666,350.7266658528499L818.921875,352.79520919226724L826.9505208333333,355.33895375909293L834.9791666666667,357.78495899785685L843.0078125,360.54187790125087L851.0364583333333,362.6632003162472L859.0651041666667,365.2082091316085L867.09375,367.71150983241205L875.1223958333334,369.8427218250454" style="fill: none;" fill="none"></path></g></g></g></g><g opacity="0.2"><g><g><g><path stroke="rgb(0, 119, 187)" stroke-width="2px" d="M80.28645833333333,-44.206248164177026L88.31510416666666,12.918167769908862L96.34375,37.52711749076839L104.37239583333334,19.333174884319263L112.40104166666667,60.16446596384044L120.4296875,18.230188250541644L128.45833333333334,80.24383372068401L136.48697916666666,13.853521108627277L144.515625,98.12217181921005L152.54427083333331,98.01599657535553L160.57291666666666,110.84837025403976L168.6015625,119.97000342607498L176.63020833333331,124.24375361204147L184.65885416666669,122.88987880945206L192.6875,94.83770525455475L200.71614583333334,137.1587080359459L208.74479166666669,12.475377678871112L216.7734375,141.3987517952919L224.80208333333334,104.8821080327034L232.83072916666666,140.45912897586823L240.859375,146.3694385290146L248.88802083333337,148.2677844762802L256.9166666666667,116.40970593690872L264.9453125,133.04955756664276L272.9739583333333,137.27971410751343L281.0026041666667,128.90883541107178L289.03125,100.0781557559967L297.05989583333337,172.016546189785L305.08854166666663,170.77895855903625L313.1171875,168.30501919984818L321.1458333333333,161.56103736162186L329.1744791666667,120.14089500904083L337.203125,184.7910571694374L345.2317708333333,188.59179383516312L353.26041666666663,148.6581048965454L361.2890625,195.60879772901535L369.31770833333337,188.82970502972603L377.3463541666667,47.49073719978328L385.375,184.68915140628815L393.4036458333333,190.50300440192223L401.4322916666667,189.4473752975464L409.4609375,191.11797815561295L417.48958333333337,192.15585520863533L425.51822916666663,165.0233615040779L433.546875,186.90512424707413L441.5755208333333,190.9124813079834L449.6041666666667,202.3483415544033L457.6328125,199.84608879685402L465.6614583333333,133.06854552030563L473.69010416666663,221.2228730916977L481.71875,211.56373476982117L489.7473958333333,219.39963629841805L497.77604166666674,187.0696116089821L505.8046875,192.215627938509L513.8333333333334,194.47227320075035L521.8619791666666,215.7987787425518L529.890625,231.46771675348282L537.9192708333334,223.97438487410545L545.9479166666666,207.0265126824379L553.9765625,223.66231954097748L562.0052083333334,186.31885713338852L570.0338541666666,234.42090532183647L578.0625,224.1942631304264L586.0911458333333,232.2681320309639L594.1197916666667,202.83382645249367L602.1484375,236.00235468149185L610.1770833333333,209.8856603205204L618.2057291666667,237.68357506394386L626.234375,225.9238522350788L634.2630208333334,231.0071184337139L642.2916666666666,223.90612936019897L650.3203125,242.80139034986496L658.3489583333334,233.59504169225693L666.3776041666666,225.78919506072998L674.40625,244.1293673813343L682.4348958333334,234.02373126149178L690.4635416666666,233.58762627840042L698.4921875,245.47054609656334L706.5208333333333,220.01404827833176L714.5494791666667,226.86061000823975L722.578125,233.292919754982L730.6067708333333,209.20647582411766L738.6354166666667,238.8931301832199L746.6640625,245.73873689770699L754.6927083333334,225.93413269519806L762.7213541666666,259.3708517253399L770.75,227.81747928261757L778.7786458333334,237.37459948658943L786.8072916666666,216.61615958809853L794.8359375,231.54737627506256L802.8645833333334,254.71661216020584L810.8932291666666,220.9506375193596L818.921875,237.92036271095276L826.9505208333333,249.27982172369957L834.9791666666667,236.347059071064L843.0078125,238.6199395954609L851.0364583333333,225.3224734067917L859.0651041666667,204.72958824038506L867.09375,242.978629976511L875.1223958333334,238.2376525402069" style="fill: none;" fill="none"></path></g><g><path stroke="rgb(255, 112, 67)" stroke-width="2px" d="M88.31510416666666,-32.613821566104974L96.34375,6.288563072681385L104.37239583333334,31.89724540710445L112.40104166666667,46.51875621080394L120.4296875,59.536402881145435L128.45833333333334,70.28942710161205L136.48697916666666,78.02561378479L144.515625,84.50275307893749L152.54427083333331,92.70116722583766L160.57291666666666,100.51656401157379L168.6015625,107.21683984994888L176.63020833333331,113.39758729934692L184.65885416666669,119.09037804603577L192.6875,123.04492837190628L200.71614583333334,128.5204250216484L208.74479166666669,135.0256530046463L216.7734375,136.288408100605L224.80208333333334,140.16846722364426L232.83072916666666,145.94237810373306L240.859375,148.7767515182495L248.88802083333337,152.48209899663925L256.9166666666667,155.94015365839005L264.9453125,161.42205452919006L272.9739583333333,165.13627803325653L281.0026041666667,166.7243001461029L289.03125,170.84962970018387L297.05989583333337,174.218811750412L305.08854166666663,178.17021614313126L313.1171875,181.80893725156784L321.1458333333333,184.19962173700333L329.1744791666667,188.04372733831406L337.203125,190.90860506892204L345.2317708333333,194.79495605826378L353.26041666666663,199.36599692702293L361.2890625,201.40169656276703L369.31770833333337,205.04805779457092L377.3463541666667,207.80265933275223L385.375,210.72101792693138L393.4036458333333,214.08216661214828L401.4322916666667,218.74320363998413L409.4609375,220.06202375888824L417.48958333333337,223.94000431895256L425.51822916666663,226.46304270625114L433.546875,228.42217257618904L441.5755208333333,231.1326186954975L449.6041666666667,234.09187442064285L457.6328125,237.8666009604931L465.6614583333333,241.51846757531166L473.69010416666663,242.70083284378052L481.71875,246.39736047387123L489.7473958333333,247.68090119957924L497.77604166666674,252.06644436717033L505.8046875,255.28035214543343L513.8333333333334,256.6720905005932L521.8619791666666,258.4871815741062L529.890625,261.35683438181877L537.9192708333334,264.0974477529526L545.9479166666666,266.7577274739742L553.9765625,269.50553154945374L562.0052083333334,272.7738752067089L570.0338541666666,275.6825151145458L578.0625,278.88355827331543L586.0911458333333,280.09800082445145L594.1197916666667,282.87939897179604L602.1484375,287.1641599237919L610.1770833333333,289.08059498667717L618.2057291666667,291.92485561966896L626.234375,295.10949498414993L634.2630208333334,297.3192321360111L642.2916666666666,298.15093821287155L650.3203125,303.0220224559307L658.3489583333334,306.2164366841316L666.3776041666666,308.7127908170224L674.40625,311.2448737621308L682.4348958333334,314.81994590163237L690.4635416666666,315.574071019888L698.4921875,317.7210580408574L706.5208333333333,321.82588285207754L714.5494791666667,325.28416222333914L722.578125,326.77640190720564L730.6067708333333,330.4411331415177L738.6354166666667,331.56777045130735L746.6640625,333.9844088852406L754.6927083333334,335.9645490944386L762.7213541666666,339.2068264484406L770.75,343.0744141936303L778.7786458333334,343.3195160925389L786.8072916666666,346.69004639983183L794.8359375,349.57026055455214L802.8645833333334,351.23092001676565L810.8932291666666,355.06598106026655L818.921875,355.8980242013932L826.9505208333333,359.1545706093312L834.9791666666667,361.45396685600286L843.0078125,364.677256256342L851.0364583333333,365.84518393874174L859.0651041666667,369.02572235465055L867.09375,371.46646088361746L875.1223958333334,373.0395398139954" style="fill: none;" fill="none"></path></g></g></g></g></g></g><g transform="translate(51, 377)" clip-path="url(#clip_1)"><clipPath id="clip_1"><rect width="963" height="23"></rect></clipPath><g><g><line x1="0" y1="0" x2="0" y2="5" style="visibility: inherit;" fill="rgb(0, 0, 0)" stroke="rgb(204, 204, 204)" stroke-width="1px"></line><line x1="80.28645833333333" y1="0" x2="80.28645833333333" y2="5" style="visibility: inherit;" fill="rgb(0, 0, 0)" stroke="rgb(204, 204, 204)" stroke-width="1px"></line><line x1="160.57291666666666" y1="0" x2="160.57291666666666" y2="5" style="visibility: inherit;" fill="rgb(0, 0, 0)" stroke="rgb(204, 204, 204)" stroke-width="1px"></line><line x1="240.859375" y1="0" x2="240.859375" y2="5" style="visibility: inherit;" fill="rgb(0, 0, 0)" stroke="rgb(204, 204, 204)" stroke-width="1px"></line><line x1="321.1458333333333" y1="0" x2="321.1458333333333" y2="5" style="visibility: inherit;" fill="rgb(0, 0, 0)" stroke="rgb(204, 204, 204)" stroke-width="1px"></line><line x1="401.4322916666667" y1="0" x2="401.4322916666667" y2="5" style="visibility: inherit;" fill="rgb(0, 0, 0)" stroke="rgb(204, 204, 204)" stroke-width="1px"></line><line x1="481.71875" y1="0" x2="481.71875" y2="5" style="visibility: inherit;" fill="rgb(0, 0, 0)" stroke="rgb(204, 204, 204)" stroke-width="1px"></line><line x1="562.0052083333334" y1="0" x2="562.0052083333334" y2="5" style="visibility: inherit;" fill="rgb(0, 0, 0)" stroke="rgb(204, 204, 204)" stroke-width="1px"></line><line x1="642.2916666666666" y1="0" x2="642.2916666666666" y2="5" style="visibility: inherit;" fill="rgb(0, 0, 0)" stroke="rgb(204, 204, 204)" stroke-width="1px"></line><line x1="722.578125" y1="0" x2="722.578125" y2="5" style="visibility: inherit;" fill="rgb(0, 0, 0)" stroke="rgb(204, 204, 204)" stroke-width="1px"></line><line x1="802.8645833333334" y1="0" x2="802.8645833333334" y2="5" style="visibility: inherit;" fill="rgb(0, 0, 0)" stroke="rgb(204, 204, 204)" stroke-width="1px"></line><line x1="883.1510416666666" y1="0" x2="883.1510416666666" y2="5" style="visibility: inherit;" fill="rgb(0, 0, 0)" stroke="rgb(204, 204, 204)" stroke-width="1px"></line><line x1="963.4375" y1="0" x2="963.4375" y2="5" style="visibility: inherit;" fill="rgb(0, 0, 0)" stroke="rgb(204, 204, 204)" stroke-width="1px"></line></g><g transform="translate(0, 8)"><text x="0" y="0" dx="0em" dy="0.95em" style="text-anchor: middle; visibility: hidden; font-family: Roboto, sans-serif; font-size: 12px; font-weight: 200;" fill="rgb(33, 33, 33)" stroke="none" stroke-width="1px">-10</text><text x="80.28645833333333" y="0" dx="0em" dy="0.95em" style="text-anchor: middle; visibility: inherit; font-family: Roboto, sans-serif; font-size: 12px; font-weight: 200;" fill="rgb(33, 33, 33)" stroke="none" stroke-width="1px">0</text><text x="160.57291666666666" y="0" dx="0em" dy="0.95em" style="text-anchor: middle; visibility: inherit; font-family: Roboto, sans-serif; font-size: 12px; font-weight: 200;" fill="rgb(33, 33, 33)" stroke="none" stroke-width="1px">10</text><text x="240.859375" y="0" dx="0em" dy="0.95em" style="text-anchor: middle; visibility: inherit; font-family: Roboto, sans-serif; font-size: 12px; font-weight: 200;" fill="rgb(33, 33, 33)" stroke="none" stroke-width="1px">20</text><text x="321.1458333333333" y="0" dx="0em" dy="0.95em" style="text-anchor: middle; visibility: inherit; font-family: Roboto, sans-serif; font-size: 12px; font-weight: 200;" fill="rgb(33, 33, 33)" stroke="none" stroke-width="1px">30</text><text x="401.4322916666667" y="0" dx="0em" dy="0.95em" style="text-anchor: middle; visibility: inherit; font-family: Roboto, sans-serif; font-size: 12px; font-weight: 200;" fill="rgb(33, 33, 33)" stroke="none" stroke-width="1px">40</text><text x="481.71875" y="0" dx="0em" dy="0.95em" style="text-anchor: middle; visibility: inherit; font-family: Roboto, sans-serif; font-size: 12px; font-weight: 200;" fill="rgb(33, 33, 33)" stroke="none" stroke-width="1px">50</text><text x="562.0052083333334" y="0" dx="0em" dy="0.95em" style="text-anchor: middle; visibility: inherit; font-family: Roboto, sans-serif; font-size: 12px; font-weight: 200;" fill="rgb(33, 33, 33)" stroke="none" stroke-width="1px">60</text><text x="642.2916666666666" y="0" dx="0em" dy="0.95em" style="text-anchor: middle; visibility: inherit; font-family: Roboto, sans-serif; font-size: 12px; font-weight: 200;" fill="rgb(33, 33, 33)" stroke="none" stroke-width="1px">70</text><text x="722.578125" y="0" dx="0em" dy="0.95em" style="text-anchor: middle; visibility: inherit; font-family: Roboto, sans-serif; font-size: 12px; font-weight: 200;" fill="rgb(33, 33, 33)" stroke="none" stroke-width="1px">80</text><text x="802.8645833333334" y="0" dx="0em" dy="0.95em" style="text-anchor: middle; visibility: inherit; font-family: Roboto, sans-serif; font-size: 12px; font-weight: 200;" fill="rgb(33, 33, 33)" stroke="none" stroke-width="1px">90</text><text x="883.1510416666666" y="0" dx="0em" dy="0.95em" style="text-anchor: middle; visibility: inherit; font-family: Roboto, sans-serif; font-size: 12px; font-weight: 200;" fill="rgb(33, 33, 33)" stroke="none" stroke-width="1px">100</text><text x="963.4375" y="0" dx="0em" dy="0.95em" style="text-anchor: middle; visibility: hidden; font-family: Roboto, sans-serif; font-size: 12px; font-weight: 200;" fill="rgb(33, 33, 33)" stroke="none" stroke-width="1px">110</text></g><line x1="0" y1="0" x2="963.4375" y2="0" fill="rgb(0, 0, 0)" stroke="rgb(204, 204, 204)" stroke-width="1px"></line></g></g></g></g></svg>