<svg viewBox="0 0 1015 400" xmlns="http://www.w3.org/2000/svg"><g><g><g><g><g><line x1="51.5625" y1="377" x2="46.5625" y2="377" style="visibility: inherit;" fill="rgb(0, 0, 0)" stroke="rgb(204, 204, 204)" stroke-width="1px"></line><line x1="51.5625" y1="345.5833333333333" x2="46.5625" y2="345.5833333333333" style="visibility: inherit;" fill="rgb(0, 0, 0)" stroke="rgb(204, 204, 204)" stroke-width="1px"></line><line x1="51.5625" y1="314.1666666666666" x2="46.5625" y2="314.1666666666666" style="visibility: inherit;" fill="rgb(0, 0, 0)" stroke="rgb(204, 204, 204)" stroke-width="1px"></line><line x1="51.5625" y1="282.75000000000006" x2="46.5625" y2="282.75000000000006" style="visibility: inherit;" fill="rgb(0, 0, 0)" stroke="rgb(204, 204, 204)" stroke-width="1px"></line><line x1="51.5625" y1="251.33333333333337" x2="46.5625" y2="251.33333333333337" style="visibility: inherit;" fill="rgb(0, 0, 0)" stroke="rgb(204, 204, 204)" stroke-width="1px"></line><line x1="51.5625" y1="219.9166666666667" x2="46.5625" y2="219.9166666666667" style="visibility: inherit;" fill="rgb(0, 0, 0)" stroke="rgb(204, 204, 204)" stroke-width="1px"></line><line x1="51.5625" y1="188.5" x2="46.5625" y2="188.5" style="visibility: inherit;" fill="rgb(0, 0, 0)" stroke="rgb(204, 204, 204)" stroke-width="1px"></line><line x1="51.5625" y1="157.08333333333331" x2="46.5625" y2="157.08333333333331" style="visibility: inherit;" fill="rgb(0, 0, 0)" stroke="rgb(204, 204, 204)" stroke-width="1px"></line><line x1="51.5625" y1="125.6666666666666" x2="46.5625" y2="125.6666666666666" style="visibility: inherit;" fill="rgb(0, 0, 0)" stroke="rgb(204, 204, 204)" stroke-width="1px"></line><line x1="51.5625" y1="94.25000000000009" x2="46.5625" y2="94.25000000000009" style="visibility: inherit;" fill="rgb(0, 0, 0)" stroke="rgb(204, 204, 204)" stroke-width="1px"></line><line x1="51.5625" y1="62.8333333333334" x2="46.5625" y2="62.8333333333334" style="visibility: inherit;" fill="rgb(0, 0, 0)" stroke="rgb(204, 204, 204)" stroke-width="1px"></line><line x1="51.5625" y1="31.416666666666682" x2="46.5625" y2="31.416666666666682" style="visibility: inherit;" fill="rgb(0, 0, 0)" stroke="rgb(204, 204, 204)" stroke-width="1px"></line><line x1="51.5625" y1="0" x2="46.5625" y2="0" style="visibility: inherit;" fill="rgb(0, 0, 0)" stroke="rgb(204, 204, 204)" stroke-width="1px"></line></g><g transform="translate(41.5625, 0)"><text x="0" y="377" dx="0em" dy="0.3em" style="text-anchor: end; visibility: hidden; font-family: Roboto, sans-serif; font-size: 12px; font-weight: 200;" fill="rgb(33, 33, 33)" stroke="none" stroke-width="1px">0.32</text><text x="0" y="345.5833333333333" dx="0em" dy="0.3em" style="text-anchor: end; visibility: inherit; font-family: Roboto, sans-serif; font-size: 12px; font-weight: 200;" fill="rgb(33, 33, 33)" stroke="none" stroke-width="1px">0.33</text><text x="0" y="314.1666666666666" dx="0em" dy="0.3em" style="text-anchor: end; visibility: inherit; font-family: Roboto, sans-serif; font-size: 12px; font-weight: 200;" fill="rgb(33, 33, 33)" stroke="none" stroke-width="1px">0.34</text><text x="0" y="282.75000000000006" dx="0em" dy="0.3em" style="text-anchor: end; visibility: inherit; font-family: Roboto, sans-serif; font-size: 12px; font-weight: 200;" fill="rgb(33, 33, 33)" stroke="none" stroke-width="1px">0.35</text><text x="0" y="251.33333333333337" dx="0em" dy="0.3em" style="text-anchor: end; visibility: inherit; font-family: Roboto, sans-serif; font-size: 12px; font-weight: 200;" fill="rgb(33, 33, 33)" stroke="none" stroke-width="1px">0.36</text><text x="0" y="219.9166666666667" dx="0em" dy="0.3em" style="text-anchor: end; visibility: inherit; font-family: Roboto, sans-serif; font-size: 12px; font-weight: 200;" fill="rgb(33, 33, 33)" stroke="none" stroke-width="1px">0.37</text><text x="0" y="188.5" dx="0em" dy="0.3em" style="text-anchor: end; visibility: inherit; font-family: Roboto, sans-serif; font-size: 12px; font-weight: 200;" fill="rgb(33, 33, 33)" stroke="none" stroke-width="1px">0.38</text><text x="0" y="157.08333333333331" dx="0em" dy="0.3em" style="text-anchor: end; visibility: inherit; font-family: Roboto, sans-serif; font-size: 12px; font-weight: 200;" fill="rgb(33, 33, 33)" stroke="none" stroke-width="1px">0.39</text><text x="0" y="125.6666666666666" dx="0em" dy="0.3em" style="text-anchor: end; visibility: inherit; font-family: Roboto, sans-serif; font-size: 12px; font-weight: 200;" fill="rgb(33, 33, 33)" stroke="none" stroke-width="1px">0.4</text><text x="0" y="94.25000000000009" dx="0em" dy="0.3em" style="text-anchor: end; visibility: inherit; font-family: Roboto, sans-serif; font-size: 12px; font-weight: 200;" fill="rgb(33, 33, 33)" stroke="none" stroke-width="1px">0.41</text><text x="0" y="62.8333333333334" dx="0em" dy="0.3em" style="text-anchor: end; visibility: inherit; font-family: Roboto, sans-serif; font-size: 12px; font-weight: 200;" fill="rgb(33, 33, 33)" stroke="none" stroke-width="1px">0.42</text><text x="0" y="31.416666666666682" dx="0em" dy="0.3em" style="text-anchor: end; visibility: inherit; font-family: Roboto, sans-serif; font-size: 12px; font-weight: 200;" fill="rgb(33, 33, 33)" stroke="none" stroke-width="1px">0.43</text><text x="0" y="0" dx="0em" dy="0.3em" style="text-anchor: end; visibility: hidden; font-family: Roboto, sans-serif; font-size: 12px; font-weight: 200;" fill="rgb(33, 33, 33)" stroke="none" stroke-width="1px">0.44</text></g><line x1="51.5625" y1="0" x2="51.5625" y2="377" fill="rgb(0, 0, 0)" stroke="rgb(204, 204, 204)" stroke-width="1px"></line></g></g><g transform="translate(51, 0)" clip-path="url(#clip_0)"><clipPath id="clip_0"><rect width="963" height="377"></rect></clipPath><g><g><g><line x1="0" y1="0" x2="0" y2="377" fill="rgb(0, 0, 0)" stroke="rgb(66, 66, 66)" stroke-width="1px" opacity="0.25"></line><line x1="80.28645833333333" y1="0" x2="80.28645833333333" y2="377" fill="rgb(0, 0, 0)" stroke="rgb(66, 66, 66)" stroke-width="1px" opacity="0.25"></line><line x1="160.57291666666666" y1="0" x2="160.57291666666666" y2="377" fill="rgb(0, 0, 0)" stroke="rgb(66, 66, 66)" stroke-width="1px" opacity="0.25"></line><line x1="240.859375" y1="0" x2="240.859375" y2="377" fill="rgb(0, 0, 0)" stroke="rgb(66, 66, 66)" stroke-width="1px" opacity="0.25"></line><line x1="321.1458333333333" y1="0" x2="321.1458333333333" y2="377" fill="rgb(0, 0, 0)" stroke="rgb(66, 66, 66)" stroke-width="1px" opacity="0.25"></line><line x1="401.4322916666667" y1="0" x2="401.4322916666667" y2="377" fill="rgb(0, 0, 0)" stroke="rgb(66, 66, 66)" stroke-width="1px" opacity="0.25"></line><line x1="481.71875" y1="0" x2="481.71875" y2="377" fill="rgb(0, 0, 0)" stroke="rgb(66, 66, 66)" stroke-width="1px" opacity="0.25"></line><line x1="562.0052083333334" y1="0" x2="562.0052083333334" y2="377" fill="rgb(0, 0, 0)" stroke="rgb(66, 66, 66)" stroke-width="1px" opacity="0.25"></line><line x1="642.2916666666666" y1="0" x2="642.2916666666666" y2="377" fill="rgb(0, 0, 0)" stroke="rgb(66, 66, 66)" stroke-width="1px" opacity="0.25"></line><line x1="722.578125" y1="0" x2="722.578125" y2="377" fill="rgb(0, 0, 0)" stroke="rgb(66, 66, 66)" stroke-width="1px" opacity="0.25"></line><line x1="802.8645833333334" y1="0" x2="802.8645833333334" y2="377" fill="rgb(0, 0, 0)" stroke="rgb(66, 66, 66)" stroke-width="1px" opacity="0.25"></line><line x1="883.1510416666666" y1="0" x2="883.1510416666666" y2="377" fill="rgb(0, 0, 0)" stroke="rgb(66, 66, 66)" stroke-width="1px" opacity="0.25"></line><line x1="963.4375" y1="0" x2="963.4375" y2="377" fill="rgb(0, 0, 0)" stroke="rgb(66, 66, 66)" stroke-width="1px" opacity="0.25"></line></g><g><line x1="0" y1="377" x2="963.4375" y2="377" fill="rgb(0, 0, 0)" stroke="rgb(66, 66, 66)" stroke-width="1px" opacity="0.25"></line><line x1="0" y1="345.5833333333333" x2="963.4375" y2="345.5833333333333" fill="rgb(0, 0, 0)" stroke="rgb(66, 66, 66)" stroke-width="1px" opacity="0.25"></line><line x1="0" y1="314.1666666666666" x2="963.4375" y2="314.1666666666666" fill="rgb(0, 0, 0)" stroke="rgb(66, 66, 66)" stroke-width="1px" opacity="0.25"></line><line x1="0" y1="282.75000000000006" x2="963.4375" y2="282.75000000000006" fill="rgb(0, 0, 0)" stroke="rgb(66, 66, 66)" stroke-width="1px" opacity="0.25"></line><line x1="0" y1="251.33333333333337" x2="963.4375" y2="251.33333333333337" fill="rgb(0, 0, 0)" stroke="rgb(66, 66, 66)" stroke-width="1px" opacity="0.25"></line><line x1="0" y1="219.9166666666667" x2="963.4375" y2="219.9166666666667" fill="rgb(0, 0, 0)" stroke="rgb(66, 66, 66)" stroke-width="1px" opacity="0.25"></line><line x1="0" y1="188.5" x2="963.4375" y2="188.5" fill="rgb(0, 0, 0)" stroke="rgb(66, 66, 66)" stroke-width="1px" opacity="0.25"></line><line x1="0" y1="157.08333333333331" x2="963.4375" y2="157.08333333333331" fill="rgb(0, 0, 0)" stroke="rgb(66, 66, 66)" stroke-width="1px" opacity="0.25"></line><line x1="0" y1="125.6666666666666" x2="963.4375" y2="125.6666666666666" fill="rgb(0, 0, 0)" stroke="rgb(66, 66, 66)" stroke-width="1px" opacity="0.25"></line><line x1="0" y1="94.25000000000009" x2="963.4375" y2="94.25000000000009" fill="rgb(0, 0, 0)" stroke="rgb(66, 66, 66)" stroke-width="1px" opacity="0.25"></line><line x1="0" y1="62.8333333333334" x2="963.4375" y2="62.8333333333334" fill="rgb(0, 0, 0)" stroke="rgb(66, 66, 66)" stroke-width="1px" opacity="0.25"></line><line x1="0" y1="31.416666666666682" x2="963.4375" y2="31.416666666666682" fill="rgb(0, 0, 0)" stroke="rgb(66, 66, 66)" stroke-width="1px" opacity="0.25"></line><line x1="0" y1="0" x2="963.4375" y2="0" fill="rgb(0, 0, 0)" stroke="rgb(66, 66, 66)" stroke-width="1px" opacity="0.25"></line></g></g></g><g><g><line x1="0" y1="1382.3333333333335" x2="963.4375" y2="1382.3333333333335" fill="rgb(0, 0, 0)" stroke="rgb(153, 153, 153)" stroke-width="1.5px"></line></g></g><g><g><line x1="80.28645833333333" y1="0" x2="80.28645833333333" y2="377" fill="rgb(0, 0, 0)" stroke="rgb(153, 153, 153)" stroke-width="1.5px"></line></g></g><g><g><g><g><g><path stroke="rgb(238, 51, 119)" stroke-width="2px" d="M88.31510416666666,380.8088018645843L96.34375,351.39657686174326L104.37239583333334,360.3000832151112L112.40104166666667,329.6376116280063L120.4296875,308.8696620772752L128.45833333333334,292.2077967270753L136.48697916666666,284.7312454659692L144.515625,273.7207727445028L152.54427083333331,267.8784456740122L160.57291666666666,280.16990100476687L168.6015625,269.5804783733512L176.63020833333331,257.0385159375119L184.65885416666669,249.6386344994137L192.6875,241.759111339265L200.71614583333334,289.59137254998507L208.74479166666669,265.84519122468953L216.7734375,248.04329138026708L224.80208333333334,243.21450162273712L232.83072916666666,231.36874422794673L240.859375,222.08179945710597L248.88802083333337,222.93429245637253L256.9166666666667,213.69432248837782L264.9453125,232.4715992898349L272.9739583333333,224.34980435945675L281.0026041666667,221.42703680186582L289.03125,210.38088264397038L297.05989583333337,218.55235014490577L305.08854166666663,228.96188583145127L313.1171875,214.7870485768168L321.1458333333333,220.8518654236462L329.1744791666667,204.41438178904374L337.203125,204.18856027649838L345.2317708333333,194.99000822331945L353.26041666666663,212.18586315962514L361.2890625,199.7883900888721L369.31770833333337,224.70155950832302L377.3463541666667,207.98613064707138L385.375,213.21494880025742L393.4036458333333,212.3369428823883L401.4322916666667,203.89433484058912L409.4609375,201.12320393258892L417.48958333333337,192.46247199484708L425.51822916666663,191.2812921798706L433.546875,180.13288003069383L441.5755208333333,198.9121465368593L449.6041666666667,195.6099911778042L457.6328125,187.6631473210975L465.6614583333333,189.0900575106054L473.69010416666663,176.86784793434853L481.71875,178.82704694370375L489.7473958333333,181.95282019357774L497.77604166666674,181.87803029923168L505.8046875,179.53868499939531L513.8333333333334,171.7106329056265L521.8619791666666,167.70216178412934L529.890625,165.41179331649715L537.9192708333334,175.0508849730666L545.9479166666666,172.80378382467654L553.9765625,166.75194110709464L562.0052083333334,157.72889331323697L570.0338541666666,157.36282673285103L578.0625,166.66513995015032L586.0911458333333,173.85263910899621L594.1197916666667,176.10013310319218L602.1484375,163.33780851089563L610.1770833333333,159.12206462298002L618.2057291666667,152.80678735538822L626.234375,149.01762099483304L634.2630208333334,146.85883538376513L642.2916666666666,152.67636906574884L650.3203125,142.74439096930055L658.3489583333334,149.4046280770446L666.3776041666666,154.66270150277686L674.40625,149.32813259482586L682.4348958333334,148.19235929958143L690.4635416666666,147.16675270663967L698.4921875,141.50358920336132L706.5208333333333,139.82655398671062L714.5494791666667,139.39394133463037L722.578125,155.9985229164832L730.6067708333333,165.61709179821446L738.6354166666667,163.47242864177332L746.6640625,155.30229156139922L754.6927083333334,174.49187774016514L762.7213541666666,163.52007224890025L770.75,145.69421035487903L778.7786458333334,150.25673116310114L786.8072916666666,153.22370951014972L794.8359375,161.772484048038L802.8645833333334,151.07010234822593L810.8932291666666,170.002272916415L818.921875,154.40186444078603L826.9505208333333,149.97466724607187L834.9791666666667,145.59752349551218L843.0078125,134.48178683020086L851.0364583333333,141.80845161456315L859.0651041666667,139.89471977658138L867.09375,141.8439889254594L875.1223958333334,166.18743029648596" style="fill: none;" fill="none"></path></g><g><path stroke="rgb(51, 187, 238)" stroke-width="2px" d="M104.37239583333334,380.8166787453069L112.40104166666667,360.62644616661464L120.4296875,345.52410334571687L128.45833333333334,332.41063133084924L136.48697916666666,318.4161660979928L144.515625,310.5665788364351L152.54427083333331,301.30201847104763L160.57291666666666,294.3107413785131L168.6015625,286.38642155468324L176.63020833333331,278.13241854306176L184.65885416666669,272.17204967295135L192.6875,265.4826178929199L200.71614583333334,259.3118036799924L208.74479166666669,253.7412790048262L216.7734375,251.76148312253622L224.80208333333334,246.9227687421079L232.83072916666666,240.687576919357L240.859375,236.20774664886224L248.88802083333337,230.9411859982048L256.9166666666667,227.5495042816497L264.9453125,224.8046516860665L272.9739583333333,221.24542762737778L281.0026041666667,218.2841282590889L289.03125,214.78341619130867L297.05989583333337,212.23387155899988L305.08854166666663,208.61801681786307L313.1171875,207.15836232740216L321.1458333333333,202.3131132563684L329.1744791666667,198.08763087185378L337.203125,194.32097092995485L345.2317708333333,193.94426554392984L353.26041666666663,190.58904997273896L361.2890625,187.15620596304058L369.31770833333337,183.56083477354937L377.3463541666667,180.60682959741322L385.375,177.0235674503244L393.4036458333333,174.16371537001874L401.4322916666667,171.28886482138472L409.4609375,169.2017602136764L417.48958333333337,167.16720873919198L425.51822916666663,163.64301811081938L433.546875,162.1659297132314L441.5755208333333,159.70060549067912L449.6041666666667,158.35177992510205L457.6328125,155.0797057989144L465.6614583333333,153.2323365276547L473.69010416666663,148.1544589081287L481.71875,146.13630267056135L489.7473958333333,146.02644807938088L497.77604166666674,142.09246070886962L505.8046875,140.09426256639742L513.8333333333334,138.04062360498963L521.8619791666666,135.66395723803944L529.890625,133.48461878290212L537.9192708333334,130.88766998841606L545.9479166666666,128.27194285071408L553.9765625,125.89123033092316L562.0052083333334,124.18753366831483L570.0338541666666,119.65947278636804L578.0625,116.17480385878524L586.0911458333333,113.50451412545948L594.1197916666667,108.84557935842265L602.1484375,109.25184215653968L610.1770833333333,104.97564292877333L618.2057291666667,104.4815952753786L626.234375,103.86641624226776L634.2630208333334,101.23733036908278L642.2916666666666,98.25465791936365L650.3203125,96.7547799121279L658.3489583333334,92.34897277181972L666.3776041666666,90.18355797186884L674.40625,87.69638226303682L682.4348958333334,84.14689871791937L690.4635416666666,81.20593235367889L698.4921875,78.49970733011388L706.5208333333333,76.26753386388975L714.5494791666667,73.92860952534733L722.578125,69.48295030704215L730.6067708333333,68.43810725039883L738.6354166666667,65.82649211382859L746.6640625,63.76695978420574L754.6927083333334,61.79239551491098L762.7213541666666,58.666391489505095L770.75,55.77671250359175L778.7786458333334,53.62277323001197L786.8072916666666,50.316712836386294L794.8359375,45.24732814627565L802.8645833333334,43.87169364530445L810.8932291666666,41.2499102121906L818.921875,37.590711957195346L826.9505208333333,34.13479735810291L834.9791666666667,34.78484022433781L843.0078125,29.582857412985334L851.0364583333333,27.939357469215782L859.0651041666667,26.62005075001809L867.09375,24.52462723364878L875.1223958333334,22.19532149937023" style="fill: none;" fill="none"></path></g></g></g></g><g opacity="0.2"><g><g><g><path stroke="rgb(238, 51, 119)" stroke-width="2px" d="M80.28645833333333,410.92338739832246L88.31510416666666,362.74005054434144L96.34375,323.1608408590158L104.37239583333334,370.7706066866716L112.40104166666667,289.6046887238821L120.4296875,280.14011138677597L128.45833333333334,268.38106268644333L136.48697916666666,273.83036195238435L144.515625,257.4824641545614L152.54427083333331,259.2032708624999L160.57291666666666,298.4956014057001L168.6015625,253.75397159655893L176.63020833333331,238.26652396718663L184.65885416666669,238.55330948034924L192.6875,229.94908868273103L200.71614583333334,361.3060293495655L208.74479166666669,230.23596782485646L216.7734375,221.34496151407564L224.80208333333334,235.97205260396004L232.83072916666666,213.60119088490808L240.859375,208.15189161896706L248.88802083333337,224.2130039036274L256.9166666666667,199.83454996347427L264.9453125,260.6372920572758L272.9739583333333,212.16716969013214L281.0026041666667,217.04289792974794L289.03125,193.81167967120808L297.05989583333337,230.80953885118169L305.08854166666663,244.57617977261543L313.1171875,193.52480052908265L321.1458333333333,229.94908868273103L329.1744791666667,179.75815960764885L337.203125,203.84982803463936L345.2317708333333,181.1921808024248L353.26041666666663,237.9796448250612L361.2890625,181.1921808024248L369.31770833333337,262.0713132520517L377.3463541666667,182.91298751036328L385.375,221.05817600091302L393.4036458333333,211.01993400851887L401.4322916666667,191.23042279481888L409.4609375,196.9665075739225L417.48958333333337,179.47137409448624L425.51822916666663,189.50952245791757L433.546875,163.4102618098259L441.5755208333333,227.0810462931792L449.6041666666667,190.65675813953084L457.6328125,175.74288153648376L465.6614583333333,191.23042279481888L473.69010416666663,158.53453357021016L481.71875,181.76584545771283L489.7473958333333,186.64148006836575L497.77604166666674,181.76584545771283L505.8046875,176.02966704964638L513.8333333333334,159.96855476498604L521.8619791666666,161.6894551018874L529.890625,161.97624061505002L537.9192708333334,189.50952245791757L545.9479166666666,169.43313210209215L553.9765625,157.67417703072232L562.0052083333334,144.19432162245118L570.0338541666666,156.81372686227166L578.0625,180.61860977609956L586.0911458333333,184.63388784726465L594.1197916666667,179.47137409448624L602.1484375,144.19432162245118L610.1770833333333,152.79844879110658L618.2057291666667,143.33387145400047L626.234375,143.33387145400047L634.2630208333334,143.6206569671631L642.2916666666666,161.4026695887248L650.3203125,127.84642382462822L658.3489583333334,159.3949837386608L666.3776041666666,162.54981164137524L674.40625,141.32627923289937L682.4348958333334,146.4886993567149L690.4635416666666,145.62834281722706L698.4921875,133.00884394844377L706.5208333333333,137.31100116173428L714.5494791666667,138.74502235651016L722.578125,180.90539528926217L730.6067708333333,180.04494512081146L738.6354166666667,160.25543390711152L746.6640625,143.04708594083786L754.6927083333334,203.27625700831413L762.7213541666666,147.06236401200294L770.75,118.95541751384735L778.7786458333334,157.10051237543428L786.8072916666666,157.67417703072232L794.8359375,174.5956458548705L802.8645833333334,135.0165297985077L810.8932291666666,198.4005287686984L818.921875,131.0012517273426L826.9505208333333,143.33387145400047L834.9791666666667,139.03180786967278L843.0078125,117.80818183223408L851.0364583333333,152.79844879110658L859.0651041666667,137.02412201960885L867.09375,144.7678926487764L875.1223958333334,202.7025923530261" style="fill: none;" fill="none"></path></g><g><path stroke="rgb(51, 187, 238)" stroke-width="2px" d="M88.31510416666666,414.63306053479516L96.34375,376.67690892020863L104.37239583333334,353.7149675587813L112.40104166666667,334.2660785118739L120.4296875,324.6321263809999L128.45833333333334,313.65815653403604L136.48697916666666,298.0121014416218L144.515625,298.9899623294672L152.54427083333331,287.54522605737054L160.57291666666666,283.8872361083826L168.6015625,274.5430656174819L176.63020833333331,265.778364777565L184.65885416666669,263.2431733508905L192.6875,255.45633339881897L200.71614583333334,250.05993449687958L208.74479166666669,245.38784925142926L216.7734375,248.7922919690609L224.80208333333334,239.6654343008995L232.83072916666666,231.33535910646123L240.859375,229.48824692765874L248.88802083333337,223.04151832063997L256.9166666666667,222.46204866965616L264.9453125,220.6874053080877L272.9739583333333,215.90661683678627L281.0026041666667,213.84219183524453L289.03125,209.53235704700154L297.05989583333337,208.40955852468812L305.08854166666663,203.19423803687096L313.1171875,204.9688813984394L321.1458333333333,195.04524125655496L329.1744791666667,191.7494081358115L337.203125,188.67098146677017L345.2317708333333,193.3792074918747L353.26041666666663,185.556226760149L361.2890625,182.0069400370121L369.31770833333337,178.16777804493904L377.3463541666667,176.17582186063134L385.375,171.64867424964905L393.4036458333333,169.87393725911778L401.4322916666667,166.97658900419873L409.4609375,166.07110330462456L417.48958333333337,164.11538152893388L425.51822916666663,158.3567321697871L433.546875,159.95029711723328L441.5755208333333,156.00261915723485L449.6041666666667,156.32854157686234L457.6328125,150.1715946098169L465.6614583333333,150.46128262082738L473.69010416666663,140.53764247894287L481.71875,143.10906831423443L489.7473958333333,145.8616661926111L497.77604166666674,136.19147965312004L505.8046875,137.0969653526942L513.8333333333334,134.96016516288125L521.8619791666666,132.09895768761635L529.890625,130.21561110019684L537.9192708333334,126.99224679668747L545.9479166666666,124.34835214416188L553.9765625,122.3201615512371L562.0052083333334,121.63198867440224L570.0338541666666,112.86738146344823L578.0625,110.9478004674117L586.0911458333333,109.49907952547073L594.1197916666667,101.85717720786732L602.1484375,109.86123635371528L610.1770833333333,98.56134408712387L618.2057291666667,103.74052379528683L626.234375,102.9436476926009L634.2630208333334,97.29370155930519L642.2916666666666,93.78064924478531L650.3203125,94.50496290127438L658.3489583333334,85.7402620613575L666.3776041666666,86.93543577194214L674.40625,83.96561869978905L682.4348958333334,78.82267340024315L690.4635416666666,76.79448280731839L698.4921875,74.44036979476613L706.5208333333333,72.91927366455398L714.5494791666667,70.42022301753364L722.578125,62.81446147958439L730.6067708333333,66.87084266543388L738.6354166666667,61.90906940897309L746.6640625,60.67766128977143L754.6927083333334,58.83054911096894L762.7213541666666,53.97738545139634L770.75,51.44219402472179L778.7786458333334,50.391864319642416L786.8072916666666,45.35762224594753L794.8359375,37.64325111111008L802.8645833333334,41.808241893847814L810.8932291666666,37.31723506251972L818.921875,32.10191457470261L826.9505208333333,28.95092545946442L834.9791666666667,35.75990452369057L843.0078125,21.779883195956575L851.0364583333333,25.474107553561556L859.0651041666667,24.64109067122143L867.09375,21.381491959095L875.1223958333334,18.701362897952425" style="fill: none;" fill="none"></path></g></g></g></g></g></g><g transform="translate(51, 377)" clip-path="url(#clip_1)"><clipPath id="clip_1"><rect width="963" height="23"></rect></clipPath><g><g><line x1="0" y1="0" x2="0" y2="5" style="visibility: inherit;" fill="rgb(0, 0, 0)" stroke="rgb(204, 204, 204)" stroke-width="1px"></line><line x1="80.28645833333333" y1="0" x2="80.28645833333333" y2="5" style="visibility: inherit;" fill="rgb(0, 0, 0)" stroke="rgb(204, 204, 204)" stroke-width="1px"></line><line x1="160.57291666666666" y1="0" x2="160.57291666666666" y2="5" style="visibility: inherit;" fill="rgb(0, 0, 0)" stroke="rgb(204, 204, 204)" stroke-width="1px"></line><line x1="240.859375" y1="0" x2="240.859375" y2="5" style="visibility: inherit;" fill="rgb(0, 0, 0)" stroke="rgb(204, 204, 204)" stroke-width="1px"></line><line x1="321.1458333333333" y1="0" x2="321.1458333333333" y2="5" style="visibility: inherit;" fill="rgb(0, 0, 0)" stroke="rgb(204, 204, 204)" stroke-width="1px"></line><line x1="401.4322916666667" y1="0" x2="401.4322916666667" y2="5" style="visibility: inherit;" fill="rgb(0, 0, 0)" stroke="rgb(204, 204, 204)" stroke-width="1px"></line><line x1="481.71875" y1="0" x2="481.71875" y2="5" style="visibility: inherit;" fill="rgb(0, 0, 0)" stroke="rgb(204, 204, 204)" stroke-width="1px"></line><line x1="562.0052083333334" y1="0" x2="562.0052083333334" y2="5" style="visibility: inherit;" fill="rgb(0, 0, 0)" stroke="rgb(204, 204, 204)" stroke-width="1px"></line><line x1="642.2916666666666" y1="0" x2="642.2916666666666" y2="5" style="visibility: inherit;" fill="rgb(0, 0, 0)" stroke="rgb(204, 204, 204)" stroke-width="1px"></line><line x1="722.578125" y1="0" x2="722.578125" y2="5" style="visibility: inherit;" fill="rgb(0, 0, 0)" stroke="rgb(204, 204, 204)" stroke-width="1px"></line><line x1="802.8645833333334" y1="0" x2="802.8645833333334" y2="5" style="visibility: inherit;" fill="rgb(0, 0, 0)" stroke="rgb(204, 204, 204)" stroke-width="1px"></line><line x1="883.1510416666666" y1="0" x2="883.1510416666666" y2="5" style="visibility: inherit;" fill="rgb(0, 0, 0)" stroke="rgb(204, 204, 204)" stroke-width="1px"></line><line x1="963.4375" y1="0" x2="963.4375" y2="5" style="visibility: inherit;" fill="rgb(0, 0, 0)" stroke="rgb(204, 204, 204)" stroke-width="1px"></line></g><g transform="translate(0, 8)"><text x="0" y="0" dx="0em" dy="0.95em" style="text-anchor: middle; visibility: hidden; font-family: Roboto, sans-serif; font-size: 12px; font-weight: 200;" fill="rgb(33, 33, 33)" stroke="none" stroke-width="1px">-10</text><text x="80.28645833333333" y="0" dx="0em" dy="0.95em" style="text-anchor: middle; visibility: inherit; font-family: Roboto, sans-serif; font-size: 12px; font-weight: 200;" fill="rgb(33, 33, 33)" stroke="none" stroke-width="1px">0</text><text x="160.57291666666666" y="0" dx="0em" dy="0.95em" style="text-anchor: middle; visibility: inherit; font-family: Roboto, sans-serif; font-size: 12px; font-weight: 200;" fill="rgb(33, 33, 33)" stroke="none" stroke-width="1px">10</text><text x="240.859375" y="0" dx="0em" dy="0.95em" style="text-anchor: middle; visibility: inherit; font-family: Roboto, sans-serif; font-size: 12px; font-weight: 200;" fill="rgb(33, 33, 33)" stroke="none" stroke-width="1px">20</text><text x="321.1458333333333" y="0" dx="0em" dy="0.95em" style="text-anchor: middle; visibility: inherit; font-family: Roboto, sans-serif; font-size: 12px; font-weight: 200;" fill="rgb(33, 33, 33)" stroke="none" stroke-width="1px">30</text><text x="401.4322916666667" y="0" dx="0em" dy="0.95em" style="text-anchor: middle; visibility: inherit; font-family: Roboto, sans-serif; font-size: 12px; font-weight: 200;" fill="rgb(33, 33, 33)" stroke="none" stroke-width="1px">40</text><text x="481.71875" y="0" dx="0em" dy="0.95em" style="text-anchor: middle; visibility: inherit; font-family: Roboto, sans-serif; font-size: 12px; font-weight: 200;" fill="rgb(33, 33, 33)" stroke="none" stroke-width="1px">50</text><text x="562.0052083333334" y="0" dx="0em" dy="0.95em" style="text-anchor: middle; visibility: inherit; font-family: Roboto, sans-serif; font-size: 12px; font-weight: 200;" fill="rgb(33, 33, 33)" stroke="none" stroke-width="1px">60</text><text x="642.2916666666666" y="0" dx="0em" dy="0.95em" style="text-anchor: middle; visibility: inherit; font-family: Roboto, sans-serif; font-size: 12px; font-weight: 200;" fill="rgb(33, 33, 33)" stroke="none" stroke-width="1px">70</text><text x="722.578125" y="0" dx="0em" dy="0.95em" style="text-anchor: middle; visibility: inherit; font-family: Roboto, sans-serif; font-size: 12px; font-weight: 200;" fill="rgb(33, 33, 33)" stroke="none" stroke-width="1px">80</text><text x="802.8645833333334" y="0" dx="0em" dy="0.95em" style="text-anchor: middle; visibility: inherit; font-family: Roboto, sans-serif; font-size: 12px; font-weight: 200;" fill="rgb(33, 33, 33)" stroke="none" stroke-width="1px">90</text><text x="883.1510416666666" y="0" dx="0em" dy="0.95em" style="text-anchor: middle; visibility: inherit; font-family: Roboto, sans-serif; font-size: 12px; font-weight: 200;" fill="rgb(33, 33, 33)" stroke="none" stroke-width="1px">100</text><text x="963.4375" y="0" dx="0em" dy="0.95em" style="text-anchor: middle; visibility: hidden; font-family: Roboto, sans-serif; font-size: 12px; font-weight: 200;" fill="rgb(33, 33, 33)" stroke="none" stroke-width="1px">110</text></g><line x1="0" y1="0" x2="963.4375" y2="0" fill="rgb(0, 0, 0)" stroke="rgb(204, 204, 204)" stroke-width="1px"></line></g></g></g></g></svg>