<svg viewBox="0 0 1015 400" xmlns="http://www.w3.org/2000/svg"><g><g><g><g><g><line x1="51.5625" y1="364.58706794688" x2="46.5625" y2="364.58706794688" style="visibility: inherit;" fill="rgb(0, 0, 0)" stroke="rgb(204, 204, 204)" stroke-width="1px"></line><line x1="51.5625" y1="327.2363054209831" x2="46.5625" y2="327.2363054209831" style="visibility: inherit;" fill="rgb(0, 0, 0)" stroke="rgb(204, 204, 204)" stroke-width="1px"></line><line x1="51.5625" y1="289.8855428950863" x2="46.5625" y2="289.8855428950863" style="visibility: inherit;" fill="rgb(0, 0, 0)" stroke="rgb(204, 204, 204)" stroke-width="1px"></line><line x1="51.5625" y1="252.53478036918952" x2="46.5625" y2="252.53478036918952" style="visibility: inherit;" fill="rgb(0, 0, 0)" stroke="rgb(204, 204, 204)" stroke-width="1px"></line><line x1="51.5625" y1="215.1840178432927" x2="46.5625" y2="215.1840178432927" style="visibility: inherit;" fill="rgb(0, 0, 0)" stroke="rgb(204, 204, 204)" stroke-width="1px"></line><line x1="51.5625" y1="177.83325531739604" x2="46.5625" y2="177.83325531739604" style="visibility: inherit;" fill="rgb(0, 0, 0)" stroke="rgb(204, 204, 204)" stroke-width="1px"></line><line x1="51.5625" y1="140.48249279149925" x2="46.5625" y2="140.48249279149925" style="visibility: inherit;" fill="rgb(0, 0, 0)" stroke="rgb(204, 204, 204)" stroke-width="1px"></line><line x1="51.5625" y1="103.13173026560244" x2="46.5625" y2="103.13173026560244" style="visibility: inherit;" fill="rgb(0, 0, 0)" stroke="rgb(204, 204, 204)" stroke-width="1px"></line><line x1="51.5625" y1="65.78096773970562" x2="46.5625" y2="65.78096773970562" style="visibility: inherit;" fill="rgb(0, 0, 0)" stroke="rgb(204, 204, 204)" stroke-width="1px"></line><line x1="51.5625" y1="28.430205213808787" x2="46.5625" y2="28.430205213808787" style="visibility: inherit;" fill="rgb(0, 0, 0)" stroke="rgb(204, 204, 204)" stroke-width="1px"></line></g><g transform="translate(41.5625, 0)"><text x="0" y="364.58706794688" dx="0em" dy="0.3em" style="text-anchor: end; visibility: inherit; font-family: Roboto, sans-serif; font-size: 12px; font-weight: 200;" fill="rgb(33, 33, 33)" stroke="none" stroke-width="1px">1.4</text><text x="0" y="327.2363054209831" dx="0em" dy="0.3em" style="text-anchor: end; visibility: inherit; font-family: Roboto, sans-serif; font-size: 12px; font-weight: 200;" fill="rgb(33, 33, 33)" stroke="none" stroke-width="1px">1.45</text><text x="0" y="289.8855428950863" dx="0em" dy="0.3em" style="text-anchor: end; visibility: inherit; font-family: Roboto, sans-serif; font-size: 12px; font-weight: 200;" fill="rgb(33, 33, 33)" stroke="none" stroke-width="1px">1.5</text><text x="0" y="252.53478036918952" dx="0em" dy="0.3em" style="text-anchor: end; visibility: inherit; font-family: Roboto, sans-serif; font-size: 12px; font-weight: 200;" fill="rgb(33, 33, 33)" stroke="none" stroke-width="1px">1.55</text><text x="0" y="215.1840178432927" dx="0em" dy="0.3em" style="text-anchor: end; visibility: inherit; font-family: Roboto, sans-serif; font-size: 12px; font-weight: 200;" fill="rgb(33, 33, 33)" stroke="none" stroke-width="1px">1.6</text><text x="0" y="177.83325531739604" dx="0em" dy="0.3em" style="text-anchor: end; visibility: inherit; font-family: Roboto, sans-serif; font-size: 12px; font-weight: 200;" fill="rgb(33, 33, 33)" stroke="none" stroke-width="1px">1.65</text><text x="0" y="140.48249279149925" dx="0em" dy="0.3em" style="text-anchor: end; visibility: inherit; font-family: Roboto, sans-serif; font-size: 12px; font-weight: 200;" fill="rgb(33, 33, 33)" stroke="none" stroke-width="1px">1.7</text><text x="0" y="103.13173026560244" dx="0em" dy="0.3em" style="text-anchor: end; visibility: inherit; font-family: Roboto, sans-serif; font-size: 12px; font-weight: 200;" fill="rgb(33, 33, 33)" stroke="none" stroke-width="1px">1.75</text><text x="0" y="65.78096773970562" dx="0em" dy="0.3em" style="text-anchor: end; visibility: inherit; font-family: Roboto, sans-serif; font-size: 12px; font-weight: 200;" fill="rgb(33, 33, 33)" stroke="none" stroke-width="1px">1.8</text><text x="0" y="28.430205213808787" dx="0em" dy="0.3em" style="text-anchor: end; visibility: inherit; font-family: Roboto, sans-serif; font-size: 12px; font-weight: 200;" fill="rgb(33, 33, 33)" stroke="none" stroke-width="1px">1.85</text></g><line x1="51.5625" y1="0" x2="51.5625" y2="377" fill="rgb(0, 0, 0)" stroke="rgb(204, 204, 204)" stroke-width="1px"></line></g></g><g transform="translate(51, 0)" clip-path="url(#clip_0)"><clipPath id="clip_0"><rect width="963" height="377"></rect></clipPath><g><g><g><line x1="98.61803196671441" y1="0" x2="98.61803196671441" y2="377" fill="rgb(0, 0, 0)" stroke="rgb(66, 66, 66)" stroke-width="1px" opacity="0.25"></line><line x1="209.97783607692355" y1="0" x2="209.97783607692355" y2="377" fill="rgb(0, 0, 0)" stroke="rgb(66, 66, 66)" stroke-width="1px" opacity="0.25"></line><line x1="321.33764018713265" y1="0" x2="321.33764018713265" y2="377" fill="rgb(0, 0, 0)" stroke="rgb(66, 66, 66)" stroke-width="1px" opacity="0.25"></line><line x1="432.6974442973418" y1="0" x2="432.6974442973418" y2="377" fill="rgb(0, 0, 0)" stroke="rgb(66, 66, 66)" stroke-width="1px" opacity="0.25"></line><line x1="544.0572484075509" y1="0" x2="544.0572484075509" y2="377" fill="rgb(0, 0, 0)" stroke="rgb(66, 66, 66)" stroke-width="1px" opacity="0.25"></line><line x1="655.41705251776" y1="0" x2="655.41705251776" y2="377" fill="rgb(0, 0, 0)" stroke="rgb(66, 66, 66)" stroke-width="1px" opacity="0.25"></line><line x1="766.776856627969" y1="0" x2="766.776856627969" y2="377" fill="rgb(0, 0, 0)" stroke="rgb(66, 66, 66)" stroke-width="1px" opacity="0.25"></line><line x1="878.1366607381782" y1="0" x2="878.1366607381782" y2="377" fill="rgb(0, 0, 0)" stroke="rgb(66, 66, 66)" stroke-width="1px" opacity="0.25"></line></g><g><line x1="0" y1="364.58706794688" x2="963.4375" y2="364.58706794688" fill="rgb(0, 0, 0)" stroke="rgb(66, 66, 66)" stroke-width="1px" opacity="0.25"></line><line x1="0" y1="327.2363054209831" x2="963.4375" y2="327.2363054209831" fill="rgb(0, 0, 0)" stroke="rgb(66, 66, 66)" stroke-width="1px" opacity="0.25"></line><line x1="0" y1="289.8855428950863" x2="963.4375" y2="289.8855428950863" fill="rgb(0, 0, 0)" stroke="rgb(66, 66, 66)" stroke-width="1px" opacity="0.25"></line><line x1="0" y1="252.53478036918952" x2="963.4375" y2="252.53478036918952" fill="rgb(0, 0, 0)" stroke="rgb(66, 66, 66)" stroke-width="1px" opacity="0.25"></line><line x1="0" y1="215.1840178432927" x2="963.4375" y2="215.1840178432927" fill="rgb(0, 0, 0)" stroke="rgb(66, 66, 66)" stroke-width="1px" opacity="0.25"></line><line x1="0" y1="177.83325531739604" x2="963.4375" y2="177.83325531739604" fill="rgb(0, 0, 0)" stroke="rgb(66, 66, 66)" stroke-width="1px" opacity="0.25"></line><line x1="0" y1="140.48249279149925" x2="963.4375" y2="140.48249279149925" fill="rgb(0, 0, 0)" stroke="rgb(66, 66, 66)" stroke-width="1px" opacity="0.25"></line><line x1="0" y1="103.13173026560244" x2="963.4375" y2="103.13173026560244" fill="rgb(0, 0, 0)" stroke="rgb(66, 66, 66)" stroke-width="1px" opacity="0.25"></line><line x1="0" y1="65.78096773970562" x2="963.4375" y2="65.78096773970562" fill="rgb(0, 0, 0)" stroke="rgb(66, 66, 66)" stroke-width="1px" opacity="0.25"></line><line x1="0" y1="28.430205213808787" x2="963.4375" y2="28.430205213808787" fill="rgb(0, 0, 0)" stroke="rgb(66, 66, 66)" stroke-width="1px" opacity="0.25"></line></g></g></g><g><g><line x1="0" y1="1410.4084186719897" x2="963.4375" y2="1410.4084186719897" fill="rgb(0, 0, 0)" stroke="rgb(153, 153, 153)" stroke-width="1.5px"></line></g></g><g><g><line x1="98.61803196671441" y1="0" x2="98.61803196671441" y2="377" fill="rgb(0, 0, 0)" stroke="rgb(153, 153, 153)" stroke-width="1.5px"></line></g></g><g><g><g><g><g><path stroke="rgb(238, 51, 119)" stroke-width="2px" d="M98.61803196671441,51.008395927186875L104.18602217222488,78.77855407473238L109.75401237773534,98.18766271617233L115.32200258324579,101.86247200705964L120.88999278875626,117.3254598780924L126.4579829942667,131.04815850201228L132.02597319977716,142.75986458539685L137.5939634052876,148.58536901890105L143.16195361079807,156.34272396409114L148.72994381630852,161.662575278776L154.29793402181897,156.50632408292782L159.86592422732943,162.6886396007803L165.43391443283988,170.48922481310336L171.00190463835034,175.37244913194237L176.56989484386082,180.86816530928397L182.13788504937125,162.02075172097508L187.7058752548817,173.99598161325358L193.2738654603922,181.19396489288803L198.8418556659026,185.04466866344387L204.40984587141307,191.43085437659386L209.97783607692355,195.86345362396148L215.545826282434,196.08380763662024L221.11381648794443,199.57430633295505L226.68180669345492,194.0563164312212L232.24979689896537,199.76587717583155L237.8177871044758,203.3388228581895L243.38577730998625,206.45182015496414L248.95376751549674,200.10182817011616L254.5217577210072,201.46271750024886L260.08974792651765,206.8516368904013L265.6577381320281,206.1678049352194L271.22572833753856,213.05685166248236L276.793718543049,217.5314521580744L282.36170874855947,220.94782102753794L287.9296989540699,213.91549269994997L293.4976891595804,219.03738417534643L299.06567936509083,203.50776777259105L304.6336695706013,213.84244862624035L310.20165977611174,214.0366496793599L315.7696499816222,219.44348585031366L321.33764018713265,225.385232068679L326.9056303926431,220.64665119972062L332.47362059815356,226.30211768920992L338.04161080366407,224.58140334013456L343.60960100917447,230.32017538927172L349.1775912146849,223.57506009082778L354.74558142019544,227.81840431352947L360.31357162570583,229.62261470674122L365.8815618312163,228.6672586385481L371.4495520367268,235.11825780349935L377.0175422422372,229.99002413466863L382.58553244774765,234.17805544807993L388.1535226532581,236.94003937423855L393.72151285876856,238.28067067596814L399.289503064279,241.92225494897892L404.8574932697895,242.14159712797925L410.4254834752999,244.54051614110884L415.99347368081044,244.0870673903888L421.56146388632084,244.41441928996016L427.1294540918313,247.86988906402684L432.6974442973418,249.76236145868904L438.2654345028522,247.65591970382684L443.83342470836266,248.0697428339379L449.40141491387317,246.67978038142772L454.96940511938357,248.08650812984993L460.537395324894,251.51648352544353L466.10538553040453,251.33105638768993L471.67337573591493,246.99667364180775L477.2413659414254,248.53606791751793L482.80935614693584,253.40823279753033L488.37734635244635,253.49518112467553L493.94533655795675,255.27946637133172L499.5133267634672,253.00976422954625L505.0813169689777,253.1494879383684L510.6493071744882,256.7950834918719L516.2172973799985,256.60491740597337L521.7852875855091,257.7346486991076L527.3532777910195,258.93386419073533L532.92126799653,260.2914628379825L538.4892582020404,255.5638342007424L544.0572484075509,248.33625131343058L549.6252386130614,245.44642668250412L555.1932288185718,242.42011464785327L560.7612190240823,248.09566698358648L566.3292092295927,244.99484959192017L571.8971994351032,251.65940454735735L577.4651896406136,257.3895057412672L583.0331798461241,254.11478335911306L588.6011700516345,253.09346475162266L594.169160257145,254.9566519646375L599.7371504626554,258.7492692325816L605.3051406681659,255.39399243555374L610.8731308736764,254.4430998025116L616.4411210791868,252.82347034879197L622.0091112846973,257.33503549740624L627.5771014902077,261.8798479913507L633.1450916957182,261.52015113484816L638.7130819012286,259.61289533923156L644.2810721067391,261.53574868290247L649.8490623122495,246.18261758821072" style="fill: none;" fill="none"></path></g><g><path stroke="rgb(51, 187, 238)" stroke-width="2px" d="M98.61803196671441,31.153906100689213L104.18602217222488,56.07832320283557L109.75401237773534,77.52957706358963L115.32200258324579,95.4679991273389L120.88999278875626,110.23767859888271L126.4579829942667,121.84193898900106L132.02597319977716,131.83743333626126L137.5939634052876,140.74346703497307L143.16195361079807,148.2516621462992L148.72994381630852,154.89804664202524L154.29793402181897,161.1181865984584L159.86592422732943,166.38331218760095L165.43391443283988,171.00281318766235L171.00190463835034,175.69252584981524L176.56989484386082,179.9504793882244L182.13788504937125,183.65162873098433L187.7058752548817,187.299096683992L193.2738654603922,190.66719433890336L198.8418556659026,194.11940077489123L204.40984587141307,197.59878962501068L209.97783607692355,200.781053598712L215.545826282434,203.51431507720082L221.11381648794443,206.2852431896433L226.68180669345492,208.9604449907062L232.24979689896537,211.94400255160247L237.8177871044758,214.4890730383338L243.38577730998625,216.89187814952493L248.95376751549674,219.15774641947147L254.5217577210072,221.53822057527233L260.08974792651765,224.27309899659855L265.6577381320281,226.7680263742085L271.22572833753856,228.92043477931435L276.793718543049,231.16180626323228L282.36170874855947,233.407541859047L287.9296989540699,235.72118824864765L293.4976891595804,237.58394748931983L299.06567936509083,240.00470642446174L304.6336695706013,242.18061338053286L310.20165977611174,244.4717045192474L315.7696499816222,246.55905342224779L321.33764018713265,248.96912780806275L326.9056303926431,251.16476946034567L332.47362059815356,252.99758254962802L338.04161080366407,255.18761277300237L343.60960100917447,257.117544331183L349.1775912146849,258.9031714431002L354.74558142019544,260.48527390753304L360.31357162570583,262.7161240215509L365.8815618312163,264.4764516118239L371.4495520367268,266.5996591327237L377.0175422422372,268.657091347626L382.58553244774765,270.3874587613226L388.1535226532581,272.1919109873922L393.72151285876856,273.84205191779733L399.289503064279,275.4241129492928L404.8574932697895,277.57443595736004L410.4254834752999,279.6067821071205L415.99347368081044,281.326016132658L421.56146388632084,283.17714777928666L427.1294540918313,284.5916693159639L432.6974442973418,286.5004115939808L438.2654345028522,288.3491254829812L443.83342470836266,289.8592265060734L449.40141491387317,291.8580516813618L454.96940511938357,293.7695423221403L460.537395324894,295.1635358578771L466.10538553040453,296.8839250075836L471.67337573591493,298.6760498328614L477.2413659414254,300.39541393853204L482.80935614693584,302.03037180285867L488.37734635244635,303.8308308913724L493.94533655795675,305.61386245741215L499.5133267634672,307.5738011449223L505.0813169689777,309.1257383435401L510.6493071744882,310.68025876379556L516.2172973799985,312.3503145983749L521.7852875855091,314.5303168078583L527.3532777910195,315.48453569583563L532.92126799653,317.3918013946648L538.4892582020404,319.06366424933196L544.0572484075509,320.78403560347186L549.6252386130614,322.51659233740895L555.1932288185718,324.13413962955997L560.7612190240823,325.92575529559986L566.3292092295927,327.6463812060959L571.8971994351032,329.45389364597696L577.4651896406136,330.90365333667836L583.0331798461241,332.6113736798833L588.6011700516345,334.5788795392757L594.169160257145,336.67044763499393L599.7371504626554,338.19599714922145L605.3051406681659,339.7894336103497L610.8731308736764,341.6958494377091L616.4411210791868,343.3386347582332L622.0091112846973,345.0723356718495L627.5771014902077,346.6625005470278L633.1450916957182,348.24782969552484L638.7130819012286,349.86865626703985L644.2810721067391,351.7190897595169L649.8490623122495,353.4865473958612" style="fill: none;" fill="none"></path></g></g></g></g><g opacity="0.2"><g><g><g><path stroke="rgb(238, 51, 119)" stroke-width="2px" d="M98.61803196671441,51.008395927186875L104.18602217222488,95.44064896325972L109.75401237773534,116.82040701195479L115.32200258324579,106.18404773314327L120.88999278875626,137.51393684251275L126.4579829942667,150.0315908703985L132.02597319977716,159.50779167193372L137.5939634052876,157.0790104077924L143.16195361079807,167.78331571962218L148.72994381630852,169.56193448433197L154.29793402181897,148.8187141080019L159.86592422732943,171.92846898952214L165.43391443283988,182.16463236743718L171.00190463835034,182.68771886540472L176.56989484386082,189.105279567231L182.13788504937125,133.76292399481304L187.7058752548817,191.95375893571708L193.2738654603922,191.98911224516428L198.8418556659026,190.8201377033155L204.40984587141307,201.00954922364923L209.97783607692355,202.5121094007357L215.545826282434,196.414331404766L221.11381648794443,204.8099854636492L226.68180669345492,185.7793969444712L232.24979689896537,208.33017771163293L237.8177871044758,208.69822614474492L243.38577730998625,211.1213081348192L248.95376751549674,190.5768499415778L254.5217577210072,203.50405024187637L260.08974792651765,214.93501299725656L265.6577381320281,205.14205722921287L271.22572833753856,223.39042038268667L276.793718543049,224.2433523672854L282.36170874855947,226.07237408702574L287.9296989540699,203.36700051079498L293.4976891595804,226.72022125636752L299.06567936509083,180.21334340872687L304.6336695706013,229.34446981077764L310.20165977611174,214.32795125795718L315.7696499816222,227.55374008867534L321.33764018713265,234.29785138431282L326.9056303926431,213.53877990198367L332.47362059815356,234.78531741936123L338.04161080366407,222.00033181726732L343.60960100917447,238.928333461486L349.1775912146849,213.45738714421347L354.74558142019544,234.1834206471851L360.31357162570583,232.32893029645754L365.8815618312163,227.23422453629072L371.4495520367268,244.79475655079594L377.0175422422372,222.2976736314848L382.58553244774765,240.46010241816617L388.1535226532581,241.0830152634646L393.72151285876856,240.29161762855867L399.289503064279,247.3846313584891L404.8574932697895,242.47061039647957L410.4254834752999,248.1388946608018L415.99347368081044,243.40689426430907L421.56146388632084,244.90544713931715L427.1294540918313,253.0530937251259L432.6974442973418,252.60107005068204L438.2654345028522,244.49625707153356L443.83342470836266,248.6904775291046L449.40141491387317,244.59483670266226L454.96940511938357,250.19659975248302L460.537395324894,256.6614466188345L466.10538553040453,251.05291568105906L471.67337573591493,240.49509952298425L477.2413659414254,250.8451593310832L482.80935614693584,260.716480117549L488.37734635244635,253.62560361539374L493.94533655795675,257.9558942413159L499.5133267634672,249.60521101686808L505.0813169689777,253.35907350160133L510.6493071744882,262.26347682212713L516.2172973799985,256.31966827712534L521.7852875855091,259.4292456388087L527.3532777910195,260.7326874281772L532.92126799653,262.3278608088535L538.4892582020404,248.4723912448822L544.0572484075509,237.4948769824626L549.6252386130614,241.1116897361145L555.1932288185718,237.8806465958769L560.7612190240823,256.60899548718606L566.3292092295927,240.3436235044206L571.8971994351032,261.65623698051314L577.4651896406136,265.9846575321321L583.0331798461241,249.20269978588183L588.6011700516345,251.56148684038706L594.169160257145,257.75143278416004L599.7371504626554,264.4381951344977L605.3051406681659,250.36107724001215L610.8731308736764,253.0167608529484L616.4411210791868,250.39402616821235L622.0091112846973,264.1023832203275L627.5771014902077,268.697066732267L633.1450916957182,260.9806058500944L638.7130819012286,256.75201164580636L644.2810721067391,264.42002869840894L649.8490623122495,223.15292094617328" style="fill: none;" fill="none"></path></g><g><path stroke="rgb(51, 187, 238)" stroke-width="2px" d="M98.61803196671441,31.153906100689213L104.18602217222488,71.03297346412337L109.75401237773534,98.12278076991343L115.32200258324579,116.56358347430783L120.88999278875626,129.52097211693035L126.4579829942667,137.8948086422756L132.02597319977716,146.131150180753L137.5939634052876,153.7285496656184L143.16195361079807,159.32479154368667L148.72994381630852,164.7671530219443L154.29793402181897,170.3919803215052L159.86592422732943,174.25234799036664L165.43391443283988,177.9169812154874L171.00190463835034,182.71790720772867L176.56989484386082,186.3324046312908L182.13788504937125,189.20074240785428L187.7058752548817,192.76875512730692L193.2738654603922,195.71848566164064L198.8418556659026,199.297184519969L204.40984587141307,202.81755487026732L209.97783607692355,205.55427503634456L215.545826282434,207.61411735580097L221.11381648794443,210.44158065116477L226.68180669345492,212.9732160019851L232.24979689896537,216.419317687097L237.8177871044758,218.30666791486743L243.38577730998625,220.4960796681922L248.95376751549674,222.55654534574967L254.5217577210072,225.1089296162204L260.08974792651765,228.37541511706254L265.6577381320281,230.5104166132783L271.22572833753856,232.1490469587159L276.793718543049,234.52386322153475L282.36170874855947,236.77614509191176L287.9296989540699,239.19165773361573L293.4976891595804,240.37808630229486L299.06567936509083,243.6358447897218L304.6336695706013,245.444473794441L310.20165977611174,247.90834121455765L315.7696499816222,249.69007676977293L321.33764018713265,252.58423938195278L326.9056303926431,254.45823193612856L332.47362059815356,255.7468021822283L338.04161080366407,258.47265810711525L343.60960100917447,260.0124416679523L349.1775912146849,261.5816121106975L354.74558142019544,262.858427604034L360.31357162570583,266.0623991924531L365.8815618312163,267.1169429971741L371.4495520367268,269.784470414031L377.0175422422372,271.7432396699543L382.58553244774765,272.98300988185485L388.1535226532581,274.8985893264887L393.72151285876856,276.31726331340064L399.289503064279,277.7972044965335L404.8574932697895,280.7999204694594L410.4254834752999,282.65530133176L415.99347368081044,283.90486717096326L421.56146388632084,285.95384524922935L427.1294540918313,286.7134516209799L432.6974442973418,289.3635250110064L438.2654345028522,291.1221963164815L443.83342470836266,292.1243780407114L449.40141491387317,294.8562894442946L454.96940511938357,296.63677828330765L460.537395324894,297.2545261614828L466.10538553040453,299.4645087321433L471.67337573591493,301.36423707077813L477.2413659414254,302.97446009703776L482.80935614693584,304.4828085993486L488.37734635244635,306.5315195241427L493.94533655795675,308.28840980647186L499.5133267634672,310.51370917618766L505.0813169689777,311.4536441414664L510.6493071744882,313.0120393941786L516.2172973799985,314.8553983502439L521.7852875855091,317.8003201220836L527.3532777910195,316.91586402780143L532.92126799653,320.2526999429088L538.4892582020404,321.57145853133255L544.0572484075509,323.3645926346819L549.6252386130614,325.1154274383148L555.1932288185718,326.5604605677869L560.7612190240823,328.61317879465946L566.3292092295927,330.22732007184015L571.8971994351032,332.16516230579845L577.4651896406136,333.0782928727305L583.0331798461241,335.17295419469036L588.6011700516345,337.5301383283643L594.169160257145,339.80779977857117L599.7371504626554,340.4843214205628L605.3051406681659,342.17958830204185L610.8731308736764,344.5554731787483L616.4411210791868,345.80281273901915L622.0091112846973,347.6728870422739L627.5771014902077,349.04774785979527L633.1450916957182,350.6258234182703L638.7130819012286,352.2998961243124L644.2810721067391,354.4947399982323L649.8490623122495,356.1377338503775" style="fill: none;" fill="none"></path></g></g></g></g></g></g><g transform="translate(51, 377)" clip-path="url(#clip_1)"><clipPath id="clip_1"><rect width="963" height="23"></rect></clipPath><g><g><line x1="98.61803196671441" y1="0" x2="98.61803196671441" y2="5" style="visibility: inherit;" fill="rgb(0, 0, 0)" stroke="rgb(204, 204, 204)" stroke-width="1px"></line><line x1="209.97783607692355" y1="0" x2="209.97783607692355" y2="5" style="visibility: inherit;" fill="rgb(0, 0, 0)" stroke="rgb(204, 204, 204)" stroke-width="1px"></line><line x1="321.33764018713265" y1="0" x2="321.33764018713265" y2="5" style="visibility: inherit;" fill="rgb(0, 0, 0)" stroke="rgb(204, 204, 204)" stroke-width="1px"></line><line x1="432.6974442973418" y1="0" x2="432.6974442973418" y2="5" style="visibility: inherit;" fill="rgb(0, 0, 0)" stroke="rgb(204, 204, 204)" stroke-width="1px"></line><line x1="544.0572484075509" y1="0" x2="544.0572484075509" y2="5" style="visibility: inherit;" fill="rgb(0, 0, 0)" stroke="rgb(204, 204, 204)" stroke-width="1px"></line><line x1="655.41705251776" y1="0" x2="655.41705251776" y2="5" style="visibility: inherit;" fill="rgb(0, 0, 0)" stroke="rgb(204, 204, 204)" stroke-width="1px"></line><line x1="766.776856627969" y1="0" x2="766.776856627969" y2="5" style="visibility: inherit;" fill="rgb(0, 0, 0)" stroke="rgb(204, 204, 204)" stroke-width="1px"></line><line x1="878.1366607381782" y1="0" x2="878.1366607381782" y2="5" style="visibility: inherit;" fill="rgb(0, 0, 0)" stroke="rgb(204, 204, 204)" stroke-width="1px"></line></g><g transform="translate(0, 8)"><text x="98.61803196671441" y="0" dx="0em" dy="0.95em" style="text-anchor: middle; visibility: inherit; font-family: Roboto, sans-serif; font-size: 12px; font-weight: 200;" fill="rgb(33, 33, 33)" stroke="none" stroke-width="1px">0</text><text x="209.97783607692355" y="0" dx="0em" dy="0.95em" style="text-anchor: middle; visibility: inherit; font-family: Roboto, sans-serif; font-size: 12px; font-weight: 200;" fill="rgb(33, 33, 33)" stroke="none" stroke-width="1px">20</text><text x="321.33764018713265" y="0" dx="0em" dy="0.95em" style="text-anchor: middle; visibility: inherit; font-family: Roboto, sans-serif; font-size: 12px; font-weight: 200;" fill="rgb(33, 33, 33)" stroke="none" stroke-width="1px">40</text><text x="432.6974442973418" y="0" dx="0em" dy="0.95em" style="text-anchor: middle; visibility: inherit; font-family: Roboto, sans-serif; font-size: 12px; font-weight: 200;" fill="rgb(33, 33, 33)" stroke="none" stroke-width="1px">60</text><text x="544.0572484075509" y="0" dx="0em" dy="0.95em" style="text-anchor: middle; visibility: inherit; font-family: Roboto, sans-serif; font-size: 12px; font-weight: 200;" fill="rgb(33, 33, 33)" stroke="none" stroke-width="1px">80</text><text x="655.41705251776" y="0" dx="0em" dy="0.95em" style="text-anchor: middle; visibility: inherit; font-family: Roboto, sans-serif; font-size: 12px; font-weight: 200;" fill="rgb(33, 33, 33)" stroke="none" stroke-width="1px">100</text><text x="766.776856627969" y="0" dx="0em" dy="0.95em" style="text-anchor: middle; visibility: inherit; font-family: Roboto, sans-serif; font-size: 12px; font-weight: 200;" fill="rgb(33, 33, 33)" stroke="none" stroke-width="1px">120</text><text x="878.1366607381782" y="0" dx="0em" dy="0.95em" style="text-anchor: middle; visibility: inherit; font-family: Roboto, sans-serif; font-size: 12px; font-weight: 200;" fill="rgb(33, 33, 33)" stroke="none" stroke-width="1px">140</text></g><line x1="0" y1="0" x2="963.4375" y2="0" fill="rgb(0, 0, 0)" stroke="rgb(204, 204, 204)" stroke-width="1px"></line></g></g></g></g></svg>