<svg viewBox="0 0 1015 400" xmlns="http://www.w3.org/2000/svg"><g><g><g><g><g><line x1="51.5625" y1="377" x2="46.5625" y2="377" style="visibility: inherit;" fill="rgb(0, 0, 0)" stroke="rgb(204, 204, 204)" stroke-width="1px"></line><line x1="51.5625" y1="350.07142857142856" x2="46.5625" y2="350.07142857142856" style="visibility: inherit;" fill="rgb(0, 0, 0)" stroke="rgb(204, 204, 204)" stroke-width="1px"></line><line x1="51.5625" y1="323.1428571428571" x2="46.5625" y2="323.1428571428571" style="visibility: inherit;" fill="rgb(0, 0, 0)" stroke="rgb(204, 204, 204)" stroke-width="1px"></line><line x1="51.5625" y1="296.21428571428567" x2="46.5625" y2="296.21428571428567" style="visibility: inherit;" fill="rgb(0, 0, 0)" stroke="rgb(204, 204, 204)" stroke-width="1px"></line><line x1="51.5625" y1="269.28571428571433" x2="46.5625" y2="269.28571428571433" style="visibility: inherit;" fill="rgb(0, 0, 0)" stroke="rgb(204, 204, 204)" stroke-width="1px"></line><line x1="51.5625" y1="242.35714285714292" x2="46.5625" y2="242.35714285714292" style="visibility: inherit;" fill="rgb(0, 0, 0)" stroke="rgb(204, 204, 204)" stroke-width="1px"></line><line x1="51.5625" y1="215.42857142857144" x2="46.5625" y2="215.42857142857144" style="visibility: inherit;" fill="rgb(0, 0, 0)" stroke="rgb(204, 204, 204)" stroke-width="1px"></line><line x1="51.5625" y1="188.5" x2="46.5625" y2="188.5" style="visibility: inherit;" fill="rgb(0, 0, 0)" stroke="rgb(204, 204, 204)" stroke-width="1px"></line><line x1="51.5625" y1="161.57142857142856" x2="46.5625" y2="161.57142857142856" style="visibility: inherit;" fill="rgb(0, 0, 0)" stroke="rgb(204, 204, 204)" stroke-width="1px"></line><line x1="51.5625" y1="134.64285714285708" x2="46.5625" y2="134.64285714285708" style="visibility: inherit;" fill="rgb(0, 0, 0)" stroke="rgb(204, 204, 204)" stroke-width="1px"></line><line x1="51.5625" y1="107.7142857142858" x2="46.5625" y2="107.7142857142858" style="visibility: inherit;" fill="rgb(0, 0, 0)" stroke="rgb(204, 204, 204)" stroke-width="1px"></line><line x1="51.5625" y1="80.78571428571433" x2="46.5625" y2="80.78571428571433" style="visibility: inherit;" fill="rgb(0, 0, 0)" stroke="rgb(204, 204, 204)" stroke-width="1px"></line><line x1="51.5625" y1="53.85714285714292" x2="46.5625" y2="53.85714285714292" style="visibility: inherit;" fill="rgb(0, 0, 0)" stroke="rgb(204, 204, 204)" stroke-width="1px"></line><line x1="51.5625" y1="26.92857142857146" x2="46.5625" y2="26.92857142857146" style="visibility: inherit;" fill="rgb(0, 0, 0)" stroke="rgb(204, 204, 204)" stroke-width="1px"></line><line x1="51.5625" y1="0" x2="46.5625" y2="0" style="visibility: inherit;" fill="rgb(0, 0, 0)" stroke="rgb(204, 204, 204)" stroke-width="1px"></line></g><g transform="translate(41.5625, 0)"><text x="0" y="377" dx="0em" dy="0.3em" style="text-anchor: end; visibility: hidden; font-family: Roboto, sans-serif; font-size: 12px; font-weight: 200;" fill="rgb(33, 33, 33)" stroke="none" stroke-width="1px">0.74</text><text x="0" y="350.07142857142856" dx="0em" dy="0.3em" style="text-anchor: end; visibility: inherit; font-family: Roboto, sans-serif; font-size: 12px; font-weight: 200;" fill="rgb(33, 33, 33)" stroke="none" stroke-width="1px">0.76</text><text x="0" y="323.1428571428571" dx="0em" dy="0.3em" style="text-anchor: end; visibility: inherit; font-family: Roboto, sans-serif; font-size: 12px; font-weight: 200;" fill="rgb(33, 33, 33)" stroke="none" stroke-width="1px">0.78</text><text x="0" y="296.21428571428567" dx="0em" dy="0.3em" style="text-anchor: end; visibility: inherit; font-family: Roboto, sans-serif; font-size: 12px; font-weight: 200;" fill="rgb(33, 33, 33)" stroke="none" stroke-width="1px">0.8</text><text x="0" y="269.28571428571433" dx="0em" dy="0.3em" style="text-anchor: end; visibility: inherit; font-family: Roboto, sans-serif; font-size: 12px; font-weight: 200;" fill="rgb(33, 33, 33)" stroke="none" stroke-width="1px">0.82</text><text x="0" y="242.35714285714292" dx="0em" dy="0.3em" style="text-anchor: end; visibility: inherit; font-family: Roboto, sans-serif; font-size: 12px; font-weight: 200;" fill="rgb(33, 33, 33)" stroke="none" stroke-width="1px">0.84</text><text x="0" y="215.42857142857144" dx="0em" dy="0.3em" style="text-anchor: end; visibility: inherit; font-family: Roboto, sans-serif; font-size: 12px; font-weight: 200;" fill="rgb(33, 33, 33)" stroke="none" stroke-width="1px">0.86</text><text x="0" y="188.5" dx="0em" dy="0.3em" style="text-anchor: end; visibility: inherit; font-family: Roboto, sans-serif; font-size: 12px; font-weight: 200;" fill="rgb(33, 33, 33)" stroke="none" stroke-width="1px">0.88</text><text x="0" y="161.57142857142856" dx="0em" dy="0.3em" style="text-anchor: end; visibility: inherit; font-family: Roboto, sans-serif; font-size: 12px; font-weight: 200;" fill="rgb(33, 33, 33)" stroke="none" stroke-width="1px">0.9</text><text x="0" y="134.64285714285708" dx="0em" dy="0.3em" style="text-anchor: end; visibility: inherit; font-family: Roboto, sans-serif; font-size: 12px; font-weight: 200;" fill="rgb(33, 33, 33)" stroke="none" stroke-width="1px">0.92</text><text x="0" y="107.7142857142858" dx="0em" dy="0.3em" style="text-anchor: end; visibility: inherit; font-family: Roboto, sans-serif; font-size: 12px; font-weight: 200;" fill="rgb(33, 33, 33)" stroke="none" stroke-width="1px">0.94</text><text x="0" y="80.78571428571433" dx="0em" dy="0.3em" style="text-anchor: end; visibility: inherit; font-family: Roboto, sans-serif; font-size: 12px; font-weight: 200;" fill="rgb(33, 33, 33)" stroke="none" stroke-width="1px">0.96</text><text x="0" y="53.85714285714292" dx="0em" dy="0.3em" style="text-anchor: end; visibility: inherit; font-family: Roboto, sans-serif; font-size: 12px; font-weight: 200;" fill="rgb(33, 33, 33)" stroke="none" stroke-width="1px">0.98</text><text x="0" y="26.92857142857146" dx="0em" dy="0.3em" style="text-anchor: end; visibility: inherit; font-family: Roboto, sans-serif; font-size: 12px; font-weight: 200;" fill="rgb(33, 33, 33)" stroke="none" stroke-width="1px">1</text><text x="0" y="0" dx="0em" dy="0.3em" style="text-anchor: end; visibility: hidden; font-family: Roboto, sans-serif; font-size: 12px; font-weight: 200;" fill="rgb(33, 33, 33)" stroke="none" stroke-width="1px">1.02</text></g><line x1="51.5625" y1="0" x2="51.5625" y2="377" fill="rgb(0, 0, 0)" stroke="rgb(204, 204, 204)" stroke-width="1px"></line></g></g><g transform="translate(51, 0)" clip-path="url(#clip_0)"><clipPath id="clip_0"><rect width="963" height="377"></rect></clipPath><g><g><g><line x1="0" y1="0" x2="0" y2="377" fill="rgb(0, 0, 0)" stroke="rgb(66, 66, 66)" stroke-width="1px" opacity="0.25"></line><line x1="80.28645833333333" y1="0" x2="80.28645833333333" y2="377" fill="rgb(0, 0, 0)" stroke="rgb(66, 66, 66)" stroke-width="1px" opacity="0.25"></line><line x1="160.57291666666666" y1="0" x2="160.57291666666666" y2="377" fill="rgb(0, 0, 0)" stroke="rgb(66, 66, 66)" stroke-width="1px" opacity="0.25"></line><line x1="240.859375" y1="0" x2="240.859375" y2="377" fill="rgb(0, 0, 0)" stroke="rgb(66, 66, 66)" stroke-width="1px" opacity="0.25"></line><line x1="321.1458333333333" y1="0" x2="321.1458333333333" y2="377" fill="rgb(0, 0, 0)" stroke="rgb(66, 66, 66)" stroke-width="1px" opacity="0.25"></line><line x1="401.4322916666667" y1="0" x2="401.4322916666667" y2="377" fill="rgb(0, 0, 0)" stroke="rgb(66, 66, 66)" stroke-width="1px" opacity="0.25"></line><line x1="481.71875" y1="0" x2="481.71875" y2="377" fill="rgb(0, 0, 0)" stroke="rgb(66, 66, 66)" stroke-width="1px" opacity="0.25"></line><line x1="562.0052083333334" y1="0" x2="562.0052083333334" y2="377" fill="rgb(0, 0, 0)" stroke="rgb(66, 66, 66)" stroke-width="1px" opacity="0.25"></line><line x1="642.2916666666666" y1="0" x2="642.2916666666666" y2="377" fill="rgb(0, 0, 0)" stroke="rgb(66, 66, 66)" stroke-width="1px" opacity="0.25"></line><line x1="722.578125" y1="0" x2="722.578125" y2="377" fill="rgb(0, 0, 0)" stroke="rgb(66, 66, 66)" stroke-width="1px" opacity="0.25"></line><line x1="802.8645833333334" y1="0" x2="802.8645833333334" y2="377" fill="rgb(0, 0, 0)" stroke="rgb(66, 66, 66)" stroke-width="1px" opacity="0.25"></line><line x1="883.1510416666666" y1="0" x2="883.1510416666666" y2="377" fill="rgb(0, 0, 0)" stroke="rgb(66, 66, 66)" stroke-width="1px" opacity="0.25"></line><line x1="963.4375" y1="0" x2="963.4375" y2="377" fill="rgb(0, 0, 0)" stroke="rgb(66, 66, 66)" stroke-width="1px" opacity="0.25"></line></g><g><line x1="0" y1="377" x2="963.4375" y2="377" fill="rgb(0, 0, 0)" stroke="rgb(66, 66, 66)" stroke-width="1px" opacity="0.25"></line><line x1="0" y1="350.07142857142856" x2="963.4375" y2="350.07142857142856" fill="rgb(0, 0, 0)" stroke="rgb(66, 66, 66)" stroke-width="1px" opacity="0.25"></line><line x1="0" y1="323.1428571428571" x2="963.4375" y2="323.1428571428571" fill="rgb(0, 0, 0)" stroke="rgb(66, 66, 66)" stroke-width="1px" opacity="0.25"></line><line x1="0" y1="296.21428571428567" x2="963.4375" y2="296.21428571428567" fill="rgb(0, 0, 0)" stroke="rgb(66, 66, 66)" stroke-width="1px" opacity="0.25"></line><line x1="0" y1="269.28571428571433" x2="963.4375" y2="269.28571428571433" fill="rgb(0, 0, 0)" stroke="rgb(66, 66, 66)" stroke-width="1px" opacity="0.25"></line><line x1="0" y1="242.35714285714292" x2="963.4375" y2="242.35714285714292" fill="rgb(0, 0, 0)" stroke="rgb(66, 66, 66)" stroke-width="1px" opacity="0.25"></line><line x1="0" y1="215.42857142857144" x2="963.4375" y2="215.42857142857144" fill="rgb(0, 0, 0)" stroke="rgb(66, 66, 66)" stroke-width="1px" opacity="0.25"></line><line x1="0" y1="188.5" x2="963.4375" y2="188.5" fill="rgb(0, 0, 0)" stroke="rgb(66, 66, 66)" stroke-width="1px" opacity="0.25"></line><line x1="0" y1="161.57142857142856" x2="963.4375" y2="161.57142857142856" fill="rgb(0, 0, 0)" stroke="rgb(66, 66, 66)" stroke-width="1px" opacity="0.25"></line><line x1="0" y1="134.64285714285708" x2="963.4375" y2="134.64285714285708" fill="rgb(0, 0, 0)" stroke="rgb(66, 66, 66)" stroke-width="1px" opacity="0.25"></line><line x1="0" y1="107.7142857142858" x2="963.4375" y2="107.7142857142858" fill="rgb(0, 0, 0)" stroke="rgb(66, 66, 66)" stroke-width="1px" opacity="0.25"></line><line x1="0" y1="80.78571428571433" x2="963.4375" y2="80.78571428571433" fill="rgb(0, 0, 0)" stroke="rgb(66, 66, 66)" stroke-width="1px" opacity="0.25"></line><line x1="0" y1="53.85714285714292" x2="963.4375" y2="53.85714285714292" fill="rgb(0, 0, 0)" stroke="rgb(66, 66, 66)" stroke-width="1px" opacity="0.25"></line><line x1="0" y1="26.92857142857146" x2="963.4375" y2="26.92857142857146" fill="rgb(0, 0, 0)" stroke="rgb(66, 66, 66)" stroke-width="1px" opacity="0.25"></line><line x1="0" y1="0" x2="963.4375" y2="0" fill="rgb(0, 0, 0)" stroke="rgb(66, 66, 66)" stroke-width="1px" opacity="0.25"></line></g></g></g><g><g><line x1="0" y1="1373.357142857143" x2="963.4375" y2="1373.357142857143" fill="rgb(0, 0, 0)" stroke="rgb(153, 153, 153)" stroke-width="1.5px"></line></g></g><g><g><line x1="80.28645833333333" y1="0" x2="80.28645833333333" y2="377" fill="rgb(0, 0, 0)" stroke="rgb(153, 153, 153)" stroke-width="1.5px"></line></g></g><g><g><g><g><g><path stroke="rgb(51, 187, 238)" stroke-width="2px" d="M104.37239583333334,378.531987916647L112.40104166666667,359.6326351692032L120.4296875,346.1336634253658L128.45833333333334,333.289532275601L136.48697916666666,322.16659572147927L144.515625,317.8983110606618L152.54427083333331,311.85297072920895L160.57291666666666,308.00251886074307L168.6015625,306.8837956927992L176.63020833333331,301.53716995166695L184.65885416666669,309.7492850126267L192.6875,307.0480181480222L200.71614583333334,300.5100074819787L208.74479166666669,293.88376967330527L216.7734375,292.12145945202803L224.80208333333334,292.6376355450312L232.83072916666666,286.7520780584991L240.859375,282.7783864530799L248.88802083333337,283.3442525663558L256.9166666666667,283.09377193688084L264.9453125,285.15598515223815L272.9739583333333,283.98412511022946L281.0026041666667,283.5268438414366L289.03125,285.31749389447623L297.05989583333337,286.1460503975801L305.08854166666663,285.51234899470137L313.1171875,297.76796420599055L321.1458333333333,292.04297952436343L329.1744791666667,289.5421709148694L337.203125,291.8766748751249L345.2317708333333,288.6065651545527L353.26041666666663,287.48032247265303L361.2890625,285.0837514244237L369.31770833333337,296.18328343601013L377.3463541666667,295.5171836073843L385.375,292.2166844276527L393.4036458333333,313.3938877940191L401.4322916666667,328.3618789224113L409.4609375,314.4310029470126L417.48958333333337,307.2524912103498L425.51822916666663,301.22455873564945L433.546875,299.7219626334303L441.5755208333333,300.9345683540433L449.6041666666667,297.4829522029292L457.6328125,299.7878150190303L465.6614583333333,295.90989784437915L473.69010416666663,292.8456509251598L481.71875,292.8262867703984L489.7473958333333,292.07713956172455L497.77604166666674,292.56183287564977L505.8046875,295.60598239852055L513.8333333333334,294.48248565441423L521.8619791666666,292.92338525033136L529.890625,293.7578976217621L537.9192708333334,291.84946227793995L545.9479166666666,291.9335620957406L553.9765625,294.2948382914455L562.0052083333334,295.12161313757514L570.0338541666666,293.74934686835866L578.0625,292.4343226971914L586.0911458333333,290.6619793752162L594.1197916666667,291.8602425069069L602.1484375,291.49751300363187L610.1770833333333,291.5257075064856L618.2057291666667,292.77181733365006L626.234375,291.5036463098919L634.2630208333334,291.08690236211135L642.2916666666666,290.44351804546125L650.3203125,289.9591609938155L658.3489583333334,289.91437896764677L666.3776041666666,291.65751446718394L674.40625,291.27754971814227L682.4348958333334,292.1312582510068L690.4635416666666,292.0534603980734L698.4921875,292.2034667109837L706.5208333333333,292.44097624189294L714.5494791666667,292.38679693576813L722.578125,293.04263878640086L730.6067708333333,292.99362666729166L738.6354166666667,303.0925511762598L746.6640625,307.92274485754706L754.6927083333334,307.08419871253136L762.7213541666666,315.1852302955361L770.75,310.3108554128869L778.7786458333334,304.7312234104399L786.8072916666666,300.79345333767844L794.8359375,298.4307912940217L802.8645833333334,296.32484463351983L810.8932291666666,295.45461458520055L818.921875,295.0308030178646L826.9505208333333,294.72736889731465L834.9791666666667,294.69281416814744L843.0078125,294.7212285107957L851.0364583333333,294.6399506547289L859.0651041666667,294.8861954274148L867.09375,294.8372572663561L875.1223958333334,294.07039775526476" style="fill: none;" fill="none"></path></g><g><path stroke="rgb(204, 51, 17)" stroke-width="2px" d="M104.37239583333334,400.00918301908655L112.40104166666667,376.76400329950394L120.4296875,357.40701588576155L128.45833333333334,340.7983657993364L136.48697916666666,328.06050543784175L144.515625,315.7329718441767L152.54427083333331,305.2244703508546L160.57291666666666,295.5017805671913L168.6015625,287.4321022053382L176.63020833333331,278.44249316648086L184.65885416666669,270.9622403997466L192.6875,263.90001446972343L200.71614583333334,256.52228655698707L208.74479166666669,249.46403240041417L216.7734375,242.72745006330993L224.80208333333334,235.87320661676807L232.83072916666666,228.96688395949337L240.859375,223.0226793661559L248.88802083333337,216.66229363950282L256.9166666666667,210.05215196445397L264.9453125,203.4535838747608L272.9739583333333,197.37104842163873L281.0026041666667,190.4805795157522L289.03125,184.3594863694163L297.05989583333337,178.4517118173223L305.08854166666663,172.1503442150409L313.1171875,166.01020316002794L321.1458333333333,159.02927732003593L329.1744791666667,153.43134424474292L337.203125,147.6201370680432L345.2317708333333,141.82994777973906L353.26041666666663,135.72333024725702L361.2890625,129.36477171904218L369.31770833333337,123.68079183388902L377.3463541666667,118.48229403713295L385.375,114.0655621463712L393.4036458333333,108.26150032036149L401.4322916666667,103.40692275293875L409.4609375,98.06034750229617L417.48958333333337,93.25054455465462L425.51822916666663,88.36545437035466L433.546875,84.11192058638454L441.5755208333333,79.6412947156452L449.6041666666667,75.99035699906439L457.6328125,71.42185412311296L465.6614583333333,67.47624521696878L473.69010416666663,63.370430793652325L481.71875,60.47854950801486L489.7473958333333,57.57618323345011L497.77604166666674,53.54994926422384L505.8046875,50.87964510831133L513.8333333333334,48.973238038496376L521.8619791666666,45.910888196086745L529.890625,43.84995653011006L537.9192708333334,40.37204856569642L545.9479166666666,37.78237180051231L553.9765625,35.40901805414406L562.0052083333334,33.51314793499491L570.0338541666666,32.0900200752747L578.0625,30.907072331550292L586.0911458333333,29.84961386938588L594.1197916666667,29.451083778430725L602.1484375,28.81461510603993L610.1770833333333,28.407887450982606L618.2057291666667,28.107962392475464L626.234375,27.816262527784655L634.2630208333334,27.591581807082584L642.2916666666666,27.46916449911409L650.3203125,27.364672100483713L658.3489583333334,27.2895855368525L666.3776041666666,27.244533598673822L674.40625,27.18023275833193L682.4348958333334,27.135456691900313L690.4635416666666,27.121014277853085L698.4921875,27.08750237780151L706.5208333333333,27.086014025808442L714.5494791666667,27.078925452386347L722.578125,27.05602141893632L730.6067708333333,27.048506662451402L738.6354166666667,34.25235790154094L746.6640625,58.60408668772244L754.6927083333334,61.12048765539356L762.7213541666666,56.56435919458069L770.75,48.61533487914362L778.7786458333334,40.28831931484482L786.8072916666666,35.0437738654692L794.8359375,31.847353692597714L802.8645833333334,29.948152478271307L810.8932291666666,28.771362072241043L818.921875,28.071483390849124L826.9505208333333,27.645360619787542L834.9791666666667,27.38349139492414L843.0078125,27.232565422232494L851.0364583333333,27.123391050579738L859.0651041666667,27.076505215625907L867.09375,27.0421781524272L875.1223958333334,27.015354250922964" style="fill: none;" fill="none"></path></g></g></g></g><g opacity="0.2"><g><g><g><path stroke="rgb(51, 187, 238)" stroke-width="2px" d="M88.31510416666666,408.3388583234378L96.34375,375.7659306781633L104.37239583333334,356.8367225016866L112.40104166666667,334.9576402221407L120.4296875,327.4597258738109L128.45833333333334,314.9222192253385L136.48697916666666,305.949247445379L144.515625,311.60342025756836L152.54427083333331,302.87634488514493L160.57291666666666,302.2617643730981L168.6015625,305.21179898296083L176.63020833333331,293.53468900067463L184.65885416666669,322.05136921576093L192.6875,302.99929308891296L200.71614583333334,290.70760259457995L208.74479166666669,283.947216962065L216.7734375,289.4784415704863L224.80208333333334,293.41182105030333L232.83072916666666,277.9242797919682L240.859375,276.8180669716426L248.88802083333337,284.1930331162044L256.9166666666667,282.71805593797137L264.9453125,288.2492805463927L272.9739583333333,282.2263433762959L281.0026041666667,282.84092388834273L289.03125,288.0034643922533L297.05989583333337,287.3888838802065L305.08854166666663,284.5617974741118L313.1171875,316.1513802494321L321.1458333333333,283.45550440038954L329.1744791666667,285.79095849820544L337.203125,295.3784305368151L345.2317708333333,283.7014008079256L353.26041666666663,285.79095849820544L361.2890625,281.48889491387774L369.31770833333337,312.832581281662L377.3463541666667,294.51803387062887L385.375,287.26593567643846L393.4036458333333,345.15969277279714L401.4322916666667,350.81386558498656L409.4609375,293.53468900067463L417.48958333333337,296.4847236105374L425.51822916666663,292.1826600262097L433.546875,297.46806848049164L441.5755208333333,302.7534769347736L449.6041666666667,292.305527976581L457.6328125,303.24510924305235L465.6614583333333,290.09302208253314L473.69010416666663,288.2492805463927L481.71875,292.7972405382565L489.7473958333333,290.95341874871934L497.77604166666674,293.28887284653524L505.8046875,300.1722066828183L513.8333333333334,292.7972405382565L521.8619791666666,290.58473464420865L529.890625,295.00966617890765L537.9192708333334,288.98680926220754L545.9479166666666,292.0597118224416L553.9765625,297.83675258500233L562.0052083333334,296.3617754067693L570.0338541666666,291.6909474645342L578.0625,290.46178644044056L586.0911458333333,288.0034643922533L594.1197916666667,293.6576372044427L602.1484375,290.95341874871934L610.1770833333333,291.56799926076616L618.2057291666667,294.64098207439696L626.234375,289.60138977425436L634.2630208333334,290.46178644044056L642.2916666666666,289.4784415704863L650.3203125,289.23262541634693L658.3489583333334,289.84720592839375L666.3776041666666,294.27221771648954L674.40625,290.70760259457995L682.4348958333334,293.41182105030333L690.4635416666666,291.9367636186736L698.4921875,292.4284761803491L706.5208333333333,292.7972405382565L714.5494791666667,292.305527976581L722.578125,294.02640156235015L730.6067708333333,292.9201084886278L738.6354166666667,318.24093793971196L746.6640625,315.1680353794779L754.6927083333334,305.82637949500764L762.7213541666666,327.33677767004286L770.75,302.99929308891296L778.7786458333334,296.3617754067693L786.8072916666666,294.88679822853635L794.8359375,294.88679822853635L802.8645833333334,293.1659246427672L810.8932291666666,294.14926951272145L818.921875,294.39508566686084L826.9505208333333,294.27221771648954L834.9791666666667,294.64098207439696L843.0078125,294.76385002476826L851.0364583333333,294.51803387062887L859.0651041666667,295.2555625864438L867.09375,294.76385002476826L875.1223958333334,292.9201084886278" style="fill: none;" fill="none"></path></g><g><path stroke="rgb(204, 51, 17)" stroke-width="2px" d="M96.34375,395.82117426395416L104.37239583333334,368.6734564900398L112.40104166666667,346.41509665761674L120.4296875,330.6293337770871L128.45833333333334,317.04773043734684L136.48697916666666,309.48858274732316L144.515625,297.5522542936461L152.54427083333331,289.62057033606936L160.57291666666666,281.0059299724443L168.6015625,275.3714994958469L176.63020833333331,264.9874322414398L184.65885416666669,259.75651584352767L192.6875,253.31497695616312L200.71614583333334,245.46089803321019L208.74479166666669,238.8796379821641L216.7734375,232.6242869751794L224.80208333333334,225.59288562195644L232.83072916666666,218.60803123882837L240.859375,214.10669847045625L248.88802083333337,207.12192434072495L256.9166666666667,200.1370699575969L264.9453125,193.5558099065508L272.9739583333333,188.24728847401485L281.0026041666667,180.14490554162435L289.03125,175.17786231211252L297.05989583333337,169.59005905900682L305.08854166666663,162.6982986160687L313.1171875,156.799994971071L321.1458333333333,148.55789087499892L329.1744791666667,145.0344457456044L337.203125,138.9033269967352L345.2317708333333,133.1446642620223L353.26041666666663,126.56340421097622L361.2890625,119.82693409068246L369.31770833333337,115.15482209409986L377.3463541666667,110.68454739025664L385.375,107.44046433482852L393.4036458333333,99.55540760074344L401.4322916666667,96.12505641153884L409.4609375,90.04048463276457L417.48958333333337,86.03584013666429L425.51822916666663,81.03781909602031L433.546875,77.73161991153445L441.5755208333333,72.93535591023311L449.6041666666667,70.51395042453494L457.6328125,64.56909980944228L465.6614583333333,61.557831857885645L473.69010416666663,57.21170915876117L481.71875,56.14072757959366L489.7473958333333,53.2226338216237L497.77604166666674,47.510598310402486L505.8046875,46.87418887444906L513.8333333333334,46.113627433776855L521.8619791666666,41.31736343247552L529.890625,40.75855903114595L537.9192708333334,35.15518661907744L545.9479166666666,33.897856652736664L553.9765625,31.848987434591578L562.0052083333334,30.669342756271405L570.0338541666666,29.955328285694165L578.0625,29.132650715964218L586.0911458333333,28.263426176139305L594.1197916666667,28.853288641997764L602.1484375,27.859912097454114L610.1770833333333,27.79779596839633L618.2057291666667,27.658074804714772L626.234375,27.37871273074832L634.2630208333334,27.25456072602954L642.2916666666666,27.285538537161727L650.3203125,27.20793350253787L658.3489583333334,27.176955691405723L666.3776041666666,27.176955691405723L674.40625,27.08378149781909L682.4348958333334,27.068292592253016L690.4635416666666,27.09935065678191L698.4921875,27.037234527724166L706.5208333333333,27.08378149781909L714.5494791666667,27.068292592253016L722.578125,27.021665368761347L730.6067708333333,27.037234527724166L738.6354166666667,45.05813476017546L746.6640625,95.13167986699514L754.6927083333334,64.89508910690036L762.7213541666666,49.73016650336132L770.75,36.69179840598788L778.7786458333334,27.79779596839633L786.8072916666666,27.176955691405723L794.8359375,27.05272343329024L802.8645833333334,27.09935065678191L810.8932291666666,27.006176463195274L818.921875,27.021665368761347L826.9505208333333,27.006176463195274L834.9791666666667,26.9906875576292L843.0078125,27.006176463195274L851.0364583333333,26.95962949310031L859.0651041666667,27.006176463195274L867.09375,26.9906875576292L875.1223958333334,26.975118398666424" style="fill: none;" fill="none"></path></g></g></g></g></g></g><g transform="translate(51, 377)" clip-path="url(#clip_1)"><clipPath id="clip_1"><rect width="963" height="23"></rect></clipPath><g><g><line x1="0" y1="0" x2="0" y2="5" style="visibility: inherit;" fill="rgb(0, 0, 0)" stroke="rgb(204, 204, 204)" stroke-width="1px"></line><line x1="80.28645833333333" y1="0" x2="80.28645833333333" y2="5" style="visibility: inherit;" fill="rgb(0, 0, 0)" stroke="rgb(204, 204, 204)" stroke-width="1px"></line><line x1="160.57291666666666" y1="0" x2="160.57291666666666" y2="5" style="visibility: inherit;" fill="rgb(0, 0, 0)" stroke="rgb(204, 204, 204)" stroke-width="1px"></line><line x1="240.859375" y1="0" x2="240.859375" y2="5" style="visibility: inherit;" fill="rgb(0, 0, 0)" stroke="rgb(204, 204, 204)" stroke-width="1px"></line><line x1="321.1458333333333" y1="0" x2="321.1458333333333" y2="5" style="visibility: inherit;" fill="rgb(0, 0, 0)" stroke="rgb(204, 204, 204)" stroke-width="1px"></line><line x1="401.4322916666667" y1="0" x2="401.4322916666667" y2="5" style="visibility: inherit;" fill="rgb(0, 0, 0)" stroke="rgb(204, 204, 204)" stroke-width="1px"></line><line x1="481.71875" y1="0" x2="481.71875" y2="5" style="visibility: inherit;" fill="rgb(0, 0, 0)" stroke="rgb(204, 204, 204)" stroke-width="1px"></line><line x1="562.0052083333334" y1="0" x2="562.0052083333334" y2="5" style="visibility: inherit;" fill="rgb(0, 0, 0)" stroke="rgb(204, 204, 204)" stroke-width="1px"></line><line x1="642.2916666666666" y1="0" x2="642.2916666666666" y2="5" style="visibility: inherit;" fill="rgb(0, 0, 0)" stroke="rgb(204, 204, 204)" stroke-width="1px"></line><line x1="722.578125" y1="0" x2="722.578125" y2="5" style="visibility: inherit;" fill="rgb(0, 0, 0)" stroke="rgb(204, 204, 204)" stroke-width="1px"></line><line x1="802.8645833333334" y1="0" x2="802.8645833333334" y2="5" style="visibility: inherit;" fill="rgb(0, 0, 0)" stroke="rgb(204, 204, 204)" stroke-width="1px"></line><line x1="883.1510416666666" y1="0" x2="883.1510416666666" y2="5" style="visibility: inherit;" fill="rgb(0, 0, 0)" stroke="rgb(204, 204, 204)" stroke-width="1px"></line><line x1="963.4375" y1="0" x2="963.4375" y2="5" style="visibility: inherit;" fill="rgb(0, 0, 0)" stroke="rgb(204, 204, 204)" stroke-width="1px"></line></g><g transform="translate(0, 8)"><text x="0" y="0" dx="0em" dy="0.95em" style="text-anchor: middle; visibility: hidden; font-family: Roboto, sans-serif; font-size: 12px; font-weight: 200;" fill="rgb(33, 33, 33)" stroke="none" stroke-width="1px">-10</text><text x="80.28645833333333" y="0" dx="0em" dy="0.95em" style="text-anchor: middle; visibility: inherit; font-family: Roboto, sans-serif; font-size: 12px; font-weight: 200;" fill="rgb(33, 33, 33)" stroke="none" stroke-width="1px">0</text><text x="160.57291666666666" y="0" dx="0em" dy="0.95em" style="text-anchor: middle; visibility: inherit; font-family: Roboto, sans-serif; font-size: 12px; font-weight: 200;" fill="rgb(33, 33, 33)" stroke="none" stroke-width="1px">10</text><text x="240.859375" y="0" dx="0em" dy="0.95em" style="text-anchor: middle; visibility: inherit; font-family: Roboto, sans-serif; font-size: 12px; font-weight: 200;" fill="rgb(33, 33, 33)" stroke="none" stroke-width="1px">20</text><text x="321.1458333333333" y="0" dx="0em" dy="0.95em" style="text-anchor: middle; visibility: inherit; font-family: Roboto, sans-serif; font-size: 12px; font-weight: 200;" fill="rgb(33, 33, 33)" stroke="none" stroke-width="1px">30</text><text x="401.4322916666667" y="0" dx="0em" dy="0.95em" style="text-anchor: middle; visibility: inherit; font-family: Roboto, sans-serif; font-size: 12px; font-weight: 200;" fill="rgb(33, 33, 33)" stroke="none" stroke-width="1px">40</text><text x="481.71875" y="0" dx="0em" dy="0.95em" style="text-anchor: middle; visibility: inherit; font-family: Roboto, sans-serif; font-size: 12px; font-weight: 200;" fill="rgb(33, 33, 33)" stroke="none" stroke-width="1px">50</text><text x="562.0052083333334" y="0" dx="0em" dy="0.95em" style="text-anchor: middle; visibility: inherit; font-family: Roboto, sans-serif; font-size: 12px; font-weight: 200;" fill="rgb(33, 33, 33)" stroke="none" stroke-width="1px">60</text><text x="642.2916666666666" y="0" dx="0em" dy="0.95em" style="text-anchor: middle; visibility: inherit; font-family: Roboto, sans-serif; font-size: 12px; font-weight: 200;" fill="rgb(33, 33, 33)" stroke="none" stroke-width="1px">70</text><text x="722.578125" y="0" dx="0em" dy="0.95em" style="text-anchor: middle; visibility: inherit; font-family: Roboto, sans-serif; font-size: 12px; font-weight: 200;" fill="rgb(33, 33, 33)" stroke="none" stroke-width="1px">80</text><text x="802.8645833333334" y="0" dx="0em" dy="0.95em" style="text-anchor: middle; visibility: inherit; font-family: Roboto, sans-serif; font-size: 12px; font-weight: 200;" fill="rgb(33, 33, 33)" stroke="none" stroke-width="1px">90</text><text x="883.1510416666666" y="0" dx="0em" dy="0.95em" style="text-anchor: middle; visibility: inherit; font-family: Roboto, sans-serif; font-size: 12px; font-weight: 200;" fill="rgb(33, 33, 33)" stroke="none" stroke-width="1px">100</text><text x="963.4375" y="0" dx="0em" dy="0.95em" style="text-anchor: middle; visibility: hidden; font-family: Roboto, sans-serif; font-size: 12px; font-weight: 200;" fill="rgb(33, 33, 33)" stroke="none" stroke-width="1px">110</text></g><line x1="0" y1="0" x2="963.4375" y2="0" fill="rgb(0, 0, 0)" stroke="rgb(204, 204, 204)" stroke-width="1px"></line></g></g></g></g></svg>