<svg viewBox="0 0 1015 400" xmlns="http://www.w3.org/2000/svg"><g><g><g><g><g><line x1="51.5625" y1="377" x2="46.5625" y2="377" style="visibility: inherit;" fill="rgb(0, 0, 0)" stroke="rgb(204, 204, 204)" stroke-width="1px"></line><line x1="51.5625" y1="348" x2="46.5625" y2="348" style="visibility: inherit;" fill="rgb(0, 0, 0)" stroke="rgb(204, 204, 204)" stroke-width="1px"></line><line x1="51.5625" y1="319" x2="46.5625" y2="319" style="visibility: inherit;" fill="rgb(0, 0, 0)" stroke="rgb(204, 204, 204)" stroke-width="1px"></line><line x1="51.5625" y1="290" x2="46.5625" y2="290" style="visibility: inherit;" fill="rgb(0, 0, 0)" stroke="rgb(204, 204, 204)" stroke-width="1px"></line><line x1="51.5625" y1="261" x2="46.5625" y2="261" style="visibility: inherit;" fill="rgb(0, 0, 0)" stroke="rgb(204, 204, 204)" stroke-width="1px"></line><line x1="51.5625" y1="232" x2="46.5625" y2="232" style="visibility: inherit;" fill="rgb(0, 0, 0)" stroke="rgb(204, 204, 204)" stroke-width="1px"></line><line x1="51.5625" y1="203.00000000000003" x2="46.5625" y2="203.00000000000003" style="visibility: inherit;" fill="rgb(0, 0, 0)" stroke="rgb(204, 204, 204)" stroke-width="1px"></line><line x1="51.5625" y1="174" x2="46.5625" y2="174" style="visibility: inherit;" fill="rgb(0, 0, 0)" stroke="rgb(204, 204, 204)" stroke-width="1px"></line><line x1="51.5625" y1="145.00000000000003" x2="46.5625" y2="145.00000000000003" style="visibility: inherit;" fill="rgb(0, 0, 0)" stroke="rgb(204, 204, 204)" stroke-width="1px"></line><line x1="51.5625" y1="116" x2="46.5625" y2="116" style="visibility: inherit;" fill="rgb(0, 0, 0)" stroke="rgb(204, 204, 204)" stroke-width="1px"></line><line x1="51.5625" y1="87.00000000000003" x2="46.5625" y2="87.00000000000003" style="visibility: inherit;" fill="rgb(0, 0, 0)" stroke="rgb(204, 204, 204)" stroke-width="1px"></line><line x1="51.5625" y1="58" x2="46.5625" y2="58" style="visibility: inherit;" fill="rgb(0, 0, 0)" stroke="rgb(204, 204, 204)" stroke-width="1px"></line><line x1="51.5625" y1="28.999999999999982" x2="46.5625" y2="28.999999999999982" style="visibility: inherit;" fill="rgb(0, 0, 0)" stroke="rgb(204, 204, 204)" stroke-width="1px"></line><line x1="51.5625" y1="0" x2="46.5625" y2="0" style="visibility: inherit;" fill="rgb(0, 0, 0)" stroke="rgb(204, 204, 204)" stroke-width="1px"></line></g><g transform="translate(41.5625, 0)"><text x="0" y="377" dx="0em" dy="0.3em" style="text-anchor: end; visibility: hidden; font-family: Roboto, sans-serif; font-size: 12px; font-weight: 200;" fill="rgb(33, 33, 33)" stroke="none" stroke-width="1px">-0.1</text><text x="0" y="348" dx="0em" dy="0.3em" style="text-anchor: end; visibility: inherit; font-family: Roboto, sans-serif; font-size: 12px; font-weight: 200;" fill="rgb(33, 33, 33)" stroke="none" stroke-width="1px">0</text><text x="0" y="319" dx="0em" dy="0.3em" style="text-anchor: end; visibility: inherit; font-family: Roboto, sans-serif; font-size: 12px; font-weight: 200;" fill="rgb(33, 33, 33)" stroke="none" stroke-width="1px">0.1</text><text x="0" y="290" dx="0em" dy="0.3em" style="text-anchor: end; visibility: inherit; font-family: Roboto, sans-serif; font-size: 12px; font-weight: 200;" fill="rgb(33, 33, 33)" stroke="none" stroke-width="1px">0.2</text><text x="0" y="261" dx="0em" dy="0.3em" style="text-anchor: end; visibility: inherit; font-family: Roboto, sans-serif; font-size: 12px; font-weight: 200;" fill="rgb(33, 33, 33)" stroke="none" stroke-width="1px">0.3</text><text x="0" y="232" dx="0em" dy="0.3em" style="text-anchor: end; visibility: inherit; font-family: Roboto, sans-serif; font-size: 12px; font-weight: 200;" fill="rgb(33, 33, 33)" stroke="none" stroke-width="1px">0.4</text><text x="0" y="203.00000000000003" dx="0em" dy="0.3em" style="text-anchor: end; visibility: inherit; font-family: Roboto, sans-serif; font-size: 12px; font-weight: 200;" fill="rgb(33, 33, 33)" stroke="none" stroke-width="1px">0.5</text><text x="0" y="174" dx="0em" dy="0.3em" style="text-anchor: end; visibility: inherit; font-family: Roboto, sans-serif; font-size: 12px; font-weight: 200;" fill="rgb(33, 33, 33)" stroke="none" stroke-width="1px">0.6</text><text x="0" y="145.00000000000003" dx="0em" dy="0.3em" style="text-anchor: end; visibility: inherit; font-family: Roboto, sans-serif; font-size: 12px; font-weight: 200;" fill="rgb(33, 33, 33)" stroke="none" stroke-width="1px">0.7</text><text x="0" y="116" dx="0em" dy="0.3em" style="text-anchor: end; visibility: inherit; font-family: Roboto, sans-serif; font-size: 12px; font-weight: 200;" fill="rgb(33, 33, 33)" stroke="none" stroke-width="1px">0.8</text><text x="0" y="87.00000000000003" dx="0em" dy="0.3em" style="text-anchor: end; visibility: inherit; font-family: Roboto, sans-serif; font-size: 12px; font-weight: 200;" fill="rgb(33, 33, 33)" stroke="none" stroke-width="1px">0.9</text><text x="0" y="58" dx="0em" dy="0.3em" style="text-anchor: end; visibility: inherit; font-family: Roboto, sans-serif; font-size: 12px; font-weight: 200;" fill="rgb(33, 33, 33)" stroke="none" stroke-width="1px">1</text><text x="0" y="28.999999999999982" dx="0em" dy="0.3em" style="text-anchor: end; visibility: inherit; font-family: Roboto, sans-serif; font-size: 12px; font-weight: 200;" fill="rgb(33, 33, 33)" stroke="none" stroke-width="1px">1.1</text><text x="0" y="0" dx="0em" dy="0.3em" style="text-anchor: end; visibility: hidden; font-family: Roboto, sans-serif; font-size: 12px; font-weight: 200;" fill="rgb(33, 33, 33)" stroke="none" stroke-width="1px">1.2</text></g><line x1="51.5625" y1="0" x2="51.5625" y2="377" fill="rgb(0, 0, 0)" stroke="rgb(204, 204, 204)" stroke-width="1px"></line></g></g><g transform="translate(51, 0)" clip-path="url(#clip_0)"><clipPath id="clip_0"><rect width="963" height="377"></rect></clipPath><g><g><g><line x1="0" y1="0" x2="0" y2="377" fill="rgb(0, 0, 0)" stroke="rgb(66, 66, 66)" stroke-width="1px" opacity="0.25"></line><line x1="80.28645833333333" y1="0" x2="80.28645833333333" y2="377" fill="rgb(0, 0, 0)" stroke="rgb(66, 66, 66)" stroke-width="1px" opacity="0.25"></line><line x1="160.57291666666666" y1="0" x2="160.57291666666666" y2="377" fill="rgb(0, 0, 0)" stroke="rgb(66, 66, 66)" stroke-width="1px" opacity="0.25"></line><line x1="240.859375" y1="0" x2="240.859375" y2="377" fill="rgb(0, 0, 0)" stroke="rgb(66, 66, 66)" stroke-width="1px" opacity="0.25"></line><line x1="321.1458333333333" y1="0" x2="321.1458333333333" y2="377" fill="rgb(0, 0, 0)" stroke="rgb(66, 66, 66)" stroke-width="1px" opacity="0.25"></line><line x1="401.4322916666667" y1="0" x2="401.4322916666667" y2="377" fill="rgb(0, 0, 0)" stroke="rgb(66, 66, 66)" stroke-width="1px" opacity="0.25"></line><line x1="481.71875" y1="0" x2="481.71875" y2="377" fill="rgb(0, 0, 0)" stroke="rgb(66, 66, 66)" stroke-width="1px" opacity="0.25"></line><line x1="562.0052083333334" y1="0" x2="562.0052083333334" y2="377" fill="rgb(0, 0, 0)" stroke="rgb(66, 66, 66)" stroke-width="1px" opacity="0.25"></line><line x1="642.2916666666666" y1="0" x2="642.2916666666666" y2="377" fill="rgb(0, 0, 0)" stroke="rgb(66, 66, 66)" stroke-width="1px" opacity="0.25"></line><line x1="722.578125" y1="0" x2="722.578125" y2="377" fill="rgb(0, 0, 0)" stroke="rgb(66, 66, 66)" stroke-width="1px" opacity="0.25"></line><line x1="802.8645833333334" y1="0" x2="802.8645833333334" y2="377" fill="rgb(0, 0, 0)" stroke="rgb(66, 66, 66)" stroke-width="1px" opacity="0.25"></line><line x1="883.1510416666666" y1="0" x2="883.1510416666666" y2="377" fill="rgb(0, 0, 0)" stroke="rgb(66, 66, 66)" stroke-width="1px" opacity="0.25"></line><line x1="963.4375" y1="0" x2="963.4375" y2="377" fill="rgb(0, 0, 0)" stroke="rgb(66, 66, 66)" stroke-width="1px" opacity="0.25"></line></g><g><line x1="0" y1="377" x2="963.4375" y2="377" fill="rgb(0, 0, 0)" stroke="rgb(66, 66, 66)" stroke-width="1px" opacity="0.25"></line><line x1="0" y1="348" x2="963.4375" y2="348" fill="rgb(0, 0, 0)" stroke="rgb(66, 66, 66)" stroke-width="1px" opacity="0.25"></line><line x1="0" y1="319" x2="963.4375" y2="319" fill="rgb(0, 0, 0)" stroke="rgb(66, 66, 66)" stroke-width="1px" opacity="0.25"></line><line x1="0" y1="290" x2="963.4375" y2="290" fill="rgb(0, 0, 0)" stroke="rgb(66, 66, 66)" stroke-width="1px" opacity="0.25"></line><line x1="0" y1="261" x2="963.4375" y2="261" fill="rgb(0, 0, 0)" stroke="rgb(66, 66, 66)" stroke-width="1px" opacity="0.25"></line><line x1="0" y1="232" x2="963.4375" y2="232" fill="rgb(0, 0, 0)" stroke="rgb(66, 66, 66)" stroke-width="1px" opacity="0.25"></line><line x1="0" y1="203.00000000000003" x2="963.4375" y2="203.00000000000003" fill="rgb(0, 0, 0)" stroke="rgb(66, 66, 66)" stroke-width="1px" opacity="0.25"></line><line x1="0" y1="174" x2="963.4375" y2="174" fill="rgb(0, 0, 0)" stroke="rgb(66, 66, 66)" stroke-width="1px" opacity="0.25"></line><line x1="0" y1="145.00000000000003" x2="963.4375" y2="145.00000000000003" fill="rgb(0, 0, 0)" stroke="rgb(66, 66, 66)" stroke-width="1px" opacity="0.25"></line><line x1="0" y1="116" x2="963.4375" y2="116" fill="rgb(0, 0, 0)" stroke="rgb(66, 66, 66)" stroke-width="1px" opacity="0.25"></line><line x1="0" y1="87.00000000000003" x2="963.4375" y2="87.00000000000003" fill="rgb(0, 0, 0)" stroke="rgb(66, 66, 66)" stroke-width="1px" opacity="0.25"></line><line x1="0" y1="58" x2="963.4375" y2="58" fill="rgb(0, 0, 0)" stroke="rgb(66, 66, 66)" stroke-width="1px" opacity="0.25"></line><line x1="0" y1="28.999999999999982" x2="963.4375" y2="28.999999999999982" fill="rgb(0, 0, 0)" stroke="rgb(66, 66, 66)" stroke-width="1px" opacity="0.25"></line><line x1="0" y1="0" x2="963.4375" y2="0" fill="rgb(0, 0, 0)" stroke="rgb(66, 66, 66)" stroke-width="1px" opacity="0.25"></line></g></g></g><g><g><line x1="0" y1="348" x2="963.4375" y2="348" fill="rgb(0, 0, 0)" stroke="rgb(153, 153, 153)" stroke-width="1.5px"></line></g></g><g><g><line x1="80.28645833333333" y1="0" x2="80.28645833333333" y2="377" fill="rgb(0, 0, 0)" stroke="rgb(153, 153, 153)" stroke-width="1.5px"></line></g></g><g><g><g><g><g><path stroke="rgb(51, 187, 238)" stroke-width="2px" d="M80.28645833333333,176.56748938560486L88.31510416666666,184.88873104751113L96.34375,192.16049683580596L104.37239583333334,198.50913247882443L112.40104166666667,204.34063377697217L120.4296875,209.4021512072145L128.45833333333334,213.57727299096314L136.48697916666666,217.3047516864992L144.515625,219.56119242793343L152.54427083333331,221.82172190470462L160.57291666666666,223.1965278975062L168.6015625,224.0439890723488L176.63020833333331,225.47073741604035L184.65885416666669,223.25669482035482L192.6875,222.80042501877915L200.71614583333334,226.00643054258663L208.74479166666669,228.15613529327476L216.7734375,228.27699263407663L224.80208333333334,226.40539799647428L232.83072916666666,228.2577630815145L240.859375,228.70529084478522L248.88802083333337,228.3332254854617L256.9166666666667,227.46636788330676L264.9453125,224.9580600157769L272.9739583333333,224.61872013267998L281.0026041666667,224.77379183910423L289.03125,223.4632561678044L297.05989583333337,222.7341570712683L305.08854166666663,221.98343544106726L313.1171875,212.01332385009L321.1458333333333,213.78604332277553L329.1744791666667,213.7155416651249L337.203125,211.48184230650446L345.2317708333333,210.15036568835225L353.26041666666663,206.75562505724432L361.2890625,205.63167866979504L369.31770833333337,193.9558200644947L377.3463541666667,194.73875736333554L385.375,193.15690807429772L393.4036458333333,169.63546537549902L401.4322916666667,152.2781608870982L409.4609375,164.93321714839533L417.48958333333337,168.29183870675502L425.51822916666663,171.4614308250812L433.546875,170.49802229232716L441.5755208333333,165.69964216576167L449.6041666666667,165.62284540191692L457.6328125,156.38827790630228L465.6614583333333,153.73681081418025L473.69010416666663,151.73267248321238L481.71875,148.71576043990973L489.7473958333333,142.88112118855048L497.77604166666674,139.00386278041478L505.8046875,133.96007833604452L513.8333333333334,130.83570986821718L521.8619791666666,125.62534178396545L529.890625,121.27533910930347L537.9192708333334,115.78060668861907L545.9479166666666,112.64292379710669L553.9765625,105.76817448433364L562.0052083333334,101.69579629597729L570.0338541666666,98.01941249667199L578.0625,94.19510677992454L586.0911458333333,90.44272558414426L594.1197916666667,86.6868494065016L602.1484375,82.82969291874221L610.1770833333333,80.27400569837366L618.2057291666667,74.35646241141004L626.234375,71.9955762459793L634.2630208333334,68.20026275121916L642.2916666666666,65.91627114178986L650.3203125,62.88947668768317L658.3489583333334,59.853559250219725L666.3776041666666,56.78191866551878L674.40625,54.061613071412076L682.4348958333334,49.31227320936334L690.4635416666666,47.5284837872208L698.4921875,44.92863669338347L706.5208333333333,42.245651044502985L714.5494791666667,40.529063867363455L722.578125,38.87043657710139L730.6067708333333,37.106781332552316L738.6354166666667,33.10257044366591L746.6640625,36.174354785273046L754.6927083333334,35.751108976357955L762.7213541666666,15.29349480399711L770.75,15.519979633863127L778.7786458333334,24.44300804017507L786.8072916666666,26.803431662789087L794.8359375,27.675114436668775L802.8645833333334,27.000622918440463L810.8932291666666,26.05036097182843L818.921875,24.151610549771817L826.9505208333333,22.589519224455387L834.9791666666667,20.688502622777474L843.0078125,19.292788596829332L851.0364583333333,16.10028005354442L859.0651041666667,14.655199102835889L867.09375,13.300662262604815L875.1223958333334,11.665157641986719" style="fill: none;" fill="none"></path></g><g><path stroke="rgb(204, 51, 17)" stroke-width="2px" d="M80.28645833333333,163.71946382522586L88.31510416666666,175.89772540330887L96.34375,185.0813464753482L104.37239583333334,193.08108089732775L112.40104166666667,200.29662213016934L120.4296875,206.53498697308893L128.45833333333334,211.8741484980147L136.48697916666666,216.3814897557056L144.515625,220.46245289133023L152.54427083333331,224.1554369154796L160.57291666666666,227.5203503271761L168.6015625,230.632192603464L176.63020833333331,233.58079568878574L184.65885416666669,236.37228139660508L192.6875,239.11011309267067L200.71614583333334,241.7609625370904L208.74479166666669,244.43569781090366L216.7734375,246.8907331519662L224.80208333333334,249.5341364586172L232.83072916666666,252.12161114245208L240.859375,254.62369937383582L248.88802083333337,257.15706995122594L256.9166666666667,259.60745519175913L264.9453125,262.2163619504774L272.9739583333333,264.8087202761765L281.0026041666667,267.4534653510927L289.03125,270.0083867286234L297.05989583333337,272.3994781022969L305.08854166666663,275.05466807241584L313.1171875,277.6462679891462L321.1458333333333,280.21335218557545L329.1744791666667,282.7897536790968L337.203125,285.2569501527061L345.2317708333333,287.81201036906805L353.26041666666663,290.46041632756527L361.2890625,293.03674704744344L369.31770833333337,295.53723073905786L377.3463541666667,297.90245551097127L385.375,300.3005114264731L393.4036458333333,302.8008502318573L401.4322916666667,305.05924587395793L409.4609375,307.4550547429349L417.48958333333337,309.7014061474388L425.51822916666663,311.99356648744623L433.546875,314.0370969203539L441.5755208333333,316.1176195102694L449.6041666666667,317.9870327448211L457.6328125,320.1173697016337L465.6614583333333,322.0099510134534L473.69010416666663,323.9810665596451L481.71875,325.3547631710194L489.7473958333333,326.677367818921L497.77604166666674,328.6403232232183L505.8046875,330.0805519888088L513.8333333333334,331.26521230157005L521.8619791666666,332.6866773808949L529.890625,333.81584714323026L537.9192708333334,335.6093234119998L545.9479166666666,337.13623111684257L553.9765625,338.5431879817792L562.0052083333334,339.6324285646885L570.0338541666666,340.62773793075144L578.0625,341.5088297568778L586.0911458333333,342.29135193485143L594.1197916666667,342.7377657521255L602.1484375,343.2649623083166L610.1770833333333,343.78167024192766L618.2057291666667,344.1998248945925L626.234375,344.5493342638763L634.2630208333334,344.8737858525367L642.2916666666666,345.1333321700365L650.3203125,345.36540058746164L658.3489583333334,345.5422471526666L666.3776041666666,345.68997626272755L674.40625,345.8495680795188L682.4348958333334,345.9830454144523L690.4635416666666,346.0966080228177L698.4921875,346.2073914557509L706.5208333333333,346.2834512639679L714.5494791666667,346.35645017727535L722.578125,346.4470548418422L730.6067708333333,346.5016967989361L738.6354166666667,341.339827486119L746.6640625,326.76806856885037L754.6927083333334,326.16344721135187L762.7213541666666,328.88901882181574L770.75,333.42365183568006L778.7786458333334,338.11081152862914L786.8072916666666,341.30074096817737L794.8359375,343.35280444904544L802.8645833333334,344.633054004591L810.8932291666666,345.45232871672886L818.921875,345.9804463271134L826.9505208333333,346.33411896355943L834.9791666666667,346.57357394827454L843.0078125,346.72911046692315L851.0364583333333,346.8577133918096L859.0651041666667,346.9219237764129L867.09375,346.9905151674196L875.1223958333334,347.04720820555355" style="fill: none;" fill="none"></path></g></g></g></g><g opacity="0.2"><g><g><g><path stroke="rgb(51, 187, 238)" stroke-width="2px" d="M80.28645833333333,176.56748938560486L88.31510416666666,189.88147604465485L96.34375,199.14139199256897L104.37239583333334,205.9751279950142L112.40104166666667,211.9542418718338L120.4296875,216.40405195951462L128.45833333333334,219.54776394367218L136.48697916666666,222.73945140838623L144.515625,222.88900423049927L152.54427083333331,225.1783447265625L160.57291666666666,225.24626749753952L168.6015625,225.31056898832324L176.63020833333331,227.60620135068896L184.65885416666669,219.93996846675873L192.6875,222.1165566444397L200.71614583333334,230.81317770481112L208.74479166666669,231.37978273630145L216.7734375,228.45824795961383L224.80208333333334,223.59829115867615L232.83072916666666,231.03614139556882L240.859375,229.37655794620514L248.88802083333337,227.7751396894455L256.9166666666667,226.16609859466556L264.9453125,221.19562792778018L272.9739583333333,224.10971271991733L281.0026041666667,225.00639873743054L289.03125,221.49745601415634L297.05989583333337,221.64050954580307L305.08854166666663,220.85735368728638L313.1171875,197.05816197395325L321.1458333333333,216.44512194395065L329.1744791666667,213.60978919267654L337.203125,208.13129353523257L345.2317708333333,208.15315085649493L353.26041666666663,201.66351425647736L361.2890625,203.9457591176033L369.31770833333337,176.44203233718875L377.3463541666667,195.91316330432895L385.375,190.7841341495514L393.4036458333333,134.3533014059067L401.4322916666667,126.24220418930054L409.4609375,183.91580152511597L417.48958333333337,173.32977104187012L425.51822916666663,176.21581900119781L433.546875,169.05290949344638L441.5755208333333,158.5020719766617L449.6041666666667,165.50765025615695L457.6328125,142.53642666339874L465.6614583333333,149.75961017608645L473.69010416666663,148.72646498680115L481.71875,144.19039237499237L489.7473958333333,134.12916231155396L497.77604166666674,133.18797516822815L505.8046875,126.39440166950227L513.8333333333334,126.14915716648105L521.8619791666666,117.8097896575928L529.890625,114.75033509731293L537.9192708333334,107.5385080575943L545.9479166666666,107.93639945983888L553.9765625,95.4560505151749L562.0052083333334,95.58722901344302L570.0338541666666,92.50483679771425L578.0625,88.45864820480347L586.0911458333333,84.81415379047391L594.1197916666667,81.05303514003754L602.1484375,77.04395818710324L610.1770833333333,76.44047486782071L618.2057291666667,65.48014748096463L626.234375,68.45424699783325L634.2630208333334,62.507292509078965L642.2916666666666,62.49028372764584L650.3203125,58.34928500652313L658.3489583333334,55.29968309402464L666.3776041666666,52.17445778846737L674.40625,49.98115468025204L682.4348958333334,42.18826341629028L690.4635416666666,44.85279965400693L698.4921875,41.02886605262753L706.5208333333333,38.22117257118222L714.5494791666667,37.95418310165404L722.578125,36.382495641708374L730.6067708333333,34.461298465728746L738.6354166666667,27.09625411033628L746.6640625,40.782031297683716L754.6927083333334,35.116240262985215L762.7213541666666,-15.392926454544119L770.75,15.85970687866209L778.7786458333334,37.827550649642944L786.8072916666666,30.344067096710177L794.8359375,28.98263859748837L802.8645833333334,25.988885641097998L810.8932291666666,24.624968051910397L818.921875,21.303484916687L826.9505208333333,20.24638223648068L834.9791666666667,17.836977720260606L843.0078125,17.1992175579071L851.0364583333333,11.311517238616943L859.0651041666667,12.487577676773048L867.09375,11.268857002258292L875.1223958333334,9.21190071105955" style="fill: none;" fill="none"></path></g><g><path stroke="rgb(204, 51, 17)" stroke-width="2px" d="M80.28645833333333,163.71946382522586L88.31510416666666,183.2046823501587L96.34375,193.89762270450592L104.37239583333334,202.4887685775757L112.40104166666667,209.71723276376724L120.4296875,215.16489136219025L128.45833333333334,219.50923490524295L136.48697916666666,222.95323657989502L144.515625,226.48108083009723L152.54427083333331,229.63908779621127L160.57291666666666,232.53720092773435L168.6015625,235.28302150964737L176.63020833333331,237.99407261610034L184.65885416666669,240.55404114723206L192.6875,243.21364241838455L200.71614583333334,245.73536711931231L208.74479166666669,248.4466688632965L216.7734375,250.57266283035278L224.80208333333334,253.49883872270587L232.83072916666666,256.0025866627693L240.859375,258.3766945004463L248.88802083333337,260.9570424556732L256.9166666666667,263.28298467397696L264.9453125,266.12969118356705L272.9739583333333,268.69723933935165L281.0026041666667,271.42057168483734L289.03125,273.840762257576L297.05989583333337,275.98611149191856L305.08854166666663,279.037450581789L313.1171875,281.5336664319039L321.1458333333333,284.0639776289463L329.1744791666667,286.65435540676117L337.203125,288.95774456858635L345.2317708333333,291.64460051059723L353.26041666666663,294.43302515149117L361.2890625,296.90124306082726L369.31770833333337,299.28795623779297L377.3463541666667,301.450292646885L385.375,303.8975952863693L393.4036458333333,306.5513584315777L401.4322916666667,308.44683933258057L409.4609375,311.04876804351807L417.48958333333337,313.070933252573L425.51822916666663,315.43180699646473L433.546875,317.1023925691843L441.5755208333333,319.2384033948183L449.6041666666667,320.7911525964737L457.6328125,323.31287513673306L465.6614583333333,324.84882298111916L473.69010416666663,326.9377398788929L481.71875,327.4153080880642L489.7473958333333,328.66127479076385L497.77604166666674,331.58475632965565L505.8046875,332.2408951371908L513.8333333333334,333.04220277071L521.8619791666666,334.8188749998808L529.890625,335.5096017867327L537.9192708333334,338.2995378151536L545.9479166666666,339.42659267410636L553.9765625,340.6536232791841L562.0052083333334,341.26628943905234L570.0338541666666,342.12070197984576L578.0625,342.8304674960673L586.0911458333333,343.4651352018118L594.1197916666667,343.40738647803664L602.1484375,344.0557571426034L610.1770833333333,344.5567321423441L618.2057291666667,344.82705687358975L626.234375,345.07359831780195L634.2630208333334,345.3604632355273L642.2916666666666,345.52265164628625L650.3203125,345.7135032135993L658.3489583333334,345.80751700047404L666.3776041666666,345.9115699278191L674.40625,346.0889558047056L682.4348958333334,346.1832614168525L690.4635416666666,346.2669519353658L698.4921875,346.3735666051507L706.5208333333333,346.3975409762934L714.5494791666667,346.4659485472366L722.578125,346.5829618386924L730.6067708333333,346.58365973457694L738.6354166666667,333.5970235168934L746.6640625,304.9104301929474L754.6927083333334,325.25651517510414L762.7213541666666,332.97737623751163L770.75,340.22560135647655L778.7786458333334,345.14155106805265L786.8072916666666,346.0856351274997L794.8359375,346.43089967034757L802.8645833333334,346.5534283379093L810.8932291666666,346.68124078493565L818.921875,346.77262274269015L826.9505208333333,346.8646279182285L834.9791666666667,346.9327564253472L843.0078125,346.96241524489596L851.0364583333333,347.05061777913943L859.0651041666667,347.01823935331777L867.09375,347.0934022539295L875.1223958333334,347.13224776275456" style="fill: none;" fill="none"></path></g></g></g></g></g></g><g transform="translate(51, 377)" clip-path="url(#clip_1)"><clipPath id="clip_1"><rect width="963" height="23"></rect></clipPath><g><g><line x1="0" y1="0" x2="0" y2="5" style="visibility: inherit;" fill="rgb(0, 0, 0)" stroke="rgb(204, 204, 204)" stroke-width="1px"></line><line x1="80.28645833333333" y1="0" x2="80.28645833333333" y2="5" style="visibility: inherit;" fill="rgb(0, 0, 0)" stroke="rgb(204, 204, 204)" stroke-width="1px"></line><line x1="160.57291666666666" y1="0" x2="160.57291666666666" y2="5" style="visibility: inherit;" fill="rgb(0, 0, 0)" stroke="rgb(204, 204, 204)" stroke-width="1px"></line><line x1="240.859375" y1="0" x2="240.859375" y2="5" style="visibility: inherit;" fill="rgb(0, 0, 0)" stroke="rgb(204, 204, 204)" stroke-width="1px"></line><line x1="321.1458333333333" y1="0" x2="321.1458333333333" y2="5" style="visibility: inherit;" fill="rgb(0, 0, 0)" stroke="rgb(204, 204, 204)" stroke-width="1px"></line><line x1="401.4322916666667" y1="0" x2="401.4322916666667" y2="5" style="visibility: inherit;" fill="rgb(0, 0, 0)" stroke="rgb(204, 204, 204)" stroke-width="1px"></line><line x1="481.71875" y1="0" x2="481.71875" y2="5" style="visibility: inherit;" fill="rgb(0, 0, 0)" stroke="rgb(204, 204, 204)" stroke-width="1px"></line><line x1="562.0052083333334" y1="0" x2="562.0052083333334" y2="5" style="visibility: inherit;" fill="rgb(0, 0, 0)" stroke="rgb(204, 204, 204)" stroke-width="1px"></line><line x1="642.2916666666666" y1="0" x2="642.2916666666666" y2="5" style="visibility: inherit;" fill="rgb(0, 0, 0)" stroke="rgb(204, 204, 204)" stroke-width="1px"></line><line x1="722.578125" y1="0" x2="722.578125" y2="5" style="visibility: inherit;" fill="rgb(0, 0, 0)" stroke="rgb(204, 204, 204)" stroke-width="1px"></line><line x1="802.8645833333334" y1="0" x2="802.8645833333334" y2="5" style="visibility: inherit;" fill="rgb(0, 0, 0)" stroke="rgb(204, 204, 204)" stroke-width="1px"></line><line x1="883.1510416666666" y1="0" x2="883.1510416666666" y2="5" style="visibility: inherit;" fill="rgb(0, 0, 0)" stroke="rgb(204, 204, 204)" stroke-width="1px"></line><line x1="963.4375" y1="0" x2="963.4375" y2="5" style="visibility: inherit;" fill="rgb(0, 0, 0)" stroke="rgb(204, 204, 204)" stroke-width="1px"></line></g><g transform="translate(0, 8)"><text x="0" y="0" dx="0em" dy="0.95em" style="text-anchor: middle; visibility: hidden; font-family: Roboto, sans-serif; font-size: 12px; font-weight: 200;" fill="rgb(33, 33, 33)" stroke="none" stroke-width="1px">-10</text><text x="80.28645833333333" y="0" dx="0em" dy="0.95em" style="text-anchor: middle; visibility: inherit; font-family: Roboto, sans-serif; font-size: 12px; font-weight: 200;" fill="rgb(33, 33, 33)" stroke="none" stroke-width="1px">0</text><text x="160.57291666666666" y="0" dx="0em" dy="0.95em" style="text-anchor: middle; visibility: inherit; font-family: Roboto, sans-serif; font-size: 12px; font-weight: 200;" fill="rgb(33, 33, 33)" stroke="none" stroke-width="1px">10</text><text x="240.859375" y="0" dx="0em" dy="0.95em" style="text-anchor: middle; visibility: inherit; font-family: Roboto, sans-serif; font-size: 12px; font-weight: 200;" fill="rgb(33, 33, 33)" stroke="none" stroke-width="1px">20</text><text x="321.1458333333333" y="0" dx="0em" dy="0.95em" style="text-anchor: middle; visibility: inherit; font-family: Roboto, sans-serif; font-size: 12px; font-weight: 200;" fill="rgb(33, 33, 33)" stroke="none" stroke-width="1px">30</text><text x="401.4322916666667" y="0" dx="0em" dy="0.95em" style="text-anchor: middle; visibility: inherit; font-family: Roboto, sans-serif; font-size: 12px; font-weight: 200;" fill="rgb(33, 33, 33)" stroke="none" stroke-width="1px">40</text><text x="481.71875" y="0" dx="0em" dy="0.95em" style="text-anchor: middle; visibility: inherit; font-family: Roboto, sans-serif; font-size: 12px; font-weight: 200;" fill="rgb(33, 33, 33)" stroke="none" stroke-width="1px">50</text><text x="562.0052083333334" y="0" dx="0em" dy="0.95em" style="text-anchor: middle; visibility: inherit; font-family: Roboto, sans-serif; font-size: 12px; font-weight: 200;" fill="rgb(33, 33, 33)" stroke="none" stroke-width="1px">60</text><text x="642.2916666666666" y="0" dx="0em" dy="0.95em" style="text-anchor: middle; visibility: inherit; font-family: Roboto, sans-serif; font-size: 12px; font-weight: 200;" fill="rgb(33, 33, 33)" stroke="none" stroke-width="1px">70</text><text x="722.578125" y="0" dx="0em" dy="0.95em" style="text-anchor: middle; visibility: inherit; font-family: Roboto, sans-serif; font-size: 12px; font-weight: 200;" fill="rgb(33, 33, 33)" stroke="none" stroke-width="1px">80</text><text x="802.8645833333334" y="0" dx="0em" dy="0.95em" style="text-anchor: middle; visibility: inherit; font-family: Roboto, sans-serif; font-size: 12px; font-weight: 200;" fill="rgb(33, 33, 33)" stroke="none" stroke-width="1px">90</text><text x="883.1510416666666" y="0" dx="0em" dy="0.95em" style="text-anchor: middle; visibility: inherit; font-family: Roboto, sans-serif; font-size: 12px; font-weight: 200;" fill="rgb(33, 33, 33)" stroke="none" stroke-width="1px">100</text><text x="963.4375" y="0" dx="0em" dy="0.95em" style="text-anchor: middle; visibility: hidden; font-family: Roboto, sans-serif; font-size: 12px; font-weight: 200;" fill="rgb(33, 33, 33)" stroke="none" stroke-width="1px">110</text></g><line x1="0" y1="0" x2="963.4375" y2="0" fill="rgb(0, 0, 0)" stroke="rgb(204, 204, 204)" stroke-width="1px"></line></g></g></g></g></svg>