<svg viewBox="0 0 1015 400" xmlns="http://www.w3.org/2000/svg"><g><g><g><g><g><line x1="51.5625" y1="377" x2="46.5625" y2="377" style="visibility: inherit;" fill="rgb(0, 0, 0)" stroke="rgb(204, 204, 204)" stroke-width="1px"></line><line x1="51.5625" y1="345.5833333333333" x2="46.5625" y2="345.5833333333333" style="visibility: inherit;" fill="rgb(0, 0, 0)" stroke="rgb(204, 204, 204)" stroke-width="1px"></line><line x1="51.5625" y1="314.1666666666666" x2="46.5625" y2="314.1666666666666" style="visibility: inherit;" fill="rgb(0, 0, 0)" stroke="rgb(204, 204, 204)" stroke-width="1px"></line><line x1="51.5625" y1="282.75000000000006" x2="46.5625" y2="282.75000000000006" style="visibility: inherit;" fill="rgb(0, 0, 0)" stroke="rgb(204, 204, 204)" stroke-width="1px"></line><line x1="51.5625" y1="251.33333333333337" x2="46.5625" y2="251.33333333333337" style="visibility: inherit;" fill="rgb(0, 0, 0)" stroke="rgb(204, 204, 204)" stroke-width="1px"></line><line x1="51.5625" y1="219.9166666666667" x2="46.5625" y2="219.9166666666667" style="visibility: inherit;" fill="rgb(0, 0, 0)" stroke="rgb(204, 204, 204)" stroke-width="1px"></line><line x1="51.5625" y1="188.5" x2="46.5625" y2="188.5" style="visibility: inherit;" fill="rgb(0, 0, 0)" stroke="rgb(204, 204, 204)" stroke-width="1px"></line><line x1="51.5625" y1="157.08333333333331" x2="46.5625" y2="157.08333333333331" style="visibility: inherit;" fill="rgb(0, 0, 0)" stroke="rgb(204, 204, 204)" stroke-width="1px"></line><line x1="51.5625" y1="125.6666666666666" x2="46.5625" y2="125.6666666666666" style="visibility: inherit;" fill="rgb(0, 0, 0)" stroke="rgb(204, 204, 204)" stroke-width="1px"></line><line x1="51.5625" y1="94.25000000000009" x2="46.5625" y2="94.25000000000009" style="visibility: inherit;" fill="rgb(0, 0, 0)" stroke="rgb(204, 204, 204)" stroke-width="1px"></line><line x1="51.5625" y1="62.8333333333334" x2="46.5625" y2="62.8333333333334" style="visibility: inherit;" fill="rgb(0, 0, 0)" stroke="rgb(204, 204, 204)" stroke-width="1px"></line><line x1="51.5625" y1="31.416666666666682" x2="46.5625" y2="31.416666666666682" style="visibility: inherit;" fill="rgb(0, 0, 0)" stroke="rgb(204, 204, 204)" stroke-width="1px"></line><line x1="51.5625" y1="0" x2="46.5625" y2="0" style="visibility: inherit;" fill="rgb(0, 0, 0)" stroke="rgb(204, 204, 204)" stroke-width="1px"></line></g><g transform="translate(41.5625, 0)"><text x="0" y="377" dx="0em" dy="0.3em" style="text-anchor: end; visibility: hidden; font-family: Roboto, sans-serif; font-size: 12px; font-weight: 200;" fill="rgb(33, 33, 33)" stroke="none" stroke-width="1px">0.76</text><text x="0" y="345.5833333333333" dx="0em" dy="0.3em" style="text-anchor: end; visibility: inherit; font-family: Roboto, sans-serif; font-size: 12px; font-weight: 200;" fill="rgb(33, 33, 33)" stroke="none" stroke-width="1px">0.78</text><text x="0" y="314.1666666666666" dx="0em" dy="0.3em" style="text-anchor: end; visibility: inherit; font-family: Roboto, sans-serif; font-size: 12px; font-weight: 200;" fill="rgb(33, 33, 33)" stroke="none" stroke-width="1px">0.8</text><text x="0" y="282.75000000000006" dx="0em" dy="0.3em" style="text-anchor: end; visibility: inherit; font-family: Roboto, sans-serif; font-size: 12px; font-weight: 200;" fill="rgb(33, 33, 33)" stroke="none" stroke-width="1px">0.82</text><text x="0" y="251.33333333333337" dx="0em" dy="0.3em" style="text-anchor: end; visibility: inherit; font-family: Roboto, sans-serif; font-size: 12px; font-weight: 200;" fill="rgb(33, 33, 33)" stroke="none" stroke-width="1px">0.84</text><text x="0" y="219.9166666666667" dx="0em" dy="0.3em" style="text-anchor: end; visibility: inherit; font-family: Roboto, sans-serif; font-size: 12px; font-weight: 200;" fill="rgb(33, 33, 33)" stroke="none" stroke-width="1px">0.86</text><text x="0" y="188.5" dx="0em" dy="0.3em" style="text-anchor: end; visibility: inherit; font-family: Roboto, sans-serif; font-size: 12px; font-weight: 200;" fill="rgb(33, 33, 33)" stroke="none" stroke-width="1px">0.88</text><text x="0" y="157.08333333333331" dx="0em" dy="0.3em" style="text-anchor: end; visibility: inherit; font-family: Roboto, sans-serif; font-size: 12px; font-weight: 200;" fill="rgb(33, 33, 33)" stroke="none" stroke-width="1px">0.9</text><text x="0" y="125.6666666666666" dx="0em" dy="0.3em" style="text-anchor: end; visibility: inherit; font-family: Roboto, sans-serif; font-size: 12px; font-weight: 200;" fill="rgb(33, 33, 33)" stroke="none" stroke-width="1px">0.92</text><text x="0" y="94.25000000000009" dx="0em" dy="0.3em" style="text-anchor: end; visibility: inherit; font-family: Roboto, sans-serif; font-size: 12px; font-weight: 200;" fill="rgb(33, 33, 33)" stroke="none" stroke-width="1px">0.94</text><text x="0" y="62.8333333333334" dx="0em" dy="0.3em" style="text-anchor: end; visibility: inherit; font-family: Roboto, sans-serif; font-size: 12px; font-weight: 200;" fill="rgb(33, 33, 33)" stroke="none" stroke-width="1px">0.96</text><text x="0" y="31.416666666666682" dx="0em" dy="0.3em" style="text-anchor: end; visibility: inherit; font-family: Roboto, sans-serif; font-size: 12px; font-weight: 200;" fill="rgb(33, 33, 33)" stroke="none" stroke-width="1px">0.98</text><text x="0" y="0" dx="0em" dy="0.3em" style="text-anchor: end; visibility: hidden; font-family: Roboto, sans-serif; font-size: 12px; font-weight: 200;" fill="rgb(33, 33, 33)" stroke="none" stroke-width="1px">1</text></g><line x1="51.5625" y1="0" x2="51.5625" y2="377" fill="rgb(0, 0, 0)" stroke="rgb(204, 204, 204)" stroke-width="1px"></line></g></g><g transform="translate(51, 0)" clip-path="url(#clip_0)"><clipPath id="clip_0"><rect width="963" height="377"></rect></clipPath><g><g><g><line x1="0" y1="0" x2="0" y2="377" fill="rgb(0, 0, 0)" stroke="rgb(66, 66, 66)" stroke-width="1px" opacity="0.25"></line><line x1="80.28645833333333" y1="0" x2="80.28645833333333" y2="377" fill="rgb(0, 0, 0)" stroke="rgb(66, 66, 66)" stroke-width="1px" opacity="0.25"></line><line x1="160.57291666666666" y1="0" x2="160.57291666666666" y2="377" fill="rgb(0, 0, 0)" stroke="rgb(66, 66, 66)" stroke-width="1px" opacity="0.25"></line><line x1="240.859375" y1="0" x2="240.859375" y2="377" fill="rgb(0, 0, 0)" stroke="rgb(66, 66, 66)" stroke-width="1px" opacity="0.25"></line><line x1="321.1458333333333" y1="0" x2="321.1458333333333" y2="377" fill="rgb(0, 0, 0)" stroke="rgb(66, 66, 66)" stroke-width="1px" opacity="0.25"></line><line x1="401.4322916666667" y1="0" x2="401.4322916666667" y2="377" fill="rgb(0, 0, 0)" stroke="rgb(66, 66, 66)" stroke-width="1px" opacity="0.25"></line><line x1="481.71875" y1="0" x2="481.71875" y2="377" fill="rgb(0, 0, 0)" stroke="rgb(66, 66, 66)" stroke-width="1px" opacity="0.25"></line><line x1="562.0052083333334" y1="0" x2="562.0052083333334" y2="377" fill="rgb(0, 0, 0)" stroke="rgb(66, 66, 66)" stroke-width="1px" opacity="0.25"></line><line x1="642.2916666666666" y1="0" x2="642.2916666666666" y2="377" fill="rgb(0, 0, 0)" stroke="rgb(66, 66, 66)" stroke-width="1px" opacity="0.25"></line><line x1="722.578125" y1="0" x2="722.578125" y2="377" fill="rgb(0, 0, 0)" stroke="rgb(66, 66, 66)" stroke-width="1px" opacity="0.25"></line><line x1="802.8645833333334" y1="0" x2="802.8645833333334" y2="377" fill="rgb(0, 0, 0)" stroke="rgb(66, 66, 66)" stroke-width="1px" opacity="0.25"></line><line x1="883.1510416666666" y1="0" x2="883.1510416666666" y2="377" fill="rgb(0, 0, 0)" stroke="rgb(66, 66, 66)" stroke-width="1px" opacity="0.25"></line><line x1="963.4375" y1="0" x2="963.4375" y2="377" fill="rgb(0, 0, 0)" stroke="rgb(66, 66, 66)" stroke-width="1px" opacity="0.25"></line></g><g><line x1="0" y1="377" x2="963.4375" y2="377" fill="rgb(0, 0, 0)" stroke="rgb(66, 66, 66)" stroke-width="1px" opacity="0.25"></line><line x1="0" y1="345.5833333333333" x2="963.4375" y2="345.5833333333333" fill="rgb(0, 0, 0)" stroke="rgb(66, 66, 66)" stroke-width="1px" opacity="0.25"></line><line x1="0" y1="314.1666666666666" x2="963.4375" y2="314.1666666666666" fill="rgb(0, 0, 0)" stroke="rgb(66, 66, 66)" stroke-width="1px" opacity="0.25"></line><line x1="0" y1="282.75000000000006" x2="963.4375" y2="282.75000000000006" fill="rgb(0, 0, 0)" stroke="rgb(66, 66, 66)" stroke-width="1px" opacity="0.25"></line><line x1="0" y1="251.33333333333337" x2="963.4375" y2="251.33333333333337" fill="rgb(0, 0, 0)" stroke="rgb(66, 66, 66)" stroke-width="1px" opacity="0.25"></line><line x1="0" y1="219.9166666666667" x2="963.4375" y2="219.9166666666667" fill="rgb(0, 0, 0)" stroke="rgb(66, 66, 66)" stroke-width="1px" opacity="0.25"></line><line x1="0" y1="188.5" x2="963.4375" y2="188.5" fill="rgb(0, 0, 0)" stroke="rgb(66, 66, 66)" stroke-width="1px" opacity="0.25"></line><line x1="0" y1="157.08333333333331" x2="963.4375" y2="157.08333333333331" fill="rgb(0, 0, 0)" stroke="rgb(66, 66, 66)" stroke-width="1px" opacity="0.25"></line><line x1="0" y1="125.6666666666666" x2="963.4375" y2="125.6666666666666" fill="rgb(0, 0, 0)" stroke="rgb(66, 66, 66)" stroke-width="1px" opacity="0.25"></line><line x1="0" y1="94.25000000000009" x2="963.4375" y2="94.25000000000009" fill="rgb(0, 0, 0)" stroke="rgb(66, 66, 66)" stroke-width="1px" opacity="0.25"></line><line x1="0" y1="62.8333333333334" x2="963.4375" y2="62.8333333333334" fill="rgb(0, 0, 0)" stroke="rgb(66, 66, 66)" stroke-width="1px" opacity="0.25"></line><line x1="0" y1="31.416666666666682" x2="963.4375" y2="31.416666666666682" fill="rgb(0, 0, 0)" stroke="rgb(66, 66, 66)" stroke-width="1px" opacity="0.25"></line><line x1="0" y1="0" x2="963.4375" y2="0" fill="rgb(0, 0, 0)" stroke="rgb(66, 66, 66)" stroke-width="1px" opacity="0.25"></line></g></g></g><g><g><line x1="0" y1="1570.8333333333335" x2="963.4375" y2="1570.8333333333335" fill="rgb(0, 0, 0)" stroke="rgb(153, 153, 153)" stroke-width="1.5px"></line></g></g><g><g><line x1="80.28645833333333" y1="0" x2="80.28645833333333" y2="377" fill="rgb(0, 0, 0)" stroke="rgb(153, 153, 153)" stroke-width="1.5px"></line></g></g><g><g><g><g><g><path stroke="rgb(0, 153, 136)" stroke-width="2px" d="M80.28645833333333,370.9828560551008L96.34375,352.34051030129194L112.40104166666667,349.48706017667746L128.45833333333334,336.168120682751L144.515625,329.4990161842712L160.57291666666666,330.05749629603713L176.63020833333331,321.34641884329045L192.6875,318.8455210842763L208.74479166666669,317.60390367550804L224.80208333333334,313.5198142840493L240.859375,313.96370840030573L256.9166666666667,316.24105885579L272.9739583333333,315.19195606328805L289.03125,318.926230334414L305.08854166666663,321.79620228832596L321.1458333333333,325.6976563924133L337.203125,326.89041314983695L353.26041666666663,327.14699709642554L369.31770833333337,326.2109857899831L385.375,329.5501407193655L401.4322916666667,330.1194654350873L417.48958333333337,329.31382021541185L433.546875,333.0178597702142L449.6041666666667,333.80619934026794L465.6614583333333,339.32701459019694L481.71875,338.73894190106535L497.77604166666674,339.59065549511234L513.8333333333334,337.92196204870834L529.890625,340.36243622385695L545.9479166666666,341.08102147699765L562.0052083333334,343.46242663016255L578.0625,341.1054382837546L594.1197916666667,343.47707651158714L610.1770833333333,343.3513239313924L626.234375,343.44796242223L642.2916666666666,346.6034537992855L658.3489583333334,347.69367425969284L674.40625,352.13363748051916L690.4635416666666,350.26608594592506L706.5208333333333,347.99833807047696L722.578125,346.86711775786273L738.6354166666667,346.9340840828338L754.6927083333334,347.20372973997723L770.75,348.05383981750816L786.8072916666666,349.7111228198726L802.8645833333334,350.9922968601541L818.921875,348.7782446893434L834.9791666666667,350.2031415712585L851.0364583333333,351.0007038719614L867.09375,353.37215671981255" style="fill: none;" fill="none"></path></g><g><path stroke="rgb(238, 51, 119)" stroke-width="2px" d="M96.34375,391.73953104764223L112.40104166666667,359.54551073868254L128.45833333333334,335.58880489995215L144.515625,315.33445938301406L160.57291666666666,297.66684197812384L176.63020833333331,281.5877127130418L192.6875,266.8845519973586L208.74479166666669,252.57338003631412L224.80208333333334,238.94907424954346L240.859375,225.6076051114237L256.9166666666667,212.47237882757352L272.9739583333333,199.96039634979337L289.03125,188.49833833381754L305.08854166666663,177.52510119424437L321.1458333333333,166.64781510612164L337.203125,156.55175703573659L353.26041666666663,146.6919583520672L369.31770833333337,137.08953661958242L385.375,127.88042673118443L401.4322916666667,119.5228754844413L417.48958333333337,111.58203159765391L433.546875,104.22438647252014L449.6041666666667,96.39090262966748L465.6614583333333,89.33666019664504L481.71875,82.96728628585998L497.77604166666674,78.36337938204619L513.8333333333334,73.13099234429981L529.890625,68.774647373952L545.9479166666666,64.0746753111138L562.0052083333334,60.14642528411053L578.0625,56.57256114878221L594.1197916666667,54.05882039622008L610.1770833333333,50.681779321367685L626.234375,47.482084201207925L642.2916666666666,45.902702076693664L658.3489583333334,43.912008708392136L674.40625,42.14536992391065L690.4635416666666,40.38275746715832L706.5208333333333,37.73162504604353L722.578125,36.155401907516364L738.6354166666667,34.95615824531582L754.6927083333334,33.910633451265596L770.75,33.20365905343527L786.8072916666666,31.135200020926895L802.8645833333334,29.45227080012258L818.921875,29.67388393536982L834.9791666666667,28.14085550338014L851.0364583333333,27.6556640896928L867.09375,26.198344331991596" style="fill: none;" fill="none"></path></g></g></g></g><g opacity="0.2"><g><g><g><path stroke="rgb(0, 153, 136)" stroke-width="2px" d="M80.28645833333333,370.9828560551008L96.34375,341.15510284900665L112.40104166666667,346.74774805704754L128.45833333333334,320.5050478378932L144.515625,320.7918333510558L160.57291666666666,330.83007534344995L176.63020833333331,308.8894387086233L192.6875,315.1991881430149L208.74479166666669,315.77275916934013L224.80208333333334,307.45541751384735L240.859375,314.62552348772687L256.9166666666667,319.64469129840535L272.9739583333333,313.6217273771763L289.03125,324.5203259090583L305.08854166666663,326.0977866748969L321.1458333333333,331.54708594083786L337.203125,328.6790435512861L353.26041666666663,327.5318078696728L369.31770833333337,324.8071114222209L385.375,334.5585679014524L401.4322916666667,330.9734212855498L417.48958333333337,328.105378895998L433.546875,338.5738459726175L449.6041666666667,334.9886993567149L465.6614583333333,347.6081982254982L481.71875,337.85683537522954L497.77604166666674,340.8682237068812L513.8333333333334,335.41892444094026L529.890625,344.02314523855847L545.9479166666666,342.15889895955723L562.0052083333334,347.03453357021016L578.0625,337.5699562331041L594.1197916666667,347.03453357021016L610.1770833333333,343.1626950701078L626.234375,343.5929201543331L642.2916666666666,351.33669078350067L658.3489583333334,349.32900493343675L674.40625,358.7935822705428L690.4635416666666,347.4647586544355L706.5208333333333,344.5967162648837L722.578125,345.1702872912089L738.6354166666667,347.03453357021016L754.6927083333334,347.6081982254982L770.75,349.32900493343675L786.8072916666666,352.1970473229885L802.8645833333334,352.9140579203765L818.921875,345.45716643333435L834.9791666666667,352.34048689405125L851.0364583333333,352.1970473229885L867.09375,356.92933599154156" style="fill: none;" fill="none"></path></g><g><path stroke="rgb(238, 51, 119)" stroke-width="2px" d="M80.28645833333333,445.93021919329965L96.34375,359.2251181602478L112.40104166666667,328.63925124208134L128.45833333333334,307.41571883360547L144.515625,288.8903858760993L160.57291666666666,273.22616676489514L176.63020833333331,258.5943005979061L192.6875,245.44720252354944L208.74479166666669,231.46718119581544L224.80208333333334,218.7185679872831L240.859375,205.71640754739445L256.9166666666667,192.841020723184L272.9739583333333,181.23327642679214L289.03125,171.32770667473477L305.08854166666663,161.07814411322278L321.1458333333333,150.33955747882527L337.203125,141.41194224357605L353.26041666666663,131.9047637283802L369.31770833333337,122.6873668531577L385.375,114.06760364770889L401.4322916666667,106.98700696229935L417.48958333333337,99.67102706432343L433.546875,93.18806404868764L449.6041666666667,84.64076966047287L465.6614583333333,78.75534668564796L481.71875,73.41325258215267L497.77604166666674,71.45753080646199L513.8333333333334,65.28241982062656L529.890625,62.240133931239434L545.9479166666666,57.024719814459495L562.0052083333334,54.25405154625576L578.0625,51.21176565686863L594.1197916666667,50.28820956746738L610.1770833333333,45.61621795097988L626.234375,42.68254165848095L642.2916666666666,43.533628930648156L658.3489583333334,40.925968686739616L674.40625,39.4954117635886L690.4635416666666,37.73883879184723L706.5208333333333,33.75492642323177L722.578125,33.791067202885934L738.6354166666667,33.15729275345802L754.6927083333334,32.342346260945014L770.75,32.14319745699566L786.8072916666666,28.032511472702026L802.8645833333334,26.927876969178502L818.921875,30.006303638219833L834.9791666666667,25.8413128554821L851.0364583333333,26.927876969178502L867.09375,24.012364695469554" style="fill: none;" fill="none"></path></g></g></g></g></g></g><g transform="translate(51, 377)" clip-path="url(#clip_1)"><clipPath id="clip_1"><rect width="963" height="23"></rect></clipPath><g><g><line x1="0" y1="0" x2="0" y2="5" style="visibility: inherit;" fill="rgb(0, 0, 0)" stroke="rgb(204, 204, 204)" stroke-width="1px"></line><line x1="80.28645833333333" y1="0" x2="80.28645833333333" y2="5" style="visibility: inherit;" fill="rgb(0, 0, 0)" stroke="rgb(204, 204, 204)" stroke-width="1px"></line><line x1="160.57291666666666" y1="0" x2="160.57291666666666" y2="5" style="visibility: inherit;" fill="rgb(0, 0, 0)" stroke="rgb(204, 204, 204)" stroke-width="1px"></line><line x1="240.859375" y1="0" x2="240.859375" y2="5" style="visibility: inherit;" fill="rgb(0, 0, 0)" stroke="rgb(204, 204, 204)" stroke-width="1px"></line><line x1="321.1458333333333" y1="0" x2="321.1458333333333" y2="5" style="visibility: inherit;" fill="rgb(0, 0, 0)" stroke="rgb(204, 204, 204)" stroke-width="1px"></line><line x1="401.4322916666667" y1="0" x2="401.4322916666667" y2="5" style="visibility: inherit;" fill="rgb(0, 0, 0)" stroke="rgb(204, 204, 204)" stroke-width="1px"></line><line x1="481.71875" y1="0" x2="481.71875" y2="5" style="visibility: inherit;" fill="rgb(0, 0, 0)" stroke="rgb(204, 204, 204)" stroke-width="1px"></line><line x1="562.0052083333334" y1="0" x2="562.0052083333334" y2="5" style="visibility: inherit;" fill="rgb(0, 0, 0)" stroke="rgb(204, 204, 204)" stroke-width="1px"></line><line x1="642.2916666666666" y1="0" x2="642.2916666666666" y2="5" style="visibility: inherit;" fill="rgb(0, 0, 0)" stroke="rgb(204, 204, 204)" stroke-width="1px"></line><line x1="722.578125" y1="0" x2="722.578125" y2="5" style="visibility: inherit;" fill="rgb(0, 0, 0)" stroke="rgb(204, 204, 204)" stroke-width="1px"></line><line x1="802.8645833333334" y1="0" x2="802.8645833333334" y2="5" style="visibility: inherit;" fill="rgb(0, 0, 0)" stroke="rgb(204, 204, 204)" stroke-width="1px"></line><line x1="883.1510416666666" y1="0" x2="883.1510416666666" y2="5" style="visibility: inherit;" fill="rgb(0, 0, 0)" stroke="rgb(204, 204, 204)" stroke-width="1px"></line><line x1="963.4375" y1="0" x2="963.4375" y2="5" style="visibility: inherit;" fill="rgb(0, 0, 0)" stroke="rgb(204, 204, 204)" stroke-width="1px"></line></g><g transform="translate(0, 8)"><text x="0" y="0" dx="0em" dy="0.95em" style="text-anchor: middle; visibility: hidden; font-family: Roboto, sans-serif; font-size: 12px; font-weight: 200;" fill="rgb(33, 33, 33)" stroke="none" stroke-width="1px">-5</text><text x="80.28645833333333" y="0" dx="0em" dy="0.95em" style="text-anchor: middle; visibility: inherit; font-family: Roboto, sans-serif; font-size: 12px; font-weight: 200;" fill="rgb(33, 33, 33)" stroke="none" stroke-width="1px">0</text><text x="160.57291666666666" y="0" dx="0em" dy="0.95em" style="text-anchor: middle; visibility: inherit; font-family: Roboto, sans-serif; font-size: 12px; font-weight: 200;" fill="rgb(33, 33, 33)" stroke="none" stroke-width="1px">5</text><text x="240.859375" y="0" dx="0em" dy="0.95em" style="text-anchor: middle; visibility: inherit; font-family: Roboto, sans-serif; font-size: 12px; font-weight: 200;" fill="rgb(33, 33, 33)" stroke="none" stroke-width="1px">10</text><text x="321.1458333333333" y="0" dx="0em" dy="0.95em" style="text-anchor: middle; visibility: inherit; font-family: Roboto, sans-serif; font-size: 12px; font-weight: 200;" fill="rgb(33, 33, 33)" stroke="none" stroke-width="1px">15</text><text x="401.4322916666667" y="0" dx="0em" dy="0.95em" style="text-anchor: middle; visibility: inherit; font-family: Roboto, sans-serif; font-size: 12px; font-weight: 200;" fill="rgb(33, 33, 33)" stroke="none" stroke-width="1px">20</text><text x="481.71875" y="0" dx="0em" dy="0.95em" style="text-anchor: middle; visibility: inherit; font-family: Roboto, sans-serif; font-size: 12px; font-weight: 200;" fill="rgb(33, 33, 33)" stroke="none" stroke-width="1px">25</text><text x="562.0052083333334" y="0" dx="0em" dy="0.95em" style="text-anchor: middle; visibility: inherit; font-family: Roboto, sans-serif; font-size: 12px; font-weight: 200;" fill="rgb(33, 33, 33)" stroke="none" stroke-width="1px">30</text><text x="642.2916666666666" y="0" dx="0em" dy="0.95em" style="text-anchor: middle; visibility: inherit; font-family: Roboto, sans-serif; font-size: 12px; font-weight: 200;" fill="rgb(33, 33, 33)" stroke="none" stroke-width="1px">35</text><text x="722.578125" y="0" dx="0em" dy="0.95em" style="text-anchor: middle; visibility: inherit; font-family: Roboto, sans-serif; font-size: 12px; font-weight: 200;" fill="rgb(33, 33, 33)" stroke="none" stroke-width="1px">40</text><text x="802.8645833333334" y="0" dx="0em" dy="0.95em" style="text-anchor: middle; visibility: inherit; font-family: Roboto, sans-serif; font-size: 12px; font-weight: 200;" fill="rgb(33, 33, 33)" stroke="none" stroke-width="1px">45</text><text x="883.1510416666666" y="0" dx="0em" dy="0.95em" style="text-anchor: middle; visibility: inherit; font-family: Roboto, sans-serif; font-size: 12px; font-weight: 200;" fill="rgb(33, 33, 33)" stroke="none" stroke-width="1px">50</text><text x="963.4375" y="0" dx="0em" dy="0.95em" style="text-anchor: middle; visibility: hidden; font-family: Roboto, sans-serif; font-size: 12px; font-weight: 200;" fill="rgb(33, 33, 33)" stroke="none" stroke-width="1px">55</text></g><line x1="0" y1="0" x2="963.4375" y2="0" fill="rgb(0, 0, 0)" stroke="rgb(204, 204, 204)" stroke-width="1px"></line></g></g></g></g></svg>