<svg viewBox="0 0 1015 400" xmlns="http://www.w3.org/2000/svg"><g><g><g><g><g><line x1="51.5625" y1="377" x2="46.5625" y2="377" style="visibility: inherit;" fill="rgb(0, 0, 0)" stroke="rgb(204, 204, 204)" stroke-width="1px"></line><line x1="51.5625" y1="339.3" x2="46.5625" y2="339.3" style="visibility: inherit;" fill="rgb(0, 0, 0)" stroke="rgb(204, 204, 204)" stroke-width="1px"></line><line x1="51.5625" y1="301.6" x2="46.5625" y2="301.6" style="visibility: inherit;" fill="rgb(0, 0, 0)" stroke="rgb(204, 204, 204)" stroke-width="1px"></line><line x1="51.5625" y1="263.9" x2="46.5625" y2="263.9" style="visibility: inherit;" fill="rgb(0, 0, 0)" stroke="rgb(204, 204, 204)" stroke-width="1px"></line><line x1="51.5625" y1="226.2" x2="46.5625" y2="226.2" style="visibility: inherit;" fill="rgb(0, 0, 0)" stroke="rgb(204, 204, 204)" stroke-width="1px"></line><line x1="51.5625" y1="188.5" x2="46.5625" y2="188.5" style="visibility: inherit;" fill="rgb(0, 0, 0)" stroke="rgb(204, 204, 204)" stroke-width="1px"></line><line x1="51.5625" y1="150.8" x2="46.5625" y2="150.8" style="visibility: inherit;" fill="rgb(0, 0, 0)" stroke="rgb(204, 204, 204)" stroke-width="1px"></line><line x1="51.5625" y1="113.10000000000002" x2="46.5625" y2="113.10000000000002" style="visibility: inherit;" fill="rgb(0, 0, 0)" stroke="rgb(204, 204, 204)" stroke-width="1px"></line><line x1="51.5625" y1="75.40000000000002" x2="46.5625" y2="75.40000000000002" style="visibility: inherit;" fill="rgb(0, 0, 0)" stroke="rgb(204, 204, 204)" stroke-width="1px"></line><line x1="51.5625" y1="37.69999999999999" x2="46.5625" y2="37.69999999999999" style="visibility: inherit;" fill="rgb(0, 0, 0)" stroke="rgb(204, 204, 204)" stroke-width="1px"></line><line x1="51.5625" y1="0" x2="46.5625" y2="0" style="visibility: inherit;" fill="rgb(0, 0, 0)" stroke="rgb(204, 204, 204)" stroke-width="1px"></line></g><g transform="translate(41.5625, 0)"><text x="0" y="377" dx="0em" dy="0.3em" style="text-anchor: end; visibility: hidden; font-family: Roboto, sans-serif; font-size: 12px; font-weight: 200;" fill="rgb(33, 33, 33)" stroke="none" stroke-width="1px">-0.2</text><text x="0" y="339.3" dx="0em" dy="0.3em" style="text-anchor: end; visibility: inherit; font-family: Roboto, sans-serif; font-size: 12px; font-weight: 200;" fill="rgb(33, 33, 33)" stroke="none" stroke-width="1px">0</text><text x="0" y="301.6" dx="0em" dy="0.3em" style="text-anchor: end; visibility: inherit; font-family: Roboto, sans-serif; font-size: 12px; font-weight: 200;" fill="rgb(33, 33, 33)" stroke="none" stroke-width="1px">0.2</text><text x="0" y="263.9" dx="0em" dy="0.3em" style="text-anchor: end; visibility: inherit; font-family: Roboto, sans-serif; font-size: 12px; font-weight: 200;" fill="rgb(33, 33, 33)" stroke="none" stroke-width="1px">0.4</text><text x="0" y="226.2" dx="0em" dy="0.3em" style="text-anchor: end; visibility: inherit; font-family: Roboto, sans-serif; font-size: 12px; font-weight: 200;" fill="rgb(33, 33, 33)" stroke="none" stroke-width="1px">0.6</text><text x="0" y="188.5" dx="0em" dy="0.3em" style="text-anchor: end; visibility: inherit; font-family: Roboto, sans-serif; font-size: 12px; font-weight: 200;" fill="rgb(33, 33, 33)" stroke="none" stroke-width="1px">0.8</text><text x="0" y="150.8" dx="0em" dy="0.3em" style="text-anchor: end; visibility: inherit; font-family: Roboto, sans-serif; font-size: 12px; font-weight: 200;" fill="rgb(33, 33, 33)" stroke="none" stroke-width="1px">1</text><text x="0" y="113.10000000000002" dx="0em" dy="0.3em" style="text-anchor: end; visibility: inherit; font-family: Roboto, sans-serif; font-size: 12px; font-weight: 200;" fill="rgb(33, 33, 33)" stroke="none" stroke-width="1px">1.2</text><text x="0" y="75.40000000000002" dx="0em" dy="0.3em" style="text-anchor: end; visibility: inherit; font-family: Roboto, sans-serif; font-size: 12px; font-weight: 200;" fill="rgb(33, 33, 33)" stroke="none" stroke-width="1px">1.4</text><text x="0" y="37.69999999999999" dx="0em" dy="0.3em" style="text-anchor: end; visibility: inherit; font-family: Roboto, sans-serif; font-size: 12px; font-weight: 200;" fill="rgb(33, 33, 33)" stroke="none" stroke-width="1px">1.6</text><text x="0" y="0" dx="0em" dy="0.3em" style="text-anchor: end; visibility: hidden; font-family: Roboto, sans-serif; font-size: 12px; font-weight: 200;" fill="rgb(33, 33, 33)" stroke="none" stroke-width="1px">1.8</text></g><line x1="51.5625" y1="0" x2="51.5625" y2="377" fill="rgb(0, 0, 0)" stroke="rgb(204, 204, 204)" stroke-width="1px"></line></g></g><g transform="translate(51, 0)" clip-path="url(#clip_0)"><clipPath id="clip_0"><rect width="963" height="377"></rect></clipPath><g><g><g><line x1="0" y1="0" x2="0" y2="377" fill="rgb(0, 0, 0)" stroke="rgb(66, 66, 66)" stroke-width="1px" opacity="0.25"></line><line x1="80.28645833333333" y1="0" x2="80.28645833333333" y2="377" fill="rgb(0, 0, 0)" stroke="rgb(66, 66, 66)" stroke-width="1px" opacity="0.25"></line><line x1="160.57291666666666" y1="0" x2="160.57291666666666" y2="377" fill="rgb(0, 0, 0)" stroke="rgb(66, 66, 66)" stroke-width="1px" opacity="0.25"></line><line x1="240.859375" y1="0" x2="240.859375" y2="377" fill="rgb(0, 0, 0)" stroke="rgb(66, 66, 66)" stroke-width="1px" opacity="0.25"></line><line x1="321.1458333333333" y1="0" x2="321.1458333333333" y2="377" fill="rgb(0, 0, 0)" stroke="rgb(66, 66, 66)" stroke-width="1px" opacity="0.25"></line><line x1="401.4322916666667" y1="0" x2="401.4322916666667" y2="377" fill="rgb(0, 0, 0)" stroke="rgb(66, 66, 66)" stroke-width="1px" opacity="0.25"></line><line x1="481.71875" y1="0" x2="481.71875" y2="377" fill="rgb(0, 0, 0)" stroke="rgb(66, 66, 66)" stroke-width="1px" opacity="0.25"></line><line x1="562.0052083333334" y1="0" x2="562.0052083333334" y2="377" fill="rgb(0, 0, 0)" stroke="rgb(66, 66, 66)" stroke-width="1px" opacity="0.25"></line><line x1="642.2916666666666" y1="0" x2="642.2916666666666" y2="377" fill="rgb(0, 0, 0)" stroke="rgb(66, 66, 66)" stroke-width="1px" opacity="0.25"></line><line x1="722.578125" y1="0" x2="722.578125" y2="377" fill="rgb(0, 0, 0)" stroke="rgb(66, 66, 66)" stroke-width="1px" opacity="0.25"></line><line x1="802.8645833333334" y1="0" x2="802.8645833333334" y2="377" fill="rgb(0, 0, 0)" stroke="rgb(66, 66, 66)" stroke-width="1px" opacity="0.25"></line><line x1="883.1510416666666" y1="0" x2="883.1510416666666" y2="377" fill="rgb(0, 0, 0)" stroke="rgb(66, 66, 66)" stroke-width="1px" opacity="0.25"></line><line x1="963.4375" y1="0" x2="963.4375" y2="377" fill="rgb(0, 0, 0)" stroke="rgb(66, 66, 66)" stroke-width="1px" opacity="0.25"></line></g><g><line x1="0" y1="377" x2="963.4375" y2="377" fill="rgb(0, 0, 0)" stroke="rgb(66, 66, 66)" stroke-width="1px" opacity="0.25"></line><line x1="0" y1="339.3" x2="963.4375" y2="339.3" fill="rgb(0, 0, 0)" stroke="rgb(66, 66, 66)" stroke-width="1px" opacity="0.25"></line><line x1="0" y1="301.6" x2="963.4375" y2="301.6" fill="rgb(0, 0, 0)" stroke="rgb(66, 66, 66)" stroke-width="1px" opacity="0.25"></line><line x1="0" y1="263.9" x2="963.4375" y2="263.9" fill="rgb(0, 0, 0)" stroke="rgb(66, 66, 66)" stroke-width="1px" opacity="0.25"></line><line x1="0" y1="226.2" x2="963.4375" y2="226.2" fill="rgb(0, 0, 0)" stroke="rgb(66, 66, 66)" stroke-width="1px" opacity="0.25"></line><line x1="0" y1="188.5" x2="963.4375" y2="188.5" fill="rgb(0, 0, 0)" stroke="rgb(66, 66, 66)" stroke-width="1px" opacity="0.25"></line><line x1="0" y1="150.8" x2="963.4375" y2="150.8" fill="rgb(0, 0, 0)" stroke="rgb(66, 66, 66)" stroke-width="1px" opacity="0.25"></line><line x1="0" y1="113.10000000000002" x2="963.4375" y2="113.10000000000002" fill="rgb(0, 0, 0)" stroke="rgb(66, 66, 66)" stroke-width="1px" opacity="0.25"></line><line x1="0" y1="75.40000000000002" x2="963.4375" y2="75.40000000000002" fill="rgb(0, 0, 0)" stroke="rgb(66, 66, 66)" stroke-width="1px" opacity="0.25"></line><line x1="0" y1="37.69999999999999" x2="963.4375" y2="37.69999999999999" fill="rgb(0, 0, 0)" stroke="rgb(66, 66, 66)" stroke-width="1px" opacity="0.25"></line><line x1="0" y1="0" x2="963.4375" y2="0" fill="rgb(0, 0, 0)" stroke="rgb(66, 66, 66)" stroke-width="1px" opacity="0.25"></line></g></g></g><g><g><line x1="0" y1="339.3" x2="963.4375" y2="339.3" fill="rgb(0, 0, 0)" stroke="rgb(153, 153, 153)" stroke-width="1.5px"></line></g></g><g><g><line x1="80.28645833333333" y1="0" x2="80.28645833333333" y2="377" fill="rgb(0, 0, 0)" stroke="rgb(153, 153, 153)" stroke-width="1.5px"></line></g></g><g><g><g><g><g><path stroke="rgb(0, 153, 136)" stroke-width="2px" d="M80.28645833333333,250.1462993502617L96.34375,253.51859222277994L112.40104166666667,254.20514068487952L128.45833333333334,256.4329155463506L144.515625,257.7212857108721L160.57291666666666,257.3974268667964L176.63020833333331,258.8670618162074L192.6875,259.0978727583992L208.74479166666669,258.5522237350848L224.80208333333334,257.9262282839653L240.859375,256.3477113983678L256.9166666666667,252.96177400658735L272.9739583333333,250.98640885102418L289.03125,249.46749036429264L305.08854166666663,247.15198616981365L321.1458333333333,243.00680597475983L337.203125,239.31752108287705L353.26041666666663,236.55259601222298L369.31770833333337,230.4524362267101L385.375,224.74675706793818L401.4322916666667,218.30835461027496L417.48958333333337,211.0353423834365L433.546875,205.10906189677107L449.6041666666667,196.49418067120325L465.6614583333333,191.23485919109558L481.71875,181.85799819183578L497.77604166666674,175.79959972408597L513.8333333333334,166.78333479154236L529.890625,155.00997446416184L545.9479166666666,148.87740913737545L562.0052083333334,145.5015163170189L578.0625,138.45845982210085L594.1197916666667,130.6135176487379L610.1770833333333,122.41624751372886L626.234375,114.68904361484974L642.2916666666666,104.97297406044682L658.3489583333334,99.8783392295683L674.40625,96.6572237911688L690.4635416666666,88.86429227182755L706.5208333333333,83.12456080140016L722.578125,71.47245201142678L738.6354166666667,64.41576032222693L754.6927083333334,62.17267157717186L770.75,57.51707194535925L786.8072916666666,47.641506560544805L802.8645833333334,37.4892196409931L818.921875,35.7705327792139L834.9791666666667,28.24734604599105L851.0364583333333,26.818084379665827L867.09375,23.687410910481432" style="fill: none;" fill="none"></path></g><g><path stroke="rgb(238, 51, 119)" stroke-width="2px" d="M80.28645833333333,237.61366568803788L96.34375,246.8506591051817L112.40104166666667,252.70049256475605L128.45833333333334,257.2231179417933L144.515625,261.18213805671286L160.57291666666666,264.7701655821037L176.63020833333331,268.05029417517727L192.6875,271.2116578337567L208.74479166666669,274.29519840863105L224.80208333333334,277.214826210544L240.859375,280.0988241238427L256.9166666666667,282.9747642968509L272.9739583333333,285.8421732889409L289.03125,288.4626077491335L305.08854166666663,291.18423091691767L321.1458333333333,293.7961022100297L337.203125,296.2735472837095L353.26041666666663,298.7220430323231L369.31770833333337,301.1222601262978L385.375,303.52021113963343L401.4322916666667,305.61894902495425L417.48958333333337,307.73894025426813L433.546875,309.60506613111755L449.6041666666667,311.554480519767L465.6614583333333,313.29713917882896L481.71875,315.048412402011L497.77604166666674,316.30878704086933L513.8333333333334,317.68687528954473L529.890625,318.83429334739554L545.9479166666666,320.09867844746003L562.0052083333334,321.07646854356085L578.0625,322.11443003531963L594.1197916666667,322.83367130445737L610.1770833333333,323.78363269748473L626.234375,324.577387047836L642.2916666666666,325.0645419931167L658.3489583333334,325.6516965318749L674.40625,326.04899800621155L690.4635416666666,326.6366875780961L706.5208333333333,327.44595907860935L722.578125,327.8556794285123L738.6354166666667,328.12724958473666L754.6927083333334,328.34850098758903L770.75,328.52452807217884L786.8072916666666,329.14153541878346L802.8645833333334,329.6046515916904L818.921875,329.5140943227746L834.9791666666667,329.94438197500705L851.0364583333333,330.0976444370302L867.09375,330.54358512129267" style="fill: none;" fill="none"></path></g></g></g></g><g opacity="0.2"><g><g><g><path stroke="rgb(0, 153, 136)" stroke-width="2px" d="M80.28645833333333,250.1462993502617L96.34375,255.54196794629098L112.40104166666667,254.86422720849515L128.45833333333334,259.0527787834406L144.515625,259.40338179767133L160.57291666666666,256.9494134962559L176.63020833333331,260.9686633080244L192.6875,259.43439732789994L208.74479166666669,257.7474974125624L224.80208333333334,256.99669799506665L240.859375,253.99425310194493L256.9166666666667,247.90129404067994L272.9739583333333,248.02981102764608L289.03125,247.1920883536339L305.08854166666663,243.68145166635514L321.1458333333333,236.7919591844082L337.203125,233.7851549267769L353.26041666666663,232.4059104204178L369.31770833333337,221.30312584638597L385.375,216.1887598514557L401.4322916666667,208.6511040210724L417.48958333333337,200.1260633647442L433.546875,196.21975817084314L449.6041666666667,183.57196088433267L465.6614583333333,183.34591435194017L481.71875,167.79274668097497L497.77604166666674,166.7120175242424L513.8333333333334,153.25895123481752L529.890625,137.34994481801988L545.9479166666666,139.6785645365715L562.0052083333334,140.43767820596696L578.0625,127.89387648105622L594.1197916666667,118.84610532522203L610.1770833333333,110.12034289836885L626.234375,103.09823809862138L642.2916666666666,90.39886997938157L658.3489583333334,92.23638706207277L674.40625,91.82555066347123L690.4635416666666,77.17489503622056L706.5208333333333,74.51496361494065L722.578125,53.99428884983064L738.6354166666667,53.83072279691697L754.6927083333334,58.808038461208355L770.75,50.53367249965669L786.8072916666666,32.828158485889446L802.8645833333334,22.26078926324845L818.921875,33.19250248670579L834.9791666666667,16.962565946578987L851.0364583333333,24.674191880226143L867.09375,18.991400706768044" style="fill: none;" fill="none"></path></g><g><path stroke="rgb(238, 51, 119)" stroke-width="2px" d="M80.28645833333333,237.61366568803788L96.34375,252.392855155468L112.40104166666667,258.31633268594743L128.45833333333334,262.54172538518907L144.515625,266.3510347187519L160.57291666666666,269.73369933962823L176.63020833333331,272.74093054533006L192.6875,275.8209563970566L208.74479166666669,278.8428218096495L224.80208333333334,281.55013323128225L240.859375,284.3986633449793L256.9166666666667,287.2730238169432L272.9739583333333,290.13392418920995L289.03125,292.3881257355213L305.08854166666663,295.2634665027261L321.1458333333333,297.7120670557022L337.203125,299.9886665225029L353.26041666666663,302.3941649824381L369.31770833333337,304.72222011834384L385.375,307.11691847741605L401.4322916666667,308.7669407531619L417.48958333333337,310.91885733902456L433.546875,312.4042181029916L449.6041666666667,314.4785790100694L465.6614583333333,315.9111147813499L481.71875,317.6753147684038L497.77604166666674,318.19934577420355L513.8333333333334,319.75400554686786L529.890625,320.55541937723757L545.9479166666666,321.9952553987503L562.0052083333334,322.5431533634663L578.0625,323.6713720664382L594.1197916666667,323.9125331223011L610.1770833333333,325.208574718982L626.234375,325.7680185392499L642.2916666666666,325.7952743984759L658.3489583333334,326.5324283309281L674.40625,326.64495021402837L690.4635416666666,327.5182219326496L706.5208333333333,328.65986632667483L722.578125,328.4702599525452L738.6354166666667,328.53460481874646L754.6927083333334,328.68037809170784L770.75,328.7885686989874L786.8072916666666,330.0670464385301L802.8645833333334,330.2993258509785L818.921875,329.3782584194094L834.9791666666667,330.5898134533316L851.0364583333333,330.32753813005985L867.09375,331.2124961476773" style="fill: none;" fill="none"></path></g></g></g></g></g></g><g transform="translate(51, 377)" clip-path="url(#clip_1)"><clipPath id="clip_1"><rect width="963" height="23"></rect></clipPath><g><g><line x1="0" y1="0" x2="0" y2="5" style="visibility: inherit;" fill="rgb(0, 0, 0)" stroke="rgb(204, 204, 204)" stroke-width="1px"></line><line x1="80.28645833333333" y1="0" x2="80.28645833333333" y2="5" style="visibility: inherit;" fill="rgb(0, 0, 0)" stroke="rgb(204, 204, 204)" stroke-width="1px"></line><line x1="160.57291666666666" y1="0" x2="160.57291666666666" y2="5" style="visibility: inherit;" fill="rgb(0, 0, 0)" stroke="rgb(204, 204, 204)" stroke-width="1px"></line><line x1="240.859375" y1="0" x2="240.859375" y2="5" style="visibility: inherit;" fill="rgb(0, 0, 0)" stroke="rgb(204, 204, 204)" stroke-width="1px"></line><line x1="321.1458333333333" y1="0" x2="321.1458333333333" y2="5" style="visibility: inherit;" fill="rgb(0, 0, 0)" stroke="rgb(204, 204, 204)" stroke-width="1px"></line><line x1="401.4322916666667" y1="0" x2="401.4322916666667" y2="5" style="visibility: inherit;" fill="rgb(0, 0, 0)" stroke="rgb(204, 204, 204)" stroke-width="1px"></line><line x1="481.71875" y1="0" x2="481.71875" y2="5" style="visibility: inherit;" fill="rgb(0, 0, 0)" stroke="rgb(204, 204, 204)" stroke-width="1px"></line><line x1="562.0052083333334" y1="0" x2="562.0052083333334" y2="5" style="visibility: inherit;" fill="rgb(0, 0, 0)" stroke="rgb(204, 204, 204)" stroke-width="1px"></line><line x1="642.2916666666666" y1="0" x2="642.2916666666666" y2="5" style="visibility: inherit;" fill="rgb(0, 0, 0)" stroke="rgb(204, 204, 204)" stroke-width="1px"></line><line x1="722.578125" y1="0" x2="722.578125" y2="5" style="visibility: inherit;" fill="rgb(0, 0, 0)" stroke="rgb(204, 204, 204)" stroke-width="1px"></line><line x1="802.8645833333334" y1="0" x2="802.8645833333334" y2="5" style="visibility: inherit;" fill="rgb(0, 0, 0)" stroke="rgb(204, 204, 204)" stroke-width="1px"></line><line x1="883.1510416666666" y1="0" x2="883.1510416666666" y2="5" style="visibility: inherit;" fill="rgb(0, 0, 0)" stroke="rgb(204, 204, 204)" stroke-width="1px"></line><line x1="963.4375" y1="0" x2="963.4375" y2="5" style="visibility: inherit;" fill="rgb(0, 0, 0)" stroke="rgb(204, 204, 204)" stroke-width="1px"></line></g><g transform="translate(0, 8)"><text x="0" y="0" dx="0em" dy="0.95em" style="text-anchor: middle; visibility: hidden; font-family: Roboto, sans-serif; font-size: 12px; font-weight: 200;" fill="rgb(33, 33, 33)" stroke="none" stroke-width="1px">-5</text><text x="80.28645833333333" y="0" dx="0em" dy="0.95em" style="text-anchor: middle; visibility: inherit; font-family: Roboto, sans-serif; font-size: 12px; font-weight: 200;" fill="rgb(33, 33, 33)" stroke="none" stroke-width="1px">0</text><text x="160.57291666666666" y="0" dx="0em" dy="0.95em" style="text-anchor: middle; visibility: inherit; font-family: Roboto, sans-serif; font-size: 12px; font-weight: 200;" fill="rgb(33, 33, 33)" stroke="none" stroke-width="1px">5</text><text x="240.859375" y="0" dx="0em" dy="0.95em" style="text-anchor: middle; visibility: inherit; font-family: Roboto, sans-serif; font-size: 12px; font-weight: 200;" fill="rgb(33, 33, 33)" stroke="none" stroke-width="1px">10</text><text x="321.1458333333333" y="0" dx="0em" dy="0.95em" style="text-anchor: middle; visibility: inherit; font-family: Roboto, sans-serif; font-size: 12px; font-weight: 200;" fill="rgb(33, 33, 33)" stroke="none" stroke-width="1px">15</text><text x="401.4322916666667" y="0" dx="0em" dy="0.95em" style="text-anchor: middle; visibility: inherit; font-family: Roboto, sans-serif; font-size: 12px; font-weight: 200;" fill="rgb(33, 33, 33)" stroke="none" stroke-width="1px">20</text><text x="481.71875" y="0" dx="0em" dy="0.95em" style="text-anchor: middle; visibility: inherit; font-family: Roboto, sans-serif; font-size: 12px; font-weight: 200;" fill="rgb(33, 33, 33)" stroke="none" stroke-width="1px">25</text><text x="562.0052083333334" y="0" dx="0em" dy="0.95em" style="text-anchor: middle; visibility: inherit; font-family: Roboto, sans-serif; font-size: 12px; font-weight: 200;" fill="rgb(33, 33, 33)" stroke="none" stroke-width="1px">30</text><text x="642.2916666666666" y="0" dx="0em" dy="0.95em" style="text-anchor: middle; visibility: inherit; font-family: Roboto, sans-serif; font-size: 12px; font-weight: 200;" fill="rgb(33, 33, 33)" stroke="none" stroke-width="1px">35</text><text x="722.578125" y="0" dx="0em" dy="0.95em" style="text-anchor: middle; visibility: inherit; font-family: Roboto, sans-serif; font-size: 12px; font-weight: 200;" fill="rgb(33, 33, 33)" stroke="none" stroke-width="1px">40</text><text x="802.8645833333334" y="0" dx="0em" dy="0.95em" style="text-anchor: middle; visibility: inherit; font-family: Roboto, sans-serif; font-size: 12px; font-weight: 200;" fill="rgb(33, 33, 33)" stroke="none" stroke-width="1px">45</text><text x="883.1510416666666" y="0" dx="0em" dy="0.95em" style="text-anchor: middle; visibility: inherit; font-family: Roboto, sans-serif; font-size: 12px; font-weight: 200;" fill="rgb(33, 33, 33)" stroke="none" stroke-width="1px">50</text><text x="963.4375" y="0" dx="0em" dy="0.95em" style="text-anchor: middle; visibility: hidden; font-family: Roboto, sans-serif; font-size: 12px; font-weight: 200;" fill="rgb(33, 33, 33)" stroke="none" stroke-width="1px">55</text></g><line x1="0" y1="0" x2="963.4375" y2="0" fill="rgb(0, 0, 0)" stroke="rgb(204, 204, 204)" stroke-width="1px"></line></g></g></g></g></svg>