<svg viewBox="0 0 1015 400" xmlns="http://www.w3.org/2000/svg"><g><g><g><g><g><line x1="51.5625" y1="377" x2="46.5625" y2="377" style="visibility: inherit;" fill="rgb(0, 0, 0)" stroke="rgb(204, 204, 204)" stroke-width="1px"></line><line x1="51.5625" y1="350.07142857142856" x2="46.5625" y2="350.07142857142856" style="visibility: inherit;" fill="rgb(0, 0, 0)" stroke="rgb(204, 204, 204)" stroke-width="1px"></line><line x1="51.5625" y1="323.1428571428571" x2="46.5625" y2="323.1428571428571" style="visibility: inherit;" fill="rgb(0, 0, 0)" stroke="rgb(204, 204, 204)" stroke-width="1px"></line><line x1="51.5625" y1="296.2142857142856" x2="46.5625" y2="296.2142857142856" style="visibility: inherit;" fill="rgb(0, 0, 0)" stroke="rgb(204, 204, 204)" stroke-width="1px"></line><line x1="51.5625" y1="269.28571428571433" x2="46.5625" y2="269.28571428571433" style="visibility: inherit;" fill="rgb(0, 0, 0)" stroke="rgb(204, 204, 204)" stroke-width="1px"></line><line x1="51.5625" y1="242.35714285714283" x2="46.5625" y2="242.35714285714283" style="visibility: inherit;" fill="rgb(0, 0, 0)" stroke="rgb(204, 204, 204)" stroke-width="1px"></line><line x1="51.5625" y1="215.42857142857142" x2="46.5625" y2="215.42857142857142" style="visibility: inherit;" fill="rgb(0, 0, 0)" stroke="rgb(204, 204, 204)" stroke-width="1px"></line><line x1="51.5625" y1="188.49999999999997" x2="46.5625" y2="188.49999999999997" style="visibility: inherit;" fill="rgb(0, 0, 0)" stroke="rgb(204, 204, 204)" stroke-width="1px"></line><line x1="51.5625" y1="161.5714285714285" x2="46.5625" y2="161.5714285714285" style="visibility: inherit;" fill="rgb(0, 0, 0)" stroke="rgb(204, 204, 204)" stroke-width="1px"></line><line x1="51.5625" y1="134.64285714285717" x2="46.5625" y2="134.64285714285717" style="visibility: inherit;" fill="rgb(0, 0, 0)" stroke="rgb(204, 204, 204)" stroke-width="1px"></line><line x1="51.5625" y1="107.71428571428571" x2="46.5625" y2="107.71428571428571" style="visibility: inherit;" fill="rgb(0, 0, 0)" stroke="rgb(204, 204, 204)" stroke-width="1px"></line><line x1="51.5625" y1="80.78571428571425" x2="46.5625" y2="80.78571428571425" style="visibility: inherit;" fill="rgb(0, 0, 0)" stroke="rgb(204, 204, 204)" stroke-width="1px"></line><line x1="51.5625" y1="53.85714285714279" x2="46.5625" y2="53.85714285714279" style="visibility: inherit;" fill="rgb(0, 0, 0)" stroke="rgb(204, 204, 204)" stroke-width="1px"></line><line x1="51.5625" y1="26.92857142857133" x2="46.5625" y2="26.92857142857133" style="visibility: inherit;" fill="rgb(0, 0, 0)" stroke="rgb(204, 204, 204)" stroke-width="1px"></line><line x1="51.5625" y1="0" x2="46.5625" y2="0" style="visibility: inherit;" fill="rgb(0, 0, 0)" stroke="rgb(204, 204, 204)" stroke-width="1px"></line></g><g transform="translate(41.5625, 0)"><text x="0" y="377" dx="0em" dy="0.3em" style="text-anchor: end; visibility: hidden; font-family: Roboto, sans-serif; font-size: 12px; font-weight: 200;" fill="rgb(33, 33, 33)" stroke="none" stroke-width="1px">1.2</text><text x="0" y="350.07142857142856" dx="0em" dy="0.3em" style="text-anchor: end; visibility: inherit; font-family: Roboto, sans-serif; font-size: 12px; font-weight: 200;" fill="rgb(33, 33, 33)" stroke="none" stroke-width="1px">1.25</text><text x="0" y="323.1428571428571" dx="0em" dy="0.3em" style="text-anchor: end; visibility: inherit; font-family: Roboto, sans-serif; font-size: 12px; font-weight: 200;" fill="rgb(33, 33, 33)" stroke="none" stroke-width="1px">1.3</text><text x="0" y="296.2142857142856" dx="0em" dy="0.3em" style="text-anchor: end; visibility: inherit; font-family: Roboto, sans-serif; font-size: 12px; font-weight: 200;" fill="rgb(33, 33, 33)" stroke="none" stroke-width="1px">1.35</text><text x="0" y="269.28571428571433" dx="0em" dy="0.3em" style="text-anchor: end; visibility: inherit; font-family: Roboto, sans-serif; font-size: 12px; font-weight: 200;" fill="rgb(33, 33, 33)" stroke="none" stroke-width="1px">1.4</text><text x="0" y="242.35714285714283" dx="0em" dy="0.3em" style="text-anchor: end; visibility: inherit; font-family: Roboto, sans-serif; font-size: 12px; font-weight: 200;" fill="rgb(33, 33, 33)" stroke="none" stroke-width="1px">1.45</text><text x="0" y="215.42857142857142" dx="0em" dy="0.3em" style="text-anchor: end; visibility: inherit; font-family: Roboto, sans-serif; font-size: 12px; font-weight: 200;" fill="rgb(33, 33, 33)" stroke="none" stroke-width="1px">1.5</text><text x="0" y="188.49999999999997" dx="0em" dy="0.3em" style="text-anchor: end; visibility: inherit; font-family: Roboto, sans-serif; font-size: 12px; font-weight: 200;" fill="rgb(33, 33, 33)" stroke="none" stroke-width="1px">1.55</text><text x="0" y="161.5714285714285" dx="0em" dy="0.3em" style="text-anchor: end; visibility: inherit; font-family: Roboto, sans-serif; font-size: 12px; font-weight: 200;" fill="rgb(33, 33, 33)" stroke="none" stroke-width="1px">1.6</text><text x="0" y="134.64285714285717" dx="0em" dy="0.3em" style="text-anchor: end; visibility: inherit; font-family: Roboto, sans-serif; font-size: 12px; font-weight: 200;" fill="rgb(33, 33, 33)" stroke="none" stroke-width="1px">1.65</text><text x="0" y="107.71428571428571" dx="0em" dy="0.3em" style="text-anchor: end; visibility: inherit; font-family: Roboto, sans-serif; font-size: 12px; font-weight: 200;" fill="rgb(33, 33, 33)" stroke="none" stroke-width="1px">1.7</text><text x="0" y="80.78571428571425" dx="0em" dy="0.3em" style="text-anchor: end; visibility: inherit; font-family: Roboto, sans-serif; font-size: 12px; font-weight: 200;" fill="rgb(33, 33, 33)" stroke="none" stroke-width="1px">1.75</text><text x="0" y="53.85714285714279" dx="0em" dy="0.3em" style="text-anchor: end; visibility: inherit; font-family: Roboto, sans-serif; font-size: 12px; font-weight: 200;" fill="rgb(33, 33, 33)" stroke="none" stroke-width="1px">1.8</text><text x="0" y="26.92857142857133" dx="0em" dy="0.3em" style="text-anchor: end; visibility: inherit; font-family: Roboto, sans-serif; font-size: 12px; font-weight: 200;" fill="rgb(33, 33, 33)" stroke="none" stroke-width="1px">1.85</text><text x="0" y="0" dx="0em" dy="0.3em" style="text-anchor: end; visibility: hidden; font-family: Roboto, sans-serif; font-size: 12px; font-weight: 200;" fill="rgb(33, 33, 33)" stroke="none" stroke-width="1px">1.9</text></g><line x1="51.5625" y1="0" x2="51.5625" y2="377" fill="rgb(0, 0, 0)" stroke="rgb(204, 204, 204)" stroke-width="1px"></line></g></g><g transform="translate(51, 0)" clip-path="url(#clip_0)"><clipPath id="clip_0"><rect width="963" height="377"></rect></clipPath><g><g><g><line x1="0" y1="0" x2="0" y2="377" fill="rgb(0, 0, 0)" stroke="rgb(66, 66, 66)" stroke-width="1px" opacity="0.25"></line><line x1="80.28645833333333" y1="0" x2="80.28645833333333" y2="377" fill="rgb(0, 0, 0)" stroke="rgb(66, 66, 66)" stroke-width="1px" opacity="0.25"></line><line x1="160.57291666666666" y1="0" x2="160.57291666666666" y2="377" fill="rgb(0, 0, 0)" stroke="rgb(66, 66, 66)" stroke-width="1px" opacity="0.25"></line><line x1="240.859375" y1="0" x2="240.859375" y2="377" fill="rgb(0, 0, 0)" stroke="rgb(66, 66, 66)" stroke-width="1px" opacity="0.25"></line><line x1="321.1458333333333" y1="0" x2="321.1458333333333" y2="377" fill="rgb(0, 0, 0)" stroke="rgb(66, 66, 66)" stroke-width="1px" opacity="0.25"></line><line x1="401.4322916666667" y1="0" x2="401.4322916666667" y2="377" fill="rgb(0, 0, 0)" stroke="rgb(66, 66, 66)" stroke-width="1px" opacity="0.25"></line><line x1="481.71875" y1="0" x2="481.71875" y2="377" fill="rgb(0, 0, 0)" stroke="rgb(66, 66, 66)" stroke-width="1px" opacity="0.25"></line><line x1="562.0052083333334" y1="0" x2="562.0052083333334" y2="377" fill="rgb(0, 0, 0)" stroke="rgb(66, 66, 66)" stroke-width="1px" opacity="0.25"></line><line x1="642.2916666666666" y1="0" x2="642.2916666666666" y2="377" fill="rgb(0, 0, 0)" stroke="rgb(66, 66, 66)" stroke-width="1px" opacity="0.25"></line><line x1="722.578125" y1="0" x2="722.578125" y2="377" fill="rgb(0, 0, 0)" stroke="rgb(66, 66, 66)" stroke-width="1px" opacity="0.25"></line><line x1="802.8645833333334" y1="0" x2="802.8645833333334" y2="377" fill="rgb(0, 0, 0)" stroke="rgb(66, 66, 66)" stroke-width="1px" opacity="0.25"></line><line x1="883.1510416666666" y1="0" x2="883.1510416666666" y2="377" fill="rgb(0, 0, 0)" stroke="rgb(66, 66, 66)" stroke-width="1px" opacity="0.25"></line><line x1="963.4375" y1="0" x2="963.4375" y2="377" fill="rgb(0, 0, 0)" stroke="rgb(66, 66, 66)" stroke-width="1px" opacity="0.25"></line></g><g><line x1="0" y1="377" x2="963.4375" y2="377" fill="rgb(0, 0, 0)" stroke="rgb(66, 66, 66)" stroke-width="1px" opacity="0.25"></line><line x1="0" y1="350.07142857142856" x2="963.4375" y2="350.07142857142856" fill="rgb(0, 0, 0)" stroke="rgb(66, 66, 66)" stroke-width="1px" opacity="0.25"></line><line x1="0" y1="323.1428571428571" x2="963.4375" y2="323.1428571428571" fill="rgb(0, 0, 0)" stroke="rgb(66, 66, 66)" stroke-width="1px" opacity="0.25"></line><line x1="0" y1="296.2142857142856" x2="963.4375" y2="296.2142857142856" fill="rgb(0, 0, 0)" stroke="rgb(66, 66, 66)" stroke-width="1px" opacity="0.25"></line><line x1="0" y1="269.28571428571433" x2="963.4375" y2="269.28571428571433" fill="rgb(0, 0, 0)" stroke="rgb(66, 66, 66)" stroke-width="1px" opacity="0.25"></line><line x1="0" y1="242.35714285714283" x2="963.4375" y2="242.35714285714283" fill="rgb(0, 0, 0)" stroke="rgb(66, 66, 66)" stroke-width="1px" opacity="0.25"></line><line x1="0" y1="215.42857142857142" x2="963.4375" y2="215.42857142857142" fill="rgb(0, 0, 0)" stroke="rgb(66, 66, 66)" stroke-width="1px" opacity="0.25"></line><line x1="0" y1="188.49999999999997" x2="963.4375" y2="188.49999999999997" fill="rgb(0, 0, 0)" stroke="rgb(66, 66, 66)" stroke-width="1px" opacity="0.25"></line><line x1="0" y1="161.5714285714285" x2="963.4375" y2="161.5714285714285" fill="rgb(0, 0, 0)" stroke="rgb(66, 66, 66)" stroke-width="1px" opacity="0.25"></line><line x1="0" y1="134.64285714285717" x2="963.4375" y2="134.64285714285717" fill="rgb(0, 0, 0)" stroke="rgb(66, 66, 66)" stroke-width="1px" opacity="0.25"></line><line x1="0" y1="107.71428571428571" x2="963.4375" y2="107.71428571428571" fill="rgb(0, 0, 0)" stroke="rgb(66, 66, 66)" stroke-width="1px" opacity="0.25"></line><line x1="0" y1="80.78571428571425" x2="963.4375" y2="80.78571428571425" fill="rgb(0, 0, 0)" stroke="rgb(66, 66, 66)" stroke-width="1px" opacity="0.25"></line><line x1="0" y1="53.85714285714279" x2="963.4375" y2="53.85714285714279" fill="rgb(0, 0, 0)" stroke="rgb(66, 66, 66)" stroke-width="1px" opacity="0.25"></line><line x1="0" y1="26.92857142857133" x2="963.4375" y2="26.92857142857133" fill="rgb(0, 0, 0)" stroke="rgb(66, 66, 66)" stroke-width="1px" opacity="0.25"></line><line x1="0" y1="0" x2="963.4375" y2="0" fill="rgb(0, 0, 0)" stroke="rgb(66, 66, 66)" stroke-width="1px" opacity="0.25"></line></g></g></g><g><g><line x1="0" y1="1023.2857142857143" x2="963.4375" y2="1023.2857142857143" fill="rgb(0, 0, 0)" stroke="rgb(153, 153, 153)" stroke-width="1.5px"></line></g></g><g><g><line x1="80.28645833333333" y1="0" x2="80.28645833333333" y2="377" fill="rgb(0, 0, 0)" stroke="rgb(153, 153, 153)" stroke-width="1.5px"></line></g></g><g><g><g><g><g><path stroke="rgb(204, 51, 17)" stroke-width="2px" d="M80.28645833333333,80.42136386462617L88.31510416666666,102.65015032035949L96.34375,120.69857828679646L104.37239583333334,131.25250811762172L112.40104166666667,141.56008897579807L120.4296875,148.74644005339775L128.45833333333334,141.05340726367336L136.48697916666666,152.757078655344L144.515625,161.88631021934887L152.54427083333331,168.36257047387147L160.57291666666666,171.5275942770365L168.6015625,172.37089391081145L176.63020833333331,173.13873270047904L184.65885416666669,175.02845012741815L192.6875,176.80497192534833L200.71614583333334,175.42058230181823L208.74479166666669,175.97520852938197L216.7734375,175.51003449601703L224.80208333333334,176.74664770066138L232.83072916666666,178.40569822276728L240.859375,174.89488462156174L248.88802083333337,175.92573998953344L256.9166666666667,177.8669593557236L264.9453125,177.99133540208112L272.9739583333333,170.58904501696773L281.0026041666667,173.43139224089475L289.03125,172.2637742914414L297.05989583333337,173.84050175135854L305.08854166666663,171.26170440078528L313.1171875,171.9209717581025L321.1458333333333,163.91396180692482L329.1744791666667,166.99839638949703L337.203125,165.53257557389165L345.2317708333333,163.88896804635436L353.26041666666663,163.95033511462546L361.2890625,161.1883277460013L369.31770833333337,159.95560603186553L377.3463541666667,158.7054329978259L385.375,158.08845993541303L393.4036458333333,155.18316759729151L401.4322916666667,150.16231506698222L409.4609375,149.3594556356979L417.48958333333337,141.24447345787632L425.51822916666663,141.14659353014437L433.546875,138.67512745441255L441.5755208333333,134.09125655986L449.6041666666667,130.45642602658276L457.6328125,129.13250557820885L465.6614583333333,123.51170119012873L473.69010416666663,127.20069567356225L481.71875,125.47700196670316L489.7473958333333,128.73473739894703L497.77604166666674,124.85276098413053L505.8046875,126.79469943007571L513.8333333333334,125.57719693160413L521.8619791666666,116.5312365217126L529.890625,113.01071211152194L537.9192708333334,111.30346524985363L545.9479166666666,109.03481710800243L553.9765625,105.87885409929136L562.0052083333334,103.63375357590779L570.0338541666666,101.86511253852386L578.0625,103.22244427950997L586.0911458333333,92.83141465567068L594.1197916666667,88.0366327022464L602.1484375,94.16095882470827L610.1770833333333,96.67672113070147L618.2057291666667,95.32040034057825L626.234375,88.53739874044061L634.2630208333334,83.99198405006341L642.2916666666666,80.85712502378355L650.3203125,77.44708064781504L658.3489583333334,64.3778326657057L666.3776041666666,61.87902856747161L674.40625,56.659866345064145L682.4348958333334,58.83829327353023L690.4635416666666,56.378216467156705L698.4921875,61.37942845250743L706.5208333333333,52.653015693919066L714.5494791666667,51.66040267316553L722.578125,56.04881476706796L730.6067708333333,50.08717265420779L738.6354166666667,35.06012068378531L746.6640625,35.294165658365976L754.6927083333334,30.717875808637398L762.7213541666666,21.891154363421553L770.75,21.65380768458129L778.7786458333334,10.093177522387304L786.8072916666666,16.554494080898106L794.8359375,12.439637930537826L802.8645833333334,17.627386227626246L810.8932291666666,12.694664286515655L818.921875,14.188465452925781L826.9505208333333,16.76405810944982L834.9791666666667,13.830246923165035L843.0078125,4.1190700109154585L851.0364583333333,10.168479798754944L859.0651041666667,3.969485755447594L867.09375,-11.334828760812313" style="fill: none;" fill="none"></path></g><g><path stroke="rgb(0, 119, 187)" stroke-width="2px" d="M80.28645833333333,43.28355881146017L88.31510416666666,77.34759456770755L96.34375,100.86039851983858L104.37239583333334,118.51545092613762L112.40104166666667,132.4352737148134L120.4296875,143.6292050659098L128.45833333333334,153.75020427299597L136.48697916666666,162.54752420815865L144.515625,170.52473378765552L152.54427083333331,177.072274306139L160.57291666666666,183.69912470606616L168.6015625,189.5776410535L176.63020833333331,194.67005705162128L184.65885416666669,199.27820130178068L192.6875,203.60916366224902L200.71614583333334,207.65484846373604L208.74479166666669,212.22063745022785L216.7734375,216.36487388636755L224.80208333333334,220.1705926067572L232.83072916666666,223.6458039194329L240.859375,227.03848197699693L248.88802083333337,230.31198858826258L256.9166666666667,233.32627564299628L264.9453125,236.33370850350158L272.9739583333333,239.10618474312423L281.0026041666667,242.22994589932435L289.03125,245.17332960777486L297.05989583333337,247.20187013682732L305.08854166666663,250.1288410560658L313.1171875,252.3346731681882L321.1458333333333,255.1953394676767L329.1744791666667,257.682993469153L337.203125,259.4977293133996L345.2317708333333,262.251655446702L353.26041666666663,263.9557584672771L361.2890625,266.21304397737583L369.31770833333337,268.06231549818995L377.3463541666667,270.5329503356148L385.375,272.5131591038127L393.4036458333333,275.04201687004337L401.4322916666667,276.9435462697696L409.4609375,279.0276018272828L417.48958333333337,281.2055076165776L425.51822916666663,283.1615716922816L433.546875,284.8220978650028L441.5755208333333,286.97249593499544L449.6041666666667,288.64795108115374L457.6328125,290.57342887638345L465.6614583333333,292.3094933348518L473.69010416666663,293.2353103077771L481.71875,295.38094771432674L489.7473958333333,297.1047288687744L497.77604166666674,298.63279350129477L505.8046875,300.1341595008509L513.8333333333334,301.4649832204567L521.8619791666666,302.3832540417495L529.890625,303.70685771647123L537.9192708333334,305.7842267928816L545.9479166666666,307.05353008719936L553.9765625,308.54725417161734L562.0052083333334,310.3426862006981L570.0338541666666,311.846354185847L578.0625,313.1202116672611L586.0911458333333,313.9460066782653L594.1197916666667,314.88653692169316L602.1484375,316.2615042583799L610.1770833333333,317.7678552593212L618.2057291666667,319.26217677319L626.234375,320.621671273766L634.2630208333334,322.02818706045883L642.2916666666666,323.2744164406167L650.3203125,324.0137820343658L658.3489583333334,325.3788131092564L666.3776041666666,326.68495061143835L674.40625,327.28532151410593L682.4348958333334,328.54440778000634L690.4635416666666,328.97468561659906L698.4921875,330.30460112019495L706.5208333333333,332.02509210881914L714.5494791666667,333.7610484843947L722.578125,334.8181080051702L730.6067708333333,336.0508671300674L738.6354166666667,336.92742847953053L746.6640625,338.2558735752758L754.6927083333334,338.54424966243846L762.7213541666666,340.17783577278306L770.75,340.7988374380089L778.7786458333334,341.7989044345679L786.8072916666666,342.83886165193854L794.8359375,343.91438653418425L802.8645833333334,345.307868569615L810.8932291666666,346.2423933971488L818.921875,346.2143436942777L826.9505208333333,346.82793319497756L834.9791666666667,348.1575611096789L843.0078125,347.97503940748476L851.0364583333333,349.0695327855954L859.0651041666667,349.82266129395504L867.09375,351.1558105787106L875.1223958333334,351.8147623443882" style="fill: none;" fill="none"></path></g></g></g></g><g opacity="0.2"><g><g><g><path stroke="rgb(204, 51, 17)" stroke-width="2px" d="M80.28645833333333,80.42136386462617L88.31510416666666,115.98742219379965L96.34375,138.02506913457594L104.37239583333334,143.663929598672L112.40104166666667,155.017666544233L120.4296875,158.68775068010598L128.45833333333334,130.05224728584287L136.48697916666666,169.8211438996451L144.515625,175.3501535143171L152.54427083333331,177.97906218256264L160.57291666666666,176.24642344883506L168.6015625,173.63125416210715L176.63020833333331,174.2879837581089L184.65885416666669,177.85932411466322L192.6875,179.46766638755795L200.71614583333334,173.34497424534385L208.74479166666669,176.8069131714957L216.7734375,174.8123915536063L224.80208333333334,178.60137912205283L232.83072916666666,180.8941223621368L240.859375,169.6288567611149L248.88802083333337,177.47198912075584L256.9166666666667,180.7787500790187L264.9453125,178.17789799826485L272.9739583333333,159.48566205160958L281.0026041666667,177.69490095547263L289.03125,170.51235035487582L297.05989583333337,176.20559052058627L305.08854166666663,167.39351075036183L313.1171875,172.90987242971144L321.1458333333333,151.90344953536984L329.1744791666667,171.62504764965598L337.203125,163.3338445254734L345.2317708333333,161.42355687277657L353.26041666666663,164.04238571439467L361.2890625,157.04531676428658L369.31770833333337,158.1065234797341L377.3463541666667,156.8301734583718L385.375,157.16300034523007L393.4036458333333,150.8252290998186L401.4322916666667,142.63103628158566L409.4609375,148.15516648973733L417.48958333333337,129.07200019700184L425.51822916666663,140.999773638589L433.546875,134.9679283414568L441.5755208333333,127.21545021874562L449.6041666666667,125.00418022700715L457.6328125,127.14662490572243L465.6614583333333,115.08049460819784L473.69010416666663,132.73418739863803L481.71875,122.89146140643525L489.7473958333333,133.62134054728915L497.77604166666674,119.02979636192318L505.8046875,129.70760709898806L513.8333333333334,123.75094318389888L521.8619791666666,102.9622959068843L529.890625,107.72992549623757L537.9192708333334,108.74259495735164L545.9479166666666,105.63184489522658L553.9765625,101.14490958622518L562.0052083333334,100.26610279083248L570.0338541666666,99.21215098244801L578.0625,105.25844189098898L586.0911458333333,77.24487021991182L594.1197916666667,80.84445977210994L602.1484375,103.34744800840102L610.1770833333333,100.45036458969112L618.2057291666667,93.28591915539327L626.234375,78.3628963402339L634.2630208333334,77.173862014498L642.2916666666666,76.15483648436404L650.3203125,72.33201408386226L658.3489583333334,44.77396069254189L666.3776041666666,58.1308224201202L674.40625,48.831123011452775L682.4348958333334,62.105933666229205L690.4635416666666,52.68810125759664L698.4921875,68.88124643053322L706.5208333333333,39.563396556036764L714.5494791666667,50.1714831420353L722.578125,62.63143290792189L730.6067708333333,41.14470948491774L738.6354166666667,12.519542728151563L746.6640625,35.64523312023702L754.6927083333334,23.853441034044508L762.7213541666666,8.651072195597992L770.75,21.297787666320758L778.7786458333334,-7.247767720903681L786.8072916666666,26.24646891866408L794.8359375,6.267353704997405L802.8645833333334,25.409008673259123L810.8932291666666,5.295581374849562L818.921875,16.42916720254074L826.9505208333333,20.627447094236047L834.9791666666667,9.42953014373775L843.0078125,-10.447695357458969L851.0364583333333,19.242594480514484L859.0651041666667,-5.329005309513661" style="fill: none;" fill="none"></path></g><g><path stroke="rgb(0, 119, 187)" stroke-width="2px" d="M80.28645833333333,43.28355881146017L88.31510416666666,97.786016021456L96.34375,123.43269031388417L104.37239583333334,139.2777925559452L112.40104166666667,150.60899434770852L120.4296875,159.11444193976266L128.45833333333334,168.2233950751168L136.48697916666666,175.37410112789695L144.515625,182.28956842422483L152.54427083333331,186.79460889952523L160.57291666666666,193.57929526056557L168.6015625,198.36342494828358L176.63020833333331,202.29205342701502L184.65885416666669,206.18138984271457L192.6875,210.10051631927487L200.71614583333334,213.72052233559742L208.74479166666669,219.067388841084L216.7734375,222.58017631939478L224.80208333333334,225.8785909243992L232.83072916666666,228.85830324036732L240.859375,232.1273130008152L248.88802083333337,235.22214078903195L256.9166666666667,237.8476467132568L264.9453125,240.8448221683502L272.9739583333333,243.26487939698353L281.0026041666667,246.91557431221005L289.03125,249.58839763913832L297.05989583333337,250.2446778161185L305.08854166666663,254.5192947387695L313.1171875,255.64342011724196L321.1458333333333,259.4863379682813L329.1744791666667,261.41447397640775L337.203125,262.2198328631265L345.2317708333333,266.38254444939747L353.26041666666663,266.51191292490273L361.2890625,269.5989721843174L369.31770833333337,270.83622275079995L377.3463541666667,274.23890256881714L385.375,275.4834722450801L393.4036458333333,278.8353035109384L401.4322916666667,279.79584036554604L409.4609375,282.1536851610456L417.48958333333337,284.47236629894803L425.51822916666663,286.0956678049905L433.546875,287.31288712365284L441.5755208333333,290.1980930396488L449.6041666666667,291.1611338002341L457.6328125,293.46164556912015L465.6614583333333,294.9135900224958L473.69010416666663,294.6240357671465L481.71875,298.59940382412503L489.7473958333333,299.6904006004333L497.77604166666674,300.92489045006886L505.8046875,302.38620850018094L513.8333333333334,303.46121879986356L521.8619791666666,303.76066027368813L529.890625,305.69226322855263L537.9192708333334,308.90028040749684L545.9479166666666,308.9574850286756L553.9765625,310.7878402982439L562.0052083333334,313.03583424431935L570.0338541666666,314.10185616356983L578.0625,315.0309978893825L586.0911458333333,315.1846991947719L594.1197916666667,316.29733228683466L602.1484375,318.3239552634103L610.1770833333333,320.0273817607334L618.2057291666667,321.50365904399325L626.234375,322.66091302462985L634.2630208333334,324.1379607404981L642.2916666666666,325.1437605108533L650.3203125,325.12283042498996L658.3489583333334,327.42635972159246L666.3776041666666,328.6441568647112L674.40625,328.18587786810735L682.4348958333334,330.433037178857L690.4635416666666,329.6201023714883L698.4921875,332.29947437558855L706.5208333333333,334.6058285917554L714.5494791666667,336.36498304775785L722.578125,336.40369728633334L730.6067708333333,337.9000058174133L738.6354166666667,338.2422705037253L746.6640625,340.2485412188938L754.6927083333334,338.9768137931823L762.7213541666666,342.62821493829995L770.75,341.73033993584767L778.7786458333334,343.2990049294063L786.8072916666666,344.39879747799466L794.8359375,345.52767385755266L802.8645833333334,347.3980916227613L810.8932291666666,347.6441806384495L818.921875,346.17226913997104L826.9505208333333,347.7483174460275L834.9791666666667,350.15200298173085L843.0078125,347.7012568541935L851.0364583333333,350.7112728527614L859.0651041666667,350.9523540564945L867.09375,353.15553450584406L875.1223958333334,352.8031899929046" style="fill: none;" fill="none"></path></g></g></g></g></g></g><g transform="translate(51, 377)" clip-path="url(#clip_1)"><clipPath id="clip_1"><rect width="963" height="23"></rect></clipPath><g><g><line x1="0" y1="0" x2="0" y2="5" style="visibility: inherit;" fill="rgb(0, 0, 0)" stroke="rgb(204, 204, 204)" stroke-width="1px"></line><line x1="80.28645833333333" y1="0" x2="80.28645833333333" y2="5" style="visibility: inherit;" fill="rgb(0, 0, 0)" stroke="rgb(204, 204, 204)" stroke-width="1px"></line><line x1="160.57291666666666" y1="0" x2="160.57291666666666" y2="5" style="visibility: inherit;" fill="rgb(0, 0, 0)" stroke="rgb(204, 204, 204)" stroke-width="1px"></line><line x1="240.859375" y1="0" x2="240.859375" y2="5" style="visibility: inherit;" fill="rgb(0, 0, 0)" stroke="rgb(204, 204, 204)" stroke-width="1px"></line><line x1="321.1458333333333" y1="0" x2="321.1458333333333" y2="5" style="visibility: inherit;" fill="rgb(0, 0, 0)" stroke="rgb(204, 204, 204)" stroke-width="1px"></line><line x1="401.4322916666667" y1="0" x2="401.4322916666667" y2="5" style="visibility: inherit;" fill="rgb(0, 0, 0)" stroke="rgb(204, 204, 204)" stroke-width="1px"></line><line x1="481.71875" y1="0" x2="481.71875" y2="5" style="visibility: inherit;" fill="rgb(0, 0, 0)" stroke="rgb(204, 204, 204)" stroke-width="1px"></line><line x1="562.0052083333334" y1="0" x2="562.0052083333334" y2="5" style="visibility: inherit;" fill="rgb(0, 0, 0)" stroke="rgb(204, 204, 204)" stroke-width="1px"></line><line x1="642.2916666666666" y1="0" x2="642.2916666666666" y2="5" style="visibility: inherit;" fill="rgb(0, 0, 0)" stroke="rgb(204, 204, 204)" stroke-width="1px"></line><line x1="722.578125" y1="0" x2="722.578125" y2="5" style="visibility: inherit;" fill="rgb(0, 0, 0)" stroke="rgb(204, 204, 204)" stroke-width="1px"></line><line x1="802.8645833333334" y1="0" x2="802.8645833333334" y2="5" style="visibility: inherit;" fill="rgb(0, 0, 0)" stroke="rgb(204, 204, 204)" stroke-width="1px"></line><line x1="883.1510416666666" y1="0" x2="883.1510416666666" y2="5" style="visibility: inherit;" fill="rgb(0, 0, 0)" stroke="rgb(204, 204, 204)" stroke-width="1px"></line><line x1="963.4375" y1="0" x2="963.4375" y2="5" style="visibility: inherit;" fill="rgb(0, 0, 0)" stroke="rgb(204, 204, 204)" stroke-width="1px"></line></g><g transform="translate(0, 8)"><text x="0" y="0" dx="0em" dy="0.95em" style="text-anchor: middle; visibility: hidden; font-family: Roboto, sans-serif; font-size: 12px; font-weight: 200;" fill="rgb(33, 33, 33)" stroke="none" stroke-width="1px">-10</text><text x="80.28645833333333" y="0" dx="0em" dy="0.95em" style="text-anchor: middle; visibility: inherit; font-family: Roboto, sans-serif; font-size: 12px; font-weight: 200;" fill="rgb(33, 33, 33)" stroke="none" stroke-width="1px">0</text><text x="160.57291666666666" y="0" dx="0em" dy="0.95em" style="text-anchor: middle; visibility: inherit; font-family: Roboto, sans-serif; font-size: 12px; font-weight: 200;" fill="rgb(33, 33, 33)" stroke="none" stroke-width="1px">10</text><text x="240.859375" y="0" dx="0em" dy="0.95em" style="text-anchor: middle; visibility: inherit; font-family: Roboto, sans-serif; font-size: 12px; font-weight: 200;" fill="rgb(33, 33, 33)" stroke="none" stroke-width="1px">20</text><text x="321.1458333333333" y="0" dx="0em" dy="0.95em" style="text-anchor: middle; visibility: inherit; font-family: Roboto, sans-serif; font-size: 12px; font-weight: 200;" fill="rgb(33, 33, 33)" stroke="none" stroke-width="1px">30</text><text x="401.4322916666667" y="0" dx="0em" dy="0.95em" style="text-anchor: middle; visibility: inherit; font-family: Roboto, sans-serif; font-size: 12px; font-weight: 200;" fill="rgb(33, 33, 33)" stroke="none" stroke-width="1px">40</text><text x="481.71875" y="0" dx="0em" dy="0.95em" style="text-anchor: middle; visibility: inherit; font-family: Roboto, sans-serif; font-size: 12px; font-weight: 200;" fill="rgb(33, 33, 33)" stroke="none" stroke-width="1px">50</text><text x="562.0052083333334" y="0" dx="0em" dy="0.95em" style="text-anchor: middle; visibility: inherit; font-family: Roboto, sans-serif; font-size: 12px; font-weight: 200;" fill="rgb(33, 33, 33)" stroke="none" stroke-width="1px">60</text><text x="642.2916666666666" y="0" dx="0em" dy="0.95em" style="text-anchor: middle; visibility: inherit; font-family: Roboto, sans-serif; font-size: 12px; font-weight: 200;" fill="rgb(33, 33, 33)" stroke="none" stroke-width="1px">70</text><text x="722.578125" y="0" dx="0em" dy="0.95em" style="text-anchor: middle; visibility: inherit; font-family: Roboto, sans-serif; font-size: 12px; font-weight: 200;" fill="rgb(33, 33, 33)" stroke="none" stroke-width="1px">80</text><text x="802.8645833333334" y="0" dx="0em" dy="0.95em" style="text-anchor: middle; visibility: inherit; font-family: Roboto, sans-serif; font-size: 12px; font-weight: 200;" fill="rgb(33, 33, 33)" stroke="none" stroke-width="1px">90</text><text x="883.1510416666666" y="0" dx="0em" dy="0.95em" style="text-anchor: middle; visibility: inherit; font-family: Roboto, sans-serif; font-size: 12px; font-weight: 200;" fill="rgb(33, 33, 33)" stroke="none" stroke-width="1px">100</text><text x="963.4375" y="0" dx="0em" dy="0.95em" style="text-anchor: middle; visibility: hidden; font-family: Roboto, sans-serif; font-size: 12px; font-weight: 200;" fill="rgb(33, 33, 33)" stroke="none" stroke-width="1px">110</text></g><line x1="0" y1="0" x2="963.4375" y2="0" fill="rgb(0, 0, 0)" stroke="rgb(204, 204, 204)" stroke-width="1px"></line></g></g></g></g></svg>