<svg viewBox="0 0 1015 400" xmlns="http://www.w3.org/2000/svg"><g><g><g><g><g><line x1="51.5625" y1="377" x2="46.5625" y2="377" style="visibility: inherit;" fill="rgb(0, 0, 0)" stroke="rgb(204, 204, 204)" stroke-width="1px"></line><line x1="51.5625" y1="350.07142857142856" x2="46.5625" y2="350.07142857142856" style="visibility: inherit;" fill="rgb(0, 0, 0)" stroke="rgb(204, 204, 204)" stroke-width="1px"></line><line x1="51.5625" y1="323.1428571428571" x2="46.5625" y2="323.1428571428571" style="visibility: inherit;" fill="rgb(0, 0, 0)" stroke="rgb(204, 204, 204)" stroke-width="1px"></line><line x1="51.5625" y1="296.21428571428567" x2="46.5625" y2="296.21428571428567" style="visibility: inherit;" fill="rgb(0, 0, 0)" stroke="rgb(204, 204, 204)" stroke-width="1px"></line><line x1="51.5625" y1="269.2857142857142" x2="46.5625" y2="269.2857142857142" style="visibility: inherit;" fill="rgb(0, 0, 0)" stroke="rgb(204, 204, 204)" stroke-width="1px"></line><line x1="51.5625" y1="242.35714285714275" x2="46.5625" y2="242.35714285714275" style="visibility: inherit;" fill="rgb(0, 0, 0)" stroke="rgb(204, 204, 204)" stroke-width="1px"></line><line x1="51.5625" y1="215.42857142857144" x2="46.5625" y2="215.42857142857144" style="visibility: inherit;" fill="rgb(0, 0, 0)" stroke="rgb(204, 204, 204)" stroke-width="1px"></line><line x1="51.5625" y1="188.5" x2="46.5625" y2="188.5" style="visibility: inherit;" fill="rgb(0, 0, 0)" stroke="rgb(204, 204, 204)" stroke-width="1px"></line><line x1="51.5625" y1="161.57142857142856" x2="46.5625" y2="161.57142857142856" style="visibility: inherit;" fill="rgb(0, 0, 0)" stroke="rgb(204, 204, 204)" stroke-width="1px"></line><line x1="51.5625" y1="134.64285714285708" x2="46.5625" y2="134.64285714285708" style="visibility: inherit;" fill="rgb(0, 0, 0)" stroke="rgb(204, 204, 204)" stroke-width="1px"></line><line x1="51.5625" y1="107.71428571428567" x2="46.5625" y2="107.71428571428567" style="visibility: inherit;" fill="rgb(0, 0, 0)" stroke="rgb(204, 204, 204)" stroke-width="1px"></line><line x1="51.5625" y1="80.7857142857142" x2="46.5625" y2="80.7857142857142" style="visibility: inherit;" fill="rgb(0, 0, 0)" stroke="rgb(204, 204, 204)" stroke-width="1px"></line><line x1="51.5625" y1="53.85714285714292" x2="46.5625" y2="53.85714285714292" style="visibility: inherit;" fill="rgb(0, 0, 0)" stroke="rgb(204, 204, 204)" stroke-width="1px"></line><line x1="51.5625" y1="26.92857142857146" x2="46.5625" y2="26.92857142857146" style="visibility: inherit;" fill="rgb(0, 0, 0)" stroke="rgb(204, 204, 204)" stroke-width="1px"></line><line x1="51.5625" y1="0" x2="46.5625" y2="0" style="visibility: inherit;" fill="rgb(0, 0, 0)" stroke="rgb(204, 204, 204)" stroke-width="1px"></line></g><g transform="translate(41.5625, 0)"><text x="0" y="377" dx="0em" dy="0.3em" style="text-anchor: end; visibility: hidden; font-family: Roboto, sans-serif; font-size: 12px; font-weight: 200;" fill="rgb(33, 33, 33)" stroke="none" stroke-width="1px">0.35</text><text x="0" y="350.07142857142856" dx="0em" dy="0.3em" style="text-anchor: end; visibility: inherit; font-family: Roboto, sans-serif; font-size: 12px; font-weight: 200;" fill="rgb(33, 33, 33)" stroke="none" stroke-width="1px">0.36</text><text x="0" y="323.1428571428571" dx="0em" dy="0.3em" style="text-anchor: end; visibility: inherit; font-family: Roboto, sans-serif; font-size: 12px; font-weight: 200;" fill="rgb(33, 33, 33)" stroke="none" stroke-width="1px">0.37</text><text x="0" y="296.21428571428567" dx="0em" dy="0.3em" style="text-anchor: end; visibility: inherit; font-family: Roboto, sans-serif; font-size: 12px; font-weight: 200;" fill="rgb(33, 33, 33)" stroke="none" stroke-width="1px">0.38</text><text x="0" y="269.2857142857142" dx="0em" dy="0.3em" style="text-anchor: end; visibility: inherit; font-family: Roboto, sans-serif; font-size: 12px; font-weight: 200;" fill="rgb(33, 33, 33)" stroke="none" stroke-width="1px">0.39</text><text x="0" y="242.35714285714275" dx="0em" dy="0.3em" style="text-anchor: end; visibility: inherit; font-family: Roboto, sans-serif; font-size: 12px; font-weight: 200;" fill="rgb(33, 33, 33)" stroke="none" stroke-width="1px">0.4</text><text x="0" y="215.42857142857144" dx="0em" dy="0.3em" style="text-anchor: end; visibility: inherit; font-family: Roboto, sans-serif; font-size: 12px; font-weight: 200;" fill="rgb(33, 33, 33)" stroke="none" stroke-width="1px">0.41</text><text x="0" y="188.5" dx="0em" dy="0.3em" style="text-anchor: end; visibility: inherit; font-family: Roboto, sans-serif; font-size: 12px; font-weight: 200;" fill="rgb(33, 33, 33)" stroke="none" stroke-width="1px">0.42</text><text x="0" y="161.57142857142856" dx="0em" dy="0.3em" style="text-anchor: end; visibility: inherit; font-family: Roboto, sans-serif; font-size: 12px; font-weight: 200;" fill="rgb(33, 33, 33)" stroke="none" stroke-width="1px">0.43</text><text x="0" y="134.64285714285708" dx="0em" dy="0.3em" style="text-anchor: end; visibility: inherit; font-family: Roboto, sans-serif; font-size: 12px; font-weight: 200;" fill="rgb(33, 33, 33)" stroke="none" stroke-width="1px">0.44</text><text x="0" y="107.71428571428567" dx="0em" dy="0.3em" style="text-anchor: end; visibility: inherit; font-family: Roboto, sans-serif; font-size: 12px; font-weight: 200;" fill="rgb(33, 33, 33)" stroke="none" stroke-width="1px">0.45</text><text x="0" y="80.7857142857142" dx="0em" dy="0.3em" style="text-anchor: end; visibility: inherit; font-family: Roboto, sans-serif; font-size: 12px; font-weight: 200;" fill="rgb(33, 33, 33)" stroke="none" stroke-width="1px">0.46</text><text x="0" y="53.85714285714292" dx="0em" dy="0.3em" style="text-anchor: end; visibility: inherit; font-family: Roboto, sans-serif; font-size: 12px; font-weight: 200;" fill="rgb(33, 33, 33)" stroke="none" stroke-width="1px">0.47</text><text x="0" y="26.92857142857146" dx="0em" dy="0.3em" style="text-anchor: end; visibility: inherit; font-family: Roboto, sans-serif; font-size: 12px; font-weight: 200;" fill="rgb(33, 33, 33)" stroke="none" stroke-width="1px">0.48</text><text x="0" y="0" dx="0em" dy="0.3em" style="text-anchor: end; visibility: hidden; font-family: Roboto, sans-serif; font-size: 12px; font-weight: 200;" fill="rgb(33, 33, 33)" stroke="none" stroke-width="1px">0.49</text></g><line x1="51.5625" y1="0" x2="51.5625" y2="377" fill="rgb(0, 0, 0)" stroke="rgb(204, 204, 204)" stroke-width="1px"></line></g></g><g transform="translate(51, 0)" clip-path="url(#clip_0)"><clipPath id="clip_0"><rect width="963" height="377"></rect></clipPath><g><g><g><line x1="0" y1="0" x2="0" y2="377" fill="rgb(0, 0, 0)" stroke="rgb(66, 66, 66)" stroke-width="1px" opacity="0.25"></line><line x1="80.28645833333333" y1="0" x2="80.28645833333333" y2="377" fill="rgb(0, 0, 0)" stroke="rgb(66, 66, 66)" stroke-width="1px" opacity="0.25"></line><line x1="160.57291666666666" y1="0" x2="160.57291666666666" y2="377" fill="rgb(0, 0, 0)" stroke="rgb(66, 66, 66)" stroke-width="1px" opacity="0.25"></line><line x1="240.859375" y1="0" x2="240.859375" y2="377" fill="rgb(0, 0, 0)" stroke="rgb(66, 66, 66)" stroke-width="1px" opacity="0.25"></line><line x1="321.1458333333333" y1="0" x2="321.1458333333333" y2="377" fill="rgb(0, 0, 0)" stroke="rgb(66, 66, 66)" stroke-width="1px" opacity="0.25"></line><line x1="401.4322916666667" y1="0" x2="401.4322916666667" y2="377" fill="rgb(0, 0, 0)" stroke="rgb(66, 66, 66)" stroke-width="1px" opacity="0.25"></line><line x1="481.71875" y1="0" x2="481.71875" y2="377" fill="rgb(0, 0, 0)" stroke="rgb(66, 66, 66)" stroke-width="1px" opacity="0.25"></line><line x1="562.0052083333334" y1="0" x2="562.0052083333334" y2="377" fill="rgb(0, 0, 0)" stroke="rgb(66, 66, 66)" stroke-width="1px" opacity="0.25"></line><line x1="642.2916666666666" y1="0" x2="642.2916666666666" y2="377" fill="rgb(0, 0, 0)" stroke="rgb(66, 66, 66)" stroke-width="1px" opacity="0.25"></line><line x1="722.578125" y1="0" x2="722.578125" y2="377" fill="rgb(0, 0, 0)" stroke="rgb(66, 66, 66)" stroke-width="1px" opacity="0.25"></line><line x1="802.8645833333334" y1="0" x2="802.8645833333334" y2="377" fill="rgb(0, 0, 0)" stroke="rgb(66, 66, 66)" stroke-width="1px" opacity="0.25"></line><line x1="883.1510416666666" y1="0" x2="883.1510416666666" y2="377" fill="rgb(0, 0, 0)" stroke="rgb(66, 66, 66)" stroke-width="1px" opacity="0.25"></line><line x1="963.4375" y1="0" x2="963.4375" y2="377" fill="rgb(0, 0, 0)" stroke="rgb(66, 66, 66)" stroke-width="1px" opacity="0.25"></line></g><g><line x1="0" y1="377" x2="963.4375" y2="377" fill="rgb(0, 0, 0)" stroke="rgb(66, 66, 66)" stroke-width="1px" opacity="0.25"></line><line x1="0" y1="350.07142857142856" x2="963.4375" y2="350.07142857142856" fill="rgb(0, 0, 0)" stroke="rgb(66, 66, 66)" stroke-width="1px" opacity="0.25"></line><line x1="0" y1="323.1428571428571" x2="963.4375" y2="323.1428571428571" fill="rgb(0, 0, 0)" stroke="rgb(66, 66, 66)" stroke-width="1px" opacity="0.25"></line><line x1="0" y1="296.21428571428567" x2="963.4375" y2="296.21428571428567" fill="rgb(0, 0, 0)" stroke="rgb(66, 66, 66)" stroke-width="1px" opacity="0.25"></line><line x1="0" y1="269.2857142857142" x2="963.4375" y2="269.2857142857142" fill="rgb(0, 0, 0)" stroke="rgb(66, 66, 66)" stroke-width="1px" opacity="0.25"></line><line x1="0" y1="242.35714285714275" x2="963.4375" y2="242.35714285714275" fill="rgb(0, 0, 0)" stroke="rgb(66, 66, 66)" stroke-width="1px" opacity="0.25"></line><line x1="0" y1="215.42857142857144" x2="963.4375" y2="215.42857142857144" fill="rgb(0, 0, 0)" stroke="rgb(66, 66, 66)" stroke-width="1px" opacity="0.25"></line><line x1="0" y1="188.5" x2="963.4375" y2="188.5" fill="rgb(0, 0, 0)" stroke="rgb(66, 66, 66)" stroke-width="1px" opacity="0.25"></line><line x1="0" y1="161.57142857142856" x2="963.4375" y2="161.57142857142856" fill="rgb(0, 0, 0)" stroke="rgb(66, 66, 66)" stroke-width="1px" opacity="0.25"></line><line x1="0" y1="134.64285714285708" x2="963.4375" y2="134.64285714285708" fill="rgb(0, 0, 0)" stroke="rgb(66, 66, 66)" stroke-width="1px" opacity="0.25"></line><line x1="0" y1="107.71428571428567" x2="963.4375" y2="107.71428571428567" fill="rgb(0, 0, 0)" stroke="rgb(66, 66, 66)" stroke-width="1px" opacity="0.25"></line><line x1="0" y1="80.7857142857142" x2="963.4375" y2="80.7857142857142" fill="rgb(0, 0, 0)" stroke="rgb(66, 66, 66)" stroke-width="1px" opacity="0.25"></line><line x1="0" y1="53.85714285714292" x2="963.4375" y2="53.85714285714292" fill="rgb(0, 0, 0)" stroke="rgb(66, 66, 66)" stroke-width="1px" opacity="0.25"></line><line x1="0" y1="26.92857142857146" x2="963.4375" y2="26.92857142857146" fill="rgb(0, 0, 0)" stroke="rgb(66, 66, 66)" stroke-width="1px" opacity="0.25"></line><line x1="0" y1="0" x2="963.4375" y2="0" fill="rgb(0, 0, 0)" stroke="rgb(66, 66, 66)" stroke-width="1px" opacity="0.25"></line></g></g></g><g><g><line x1="0" y1="1319.4999999999998" x2="963.4375" y2="1319.4999999999998" fill="rgb(0, 0, 0)" stroke="rgb(153, 153, 153)" stroke-width="1.5px"></line></g></g><g><g><line x1="80.28645833333333" y1="0" x2="80.28645833333333" y2="377" fill="rgb(0, 0, 0)" stroke="rgb(153, 153, 153)" stroke-width="1.5px"></line></g></g><g><g><g><g><g><path stroke="rgb(204, 51, 17)" stroke-width="2px" d="M88.31510416666666,401.3129330607396L96.34375,376.10248007788255L104.37239583333334,359.8963383803723L112.40104166666667,338.83528378811184L120.4296875,330.0829864235053L128.45833333333334,345.6370537043166L136.48697916666666,329.5827537960613L144.515625,314.46245311669793L152.54427083333331,301.3332630090061L160.57291666666666,290.64469834226156L168.6015625,287.902704508544L176.63020833333331,289.21517757078783L184.65885416666669,291.5761491748161L192.6875,293.77856131729476L200.71614583333334,293.9190309471028L208.74479166666669,296.7570870195608L216.7734375,288.33025266558366L224.80208333333334,283.9630590958845L232.83072916666666,279.3761837312782L240.859375,285.3760228472968L248.88802083333337,278.8473769871505L256.9166666666667,274.7335899910813L264.9453125,281.7053656623168L272.9739583333333,281.85672462033L281.0026041666667,279.095874859146L289.03125,278.3243712799333L297.05989583333337,280.4181518190126L305.08854166666663,282.4610634040105L313.1171875,277.5901505851335L321.1458333333333,292.8592854566656L329.1744791666667,283.0424082163032L337.203125,293.27894640128983L345.2317708333333,287.0308998405025L353.26041666666663,291.05037624468525L361.2890625,293.5604206070012L369.31770833333337,284.64310387655524L377.3463541666667,283.12770270329077L385.375,280.84179523260997L393.4036458333333,290.4835849062354L401.4322916666667,288.00865809199746L409.4609375,294.0953852789595L417.48958333333337,301.4840839441291L425.51822916666663,299.32894868940843L433.546875,300.98588609630497L441.5755208333333,313.2883620640581L449.6041666666667,304.9365223325142L457.6328125,301.40041172273345L465.6614583333333,308.71875980452756L473.69010416666663,303.96476569230845L481.71875,300.42405189204925L489.7473958333333,302.03628596570354L497.77604166666674,303.200279333205L505.8046875,307.8320227321672L513.8333333333334,303.8260613969098L521.8619791666666,309.7808116609553L529.890625,308.2403326983352L537.9192708333334,307.41437178241944L545.9479166666666,308.6887999481084L553.9765625,308.1751165419209L562.0052083333334,321.2402362227928L570.0338541666666,323.37598803897794L578.0625,309.31745176555467L586.0911458333333,313.5673102917776L594.1197916666667,314.64223217859904L602.1484375,321.1871903276998L610.1770833333333,317.0508175369324L618.2057291666667,315.6506812447613L626.234375,320.7105723851078L634.2630208333334,323.15651619802253L642.2916666666666,331.1140783740728L650.3203125,321.3353042125321L658.3489583333334,324.12134616577026L666.3776041666666,322.54797339356287L674.40625,322.88229003583905L682.4348958333334,319.54287059072817L690.4635416666666,325.6025666038898L698.4921875,327.2717265732369L706.5208333333333,328.9615398877943L714.5494791666667,322.30545024564077L722.578125,326.27678557756246L730.6067708333333,320.00624822519416L738.6354166666667,323.6189240596934L746.6640625,328.44153663325056L754.6927083333334,330.1550903334397L762.7213541666666,342.7865475628992L770.75,340.1387636584856L778.7786458333334,348.77675155792673L786.8072916666666,342.06123990327825L794.8359375,334.7869349663385L802.8645833333334,337.99400317340655L810.8932291666666,335.9848967191892L818.921875,331.829446388834L826.9505208333333,331.5978453154966L834.9791666666667,341.1938785039462L843.0078125,341.3465048863338L851.0364583333333,335.34142277544663L859.0651041666667,342.6533490839528L867.09375,342.3205136959935L875.1223958333334,341.3341365672545" style="fill: none;" fill="none"></path></g><g><path stroke="rgb(0, 119, 187)" stroke-width="2px" d="M104.37239583333334,393.95932641672357L112.40104166666667,372.56554377386266L120.4296875,355.1540587054328L128.45833333333334,337.47478926952107L136.48697916666666,324.3982168508966L144.515625,312.8056487987754L152.54427083333331,303.7640402716602L160.57291666666666,293.07754474684145L168.6015625,284.88605352235186L176.63020833333331,275.77997246444033L184.65885416666669,267.913069911219L192.6875,261.17186873225927L200.71614583333334,255.613822331361L208.74479166666669,249.1999292774823L216.7734375,242.9182124205879L224.80208333333334,235.80908019735696L232.83072916666666,229.51978135206187L240.859375,224.26862705426106L248.88802083333337,220.22394149228398L256.9166666666667,213.82353036370637L264.9453125,210.14475453393095L272.9739583333333,205.71473159467735L281.0026041666667,201.91433289145763L289.03125,197.82113962980716L297.05989583333337,195.87435421541392L305.08854166666663,191.6888191063168L313.1171875,186.74366977829308L321.1458333333333,180.18793741625524L329.1744791666667,179.39613037477739L337.203125,175.0219507752919L345.2317708333333,170.18710403361592L353.26041666666663,164.96414425678344L361.2890625,162.8113538783563L369.31770833333337,159.75638412332563L377.3463541666667,157.07900814039084L385.375,151.4244728122124L393.4036458333333,147.77099228641148L401.4322916666667,143.77837086526375L409.4609375,140.24040696250964L417.48958333333337,137.60850107303727L425.51822916666663,135.14772582473037L433.546875,132.86410411313005L441.5755208333333,128.57582127749052L449.6041666666667,124.09057363927096L457.6328125,121.47393230995876L465.6614583333333,117.73087813747816L473.69010416666663,116.71436716491885L481.71875,111.96945246764365L489.7473958333333,110.67466854449171L497.77604166666674,105.52684509052693L505.8046875,101.53167285157282L513.8333333333334,100.62468247705743L521.8619791666666,99.96871132140333L529.890625,98.45758402806902L537.9192708333334,93.90014853412421L545.9479166666666,90.8428438734508L553.9765625,87.23274231996251L562.0052083333334,84.63206109261753L570.0338541666666,81.46982665912904L578.0625,79.73389163051014L586.0911458333333,77.43816263082846L594.1197916666667,76.08557168264272L602.1484375,74.25579411756435L610.1770833333333,69.96660310609008L618.2057291666667,66.77221612085613L626.234375,64.79349990201686L634.2630208333334,60.228725716547146L642.2916666666666,58.95512772249578L650.3203125,58.24062972795259L658.3489583333334,57.00480646978012L666.3776041666666,54.78562277183481L674.40625,52.733886469584526L682.4348958333334,51.92504175767498L690.4635416666666,49.85030035790079L698.4921875,46.81734563649889L706.5208333333333,44.20283946666397L714.5494791666667,41.60348954278491L722.578125,38.6034595228501L730.6067708333333,36.2694675105034L738.6354166666667,35.00569568566377L746.6640625,32.22337772287924L754.6927083333334,30.87683030951537L762.7213541666666,28.752649851287845L770.75,25.85143732628808L778.7786458333334,24.197640290610327L786.8072916666666,21.802179579672437L794.8359375,19.781300452194856L802.8645833333334,17.264912089952112L810.8932291666666,15.606096666943841L818.921875,17.52891722178836L826.9505208333333,15.888667801443647L834.9791666666667,12.942547309055342L843.0078125,11.659156110761995L851.0364583333333,10.566278027478965L859.0651041666667,10.07195680898336L867.09375,8.657787376585576L875.1223958333334,6.679317891393501" style="fill: none;" fill="none"></path></g></g></g></g><g opacity="0.2"><g><g><g><path stroke="rgb(204, 51, 17)" stroke-width="2px" d="M88.31510416666666,378.4504356895174L96.34375,351.9004452143396L104.37239583333334,340.83791574410026L112.40104166666667,311.33797091245646L120.4296875,317.9754083412034L128.45833333333334,367.8796187809535L136.48697916666666,306.1754304085458L144.515625,292.16294658184046L152.54427083333331,281.837945827416L160.57291666666666,274.7087958369936L168.6015625,283.80463556732445L176.63020833333331,291.1796017118862L184.65885416666669,295.11298119170317L192.6875,297.07959067821497L200.71614583333334,294.12963632174893L208.74479166666669,301.012970158032L216.7734375,275.69214070694784L224.80208333333334,277.4129340393202L232.83072916666666,272.4962899429457L240.859375,294.3754524758884L248.88802083333337,269.05462302480424L256.9166666666667,268.56299071652546L264.9453125,292.16294658184046L272.9739583333333,282.08376198155537L281.0026041666667,274.95461199113294L289.03125,277.16711788518086L297.05989583333337,283.55881941318506L305.08854166666663,285.52542889969686L313.1171875,270.28378404889787L321.1458333333333,315.7629827005522L329.1744791666667,268.31709430898934L337.203125,308.6337524567331L345.2317708333333,277.6588304468563L353.26041666666663,297.07959067821497L361.2890625,297.3254870857511L369.31770833333337,271.26712891885205L377.3463541666667,280.85460095746174L385.375,277.4129340393202L393.4036458333333,304.9462693844522L401.4322916666667,284.29626787560323L409.4609375,303.22547605207984L417.48958333333337,312.5671319365501L425.51822916666663,296.09624580826073L433.546875,303.47129220621923L441.5755208333333,331.74207601376935L449.6041666666667,292.40876273597985L457.6328125,296.09624580826073L465.6614583333333,319.6962819269725L473.69010416666663,296.83377452407564L481.71875,295.11298119170317L489.7473958333333,304.45463707617347L497.77604166666674,304.9462693844522L505.8046875,314.779637830598L513.8333333333334,297.8171193940298L521.8619791666666,318.7129370570182L529.890625,305.9296142544065L537.9192708333334,306.1754304085458L545.9479166666666,310.6004421966416L553.9765625,307.40459143263945L562.0052083333334,340.83791574410026L570.0338541666666,326.57961576325545L578.0625,288.22964735542024L586.0911458333333,319.94209808111185L594.1197916666667,316.25461500883097L602.1484375,331.00462755135123L610.1770833333333,310.846258350781L618.2057291666667,313.5504768065044L626.234375,328.3004090956279L634.2630208333334,326.82543191739484L642.2916666666666,343.0504216381481L650.3203125,306.66714297022133L658.3489583333334,328.3004090956279L666.3776041666666,320.18791423525124L674.40625,323.3837649992534L682.4348958333334,314.5337414230619L690.4635416666666,334.6921106236321L698.4921875,329.7754665272576L706.5208333333333,331.49625985962996L714.5494791666667,312.32131578241075L722.578125,332.23378857544486L730.6067708333333,310.6004421966416L738.6354166666667,329.0379378114427L746.6640625,335.67545549358636L754.6927083333334,332.7254208837236L762.7213541666666,361.7337334070886L770.75,336.16708780186514L778.7786458333334,361.7337334070886L786.8072916666666,331.98797242130547L794.8359375,323.87547756092886L802.8645833333334,342.80460548400873L810.8932291666666,332.971237037863L818.921875,325.5962708933012L826.9505208333333,331.2504437054906L834.9791666666667,355.58792828662047L843.0078125,341.5754444599151L851.0364583333333,326.3337996091161L859.0651041666667,353.62123854671205L867.09375,341.8212606140545L875.1223958333334,339.854570874146" style="fill: none;" fill="none"></path></g><g><path stroke="rgb(0, 119, 187)" stroke-width="2px" d="M96.34375,389.3057508894375L104.37239583333334,360.40401487691054L112.40104166666667,344.6338211553437L120.4296875,331.0677067211696L128.45833333333334,312.1931511078561L136.48697916666666,305.3324487294469L144.515625,295.7088626623153L152.54427083333331,290.3383053541183L160.57291666666666,277.14472718749727L168.6015625,272.6433944191251L176.63020833333331,262.15058381216863L184.65885416666669,256.12812816245213L192.6875,251.06799099275037L200.71614583333334,247.2806726949555L208.74479166666669,239.58180384125023L216.7734375,233.49723206247597L224.80208333333334,225.1464648672512L232.83072916666666,220.08640795094624L240.859375,216.39218359334126L248.88802083333337,214.1570462414196L256.9166666666667,204.22304003579274L264.9453125,204.62663436787463L272.9739583333333,199.0697286725044L281.0026041666667,196.21375104359217L289.03125,191.68136021069117L297.05989583333337,192.95417908259793L305.08854166666663,185.41052029814034L313.1171875,179.32594851936608L321.1458333333333,170.3543410471507L329.1744791666667,178.20841997010365L337.203125,168.46068189825326L345.2317708333333,162.93483426741187L353.26041666666663,157.12970481600075L361.2890625,159.5821683662278L369.31770833333337,155.17392953804557L377.3463541666667,153.06294419084273L385.375,142.9426698514393L393.4036458333333,142.2907715099198L401.4322916666667,137.78943874154768L409.4609375,134.93346111263543L417.48958333333337,133.66064224072863L425.51822916666663,131.45656295333586L433.546875,129.43867154632292L441.5755208333333,122.1433970246996L449.6041666666667,117.36270218236103L457.6328125,117.54897031613756L465.6614583333333,112.11629687888279L473.69010416666663,115.18960070610042L481.71875,104.85208042178832L489.7473958333333,108.73249265977311L497.77604166666674,97.80510990960255L505.8046875,95.53891449315205L513.8333333333334,99.26419691528588L521.8619791666666,98.98475458792272L529.890625,96.19089308806825L537.9192708333334,87.0639952932085L545.9479166666666,86.25688688244134L553.9765625,81.81758998973027L562.0052083333334,80.73103925159998L570.0338541666666,76.7264750088964L578.0625,77.12998908758159L586.0911458333333,73.99456913130622L594.1197916666667,74.05668526036396L602.1484375,71.51112776994701L610.1770833333333,63.53281658887859L618.2057291666667,61.98063564300533L626.234375,61.8254255737577L634.2630208333334,53.381564438343005L642.2916666666666,57.044730731419136L650.3203125,57.16888273613792L658.3489583333334,55.15107158252168L666.3776041666666,51.4568472249167L674.40625,49.656282016209175L682.4348958333334,50.71177468981057L690.4635416666666,46.73818825823918L698.4921875,42.26791355439592L706.5208333333333,40.28108021191187L714.5494791666667,37.704464656966024L722.578125,34.10341449294768L730.6067708333333,32.76847949198313L738.6354166666667,33.11003794840403L746.6640625,28.04990077870231L754.6927083333334,28.857009189469437L762.7213541666666,25.566379163946394L770.75,21.49961853878837L778.7786458333334,21.716944737093783L786.8072916666666,18.208988513265325L794.8359375,16.749981760978656L802.8645833333334,13.490329546587802L810.8932291666666,13.11787353243146L818.921875,20.413148054054787L826.9505208333333,13.428293670926763L834.9791666666667,8.523366570472675L843.0078125,9.734069313321783L851.0364583333333,8.926960902554612L859.0651041666667,9.330474981239846L867.09375,6.5365332279886275L875.1223958333334,3.7116136636052635" style="fill: none;" fill="none"></path></g></g></g></g></g></g><g transform="translate(51, 377)" clip-path="url(#clip_1)"><clipPath id="clip_1"><rect width="963" height="23"></rect></clipPath><g><g><line x1="0" y1="0" x2="0" y2="5" style="visibility: inherit;" fill="rgb(0, 0, 0)" stroke="rgb(204, 204, 204)" stroke-width="1px"></line><line x1="80.28645833333333" y1="0" x2="80.28645833333333" y2="5" style="visibility: inherit;" fill="rgb(0, 0, 0)" stroke="rgb(204, 204, 204)" stroke-width="1px"></line><line x1="160.57291666666666" y1="0" x2="160.57291666666666" y2="5" style="visibility: inherit;" fill="rgb(0, 0, 0)" stroke="rgb(204, 204, 204)" stroke-width="1px"></line><line x1="240.859375" y1="0" x2="240.859375" y2="5" style="visibility: inherit;" fill="rgb(0, 0, 0)" stroke="rgb(204, 204, 204)" stroke-width="1px"></line><line x1="321.1458333333333" y1="0" x2="321.1458333333333" y2="5" style="visibility: inherit;" fill="rgb(0, 0, 0)" stroke="rgb(204, 204, 204)" stroke-width="1px"></line><line x1="401.4322916666667" y1="0" x2="401.4322916666667" y2="5" style="visibility: inherit;" fill="rgb(0, 0, 0)" stroke="rgb(204, 204, 204)" stroke-width="1px"></line><line x1="481.71875" y1="0" x2="481.71875" y2="5" style="visibility: inherit;" fill="rgb(0, 0, 0)" stroke="rgb(204, 204, 204)" stroke-width="1px"></line><line x1="562.0052083333334" y1="0" x2="562.0052083333334" y2="5" style="visibility: inherit;" fill="rgb(0, 0, 0)" stroke="rgb(204, 204, 204)" stroke-width="1px"></line><line x1="642.2916666666666" y1="0" x2="642.2916666666666" y2="5" style="visibility: inherit;" fill="rgb(0, 0, 0)" stroke="rgb(204, 204, 204)" stroke-width="1px"></line><line x1="722.578125" y1="0" x2="722.578125" y2="5" style="visibility: inherit;" fill="rgb(0, 0, 0)" stroke="rgb(204, 204, 204)" stroke-width="1px"></line><line x1="802.8645833333334" y1="0" x2="802.8645833333334" y2="5" style="visibility: inherit;" fill="rgb(0, 0, 0)" stroke="rgb(204, 204, 204)" stroke-width="1px"></line><line x1="883.1510416666666" y1="0" x2="883.1510416666666" y2="5" style="visibility: inherit;" fill="rgb(0, 0, 0)" stroke="rgb(204, 204, 204)" stroke-width="1px"></line><line x1="963.4375" y1="0" x2="963.4375" y2="5" style="visibility: inherit;" fill="rgb(0, 0, 0)" stroke="rgb(204, 204, 204)" stroke-width="1px"></line></g><g transform="translate(0, 8)"><text x="0" y="0" dx="0em" dy="0.95em" style="text-anchor: middle; visibility: hidden; font-family: Roboto, sans-serif; font-size: 12px; font-weight: 200;" fill="rgb(33, 33, 33)" stroke="none" stroke-width="1px">-10</text><text x="80.28645833333333" y="0" dx="0em" dy="0.95em" style="text-anchor: middle; visibility: inherit; font-family: Roboto, sans-serif; font-size: 12px; font-weight: 200;" fill="rgb(33, 33, 33)" stroke="none" stroke-width="1px">0</text><text x="160.57291666666666" y="0" dx="0em" dy="0.95em" style="text-anchor: middle; visibility: inherit; font-family: Roboto, sans-serif; font-size: 12px; font-weight: 200;" fill="rgb(33, 33, 33)" stroke="none" stroke-width="1px">10</text><text x="240.859375" y="0" dx="0em" dy="0.95em" style="text-anchor: middle; visibility: inherit; font-family: Roboto, sans-serif; font-size: 12px; font-weight: 200;" fill="rgb(33, 33, 33)" stroke="none" stroke-width="1px">20</text><text x="321.1458333333333" y="0" dx="0em" dy="0.95em" style="text-anchor: middle; visibility: inherit; font-family: Roboto, sans-serif; font-size: 12px; font-weight: 200;" fill="rgb(33, 33, 33)" stroke="none" stroke-width="1px">30</text><text x="401.4322916666667" y="0" dx="0em" dy="0.95em" style="text-anchor: middle; visibility: inherit; font-family: Roboto, sans-serif; font-size: 12px; font-weight: 200;" fill="rgb(33, 33, 33)" stroke="none" stroke-width="1px">40</text><text x="481.71875" y="0" dx="0em" dy="0.95em" style="text-anchor: middle; visibility: inherit; font-family: Roboto, sans-serif; font-size: 12px; font-weight: 200;" fill="rgb(33, 33, 33)" stroke="none" stroke-width="1px">50</text><text x="562.0052083333334" y="0" dx="0em" dy="0.95em" style="text-anchor: middle; visibility: inherit; font-family: Roboto, sans-serif; font-size: 12px; font-weight: 200;" fill="rgb(33, 33, 33)" stroke="none" stroke-width="1px">60</text><text x="642.2916666666666" y="0" dx="0em" dy="0.95em" style="text-anchor: middle; visibility: inherit; font-family: Roboto, sans-serif; font-size: 12px; font-weight: 200;" fill="rgb(33, 33, 33)" stroke="none" stroke-width="1px">70</text><text x="722.578125" y="0" dx="0em" dy="0.95em" style="text-anchor: middle; visibility: inherit; font-family: Roboto, sans-serif; font-size: 12px; font-weight: 200;" fill="rgb(33, 33, 33)" stroke="none" stroke-width="1px">80</text><text x="802.8645833333334" y="0" dx="0em" dy="0.95em" style="text-anchor: middle; visibility: inherit; font-family: Roboto, sans-serif; font-size: 12px; font-weight: 200;" fill="rgb(33, 33, 33)" stroke="none" stroke-width="1px">90</text><text x="883.1510416666666" y="0" dx="0em" dy="0.95em" style="text-anchor: middle; visibility: inherit; font-family: Roboto, sans-serif; font-size: 12px; font-weight: 200;" fill="rgb(33, 33, 33)" stroke="none" stroke-width="1px">100</text><text x="963.4375" y="0" dx="0em" dy="0.95em" style="text-anchor: middle; visibility: hidden; font-family: Roboto, sans-serif; font-size: 12px; font-weight: 200;" fill="rgb(33, 33, 33)" stroke="none" stroke-width="1px">110</text></g><line x1="0" y1="0" x2="963.4375" y2="0" fill="rgb(0, 0, 0)" stroke="rgb(204, 204, 204)" stroke-width="1px"></line></g></g></g></g></svg>