<svg viewBox="0 0 1015 400" xmlns="http://www.w3.org/2000/svg"><g><g><g><g><g><line x1="41.171875" y1="377" x2="36.171875" y2="377" style="visibility: inherit;" fill="rgb(0, 0, 0)" stroke="rgb(204, 204, 204)" stroke-width="1px"></line><line x1="41.171875" y1="350.07142857142856" x2="36.171875" y2="350.07142857142856" style="visibility: inherit;" fill="rgb(0, 0, 0)" stroke="rgb(204, 204, 204)" stroke-width="1px"></line><line x1="41.171875" y1="323.14285714285717" x2="36.171875" y2="323.14285714285717" style="visibility: inherit;" fill="rgb(0, 0, 0)" stroke="rgb(204, 204, 204)" stroke-width="1px"></line><line x1="41.171875" y1="296.2142857142857" x2="36.171875" y2="296.2142857142857" style="visibility: inherit;" fill="rgb(0, 0, 0)" stroke="rgb(204, 204, 204)" stroke-width="1px"></line><line x1="41.171875" y1="269.28571428571433" x2="36.171875" y2="269.28571428571433" style="visibility: inherit;" fill="rgb(0, 0, 0)" stroke="rgb(204, 204, 204)" stroke-width="1px"></line><line x1="41.171875" y1="242.35714285714286" x2="36.171875" y2="242.35714285714286" style="visibility: inherit;" fill="rgb(0, 0, 0)" stroke="rgb(204, 204, 204)" stroke-width="1px"></line><line x1="41.171875" y1="215.42857142857142" x2="36.171875" y2="215.42857142857142" style="visibility: inherit;" fill="rgb(0, 0, 0)" stroke="rgb(204, 204, 204)" stroke-width="1px"></line><line x1="41.171875" y1="188.5" x2="36.171875" y2="188.5" style="visibility: inherit;" fill="rgb(0, 0, 0)" stroke="rgb(204, 204, 204)" stroke-width="1px"></line><line x1="41.171875" y1="161.57142857142858" x2="36.171875" y2="161.57142857142858" style="visibility: inherit;" fill="rgb(0, 0, 0)" stroke="rgb(204, 204, 204)" stroke-width="1px"></line><line x1="41.171875" y1="134.64285714285714" x2="36.171875" y2="134.64285714285714" style="visibility: inherit;" fill="rgb(0, 0, 0)" stroke="rgb(204, 204, 204)" stroke-width="1px"></line><line x1="41.171875" y1="107.71428571428575" x2="36.171875" y2="107.71428571428575" style="visibility: inherit;" fill="rgb(0, 0, 0)" stroke="rgb(204, 204, 204)" stroke-width="1px"></line><line x1="41.171875" y1="80.78571428571429" x2="36.171875" y2="80.78571428571429" style="visibility: inherit;" fill="rgb(0, 0, 0)" stroke="rgb(204, 204, 204)" stroke-width="1px"></line><line x1="41.171875" y1="53.85714285714292" x2="36.171875" y2="53.85714285714292" style="visibility: inherit;" fill="rgb(0, 0, 0)" stroke="rgb(204, 204, 204)" stroke-width="1px"></line><line x1="41.171875" y1="26.92857142857146" x2="36.171875" y2="26.92857142857146" style="visibility: inherit;" fill="rgb(0, 0, 0)" stroke="rgb(204, 204, 204)" stroke-width="1px"></line><line x1="41.171875" y1="0" x2="36.171875" y2="0" style="visibility: inherit;" fill="rgb(0, 0, 0)" stroke="rgb(204, 204, 204)" stroke-width="1px"></line></g><g transform="translate(31.171875, 0)"><text x="0" y="377" dx="0em" dy="0.3em" style="text-anchor: end; visibility: hidden; font-family: Roboto, sans-serif; font-size: 12px; font-weight: 200;" fill="rgb(33, 33, 33)" stroke="none" stroke-width="1px">0.2</text><text x="0" y="350.07142857142856" dx="0em" dy="0.3em" style="text-anchor: end; visibility: inherit; font-family: Roboto, sans-serif; font-size: 12px; font-weight: 200;" fill="rgb(33, 33, 33)" stroke="none" stroke-width="1px">0.3</text><text x="0" y="323.14285714285717" dx="0em" dy="0.3em" style="text-anchor: end; visibility: inherit; font-family: Roboto, sans-serif; font-size: 12px; font-weight: 200;" fill="rgb(33, 33, 33)" stroke="none" stroke-width="1px">0.4</text><text x="0" y="296.2142857142857" dx="0em" dy="0.3em" style="text-anchor: end; visibility: inherit; font-family: Roboto, sans-serif; font-size: 12px; font-weight: 200;" fill="rgb(33, 33, 33)" stroke="none" stroke-width="1px">0.5</text><text x="0" y="269.28571428571433" dx="0em" dy="0.3em" style="text-anchor: end; visibility: inherit; font-family: Roboto, sans-serif; font-size: 12px; font-weight: 200;" fill="rgb(33, 33, 33)" stroke="none" stroke-width="1px">0.6</text><text x="0" y="242.35714285714286" dx="0em" dy="0.3em" style="text-anchor: end; visibility: inherit; font-family: Roboto, sans-serif; font-size: 12px; font-weight: 200;" fill="rgb(33, 33, 33)" stroke="none" stroke-width="1px">0.7</text><text x="0" y="215.42857142857142" dx="0em" dy="0.3em" style="text-anchor: end; visibility: inherit; font-family: Roboto, sans-serif; font-size: 12px; font-weight: 200;" fill="rgb(33, 33, 33)" stroke="none" stroke-width="1px">0.8</text><text x="0" y="188.5" dx="0em" dy="0.3em" style="text-anchor: end; visibility: inherit; font-family: Roboto, sans-serif; font-size: 12px; font-weight: 200;" fill="rgb(33, 33, 33)" stroke="none" stroke-width="1px">0.9</text><text x="0" y="161.57142857142858" dx="0em" dy="0.3em" style="text-anchor: end; visibility: inherit; font-family: Roboto, sans-serif; font-size: 12px; font-weight: 200;" fill="rgb(33, 33, 33)" stroke="none" stroke-width="1px">1</text><text x="0" y="134.64285714285714" dx="0em" dy="0.3em" style="text-anchor: end; visibility: inherit; font-family: Roboto, sans-serif; font-size: 12px; font-weight: 200;" fill="rgb(33, 33, 33)" stroke="none" stroke-width="1px">1.1</text><text x="0" y="107.71428571428575" dx="0em" dy="0.3em" style="text-anchor: end; visibility: inherit; font-family: Roboto, sans-serif; font-size: 12px; font-weight: 200;" fill="rgb(33, 33, 33)" stroke="none" stroke-width="1px">1.2</text><text x="0" y="80.78571428571429" dx="0em" dy="0.3em" style="text-anchor: end; visibility: inherit; font-family: Roboto, sans-serif; font-size: 12px; font-weight: 200;" fill="rgb(33, 33, 33)" stroke="none" stroke-width="1px">1.3</text><text x="0" y="53.85714285714292" dx="0em" dy="0.3em" style="text-anchor: end; visibility: inherit; font-family: Roboto, sans-serif; font-size: 12px; font-weight: 200;" fill="rgb(33, 33, 33)" stroke="none" stroke-width="1px">1.4</text><text x="0" y="26.92857142857146" dx="0em" dy="0.3em" style="text-anchor: end; visibility: inherit; font-family: Roboto, sans-serif; font-size: 12px; font-weight: 200;" fill="rgb(33, 33, 33)" stroke="none" stroke-width="1px">1.5</text><text x="0" y="0" dx="0em" dy="0.3em" style="text-anchor: end; visibility: hidden; font-family: Roboto, sans-serif; font-size: 12px; font-weight: 200;" fill="rgb(33, 33, 33)" stroke="none" stroke-width="1px">1.6</text></g><line x1="41.171875" y1="0" x2="41.171875" y2="377" fill="rgb(0, 0, 0)" stroke="rgb(204, 204, 204)" stroke-width="1px"></line></g></g><g transform="translate(41, 0)" clip-path="url(#clip_0)"><clipPath id="clip_0"><rect width="973" height="377"></rect></clipPath><g><g><g><line x1="0" y1="0" x2="0" y2="377" fill="rgb(0, 0, 0)" stroke="rgb(66, 66, 66)" stroke-width="1px" opacity="0.25"></line><line x1="81.15234375" y1="0" x2="81.15234375" y2="377" fill="rgb(0, 0, 0)" stroke="rgb(66, 66, 66)" stroke-width="1px" opacity="0.25"></line><line x1="162.3046875" y1="0" x2="162.3046875" y2="377" fill="rgb(0, 0, 0)" stroke="rgb(66, 66, 66)" stroke-width="1px" opacity="0.25"></line><line x1="243.45703125" y1="0" x2="243.45703125" y2="377" fill="rgb(0, 0, 0)" stroke="rgb(66, 66, 66)" stroke-width="1px" opacity="0.25"></line><line x1="324.609375" y1="0" x2="324.609375" y2="377" fill="rgb(0, 0, 0)" stroke="rgb(66, 66, 66)" stroke-width="1px" opacity="0.25"></line><line x1="405.76171875" y1="0" x2="405.76171875" y2="377" fill="rgb(0, 0, 0)" stroke="rgb(66, 66, 66)" stroke-width="1px" opacity="0.25"></line><line x1="486.9140625" y1="0" x2="486.9140625" y2="377" fill="rgb(0, 0, 0)" stroke="rgb(66, 66, 66)" stroke-width="1px" opacity="0.25"></line><line x1="568.06640625" y1="0" x2="568.06640625" y2="377" fill="rgb(0, 0, 0)" stroke="rgb(66, 66, 66)" stroke-width="1px" opacity="0.25"></line><line x1="649.21875" y1="0" x2="649.21875" y2="377" fill="rgb(0, 0, 0)" stroke="rgb(66, 66, 66)" stroke-width="1px" opacity="0.25"></line><line x1="730.37109375" y1="0" x2="730.37109375" y2="377" fill="rgb(0, 0, 0)" stroke="rgb(66, 66, 66)" stroke-width="1px" opacity="0.25"></line><line x1="811.5234375" y1="0" x2="811.5234375" y2="377" fill="rgb(0, 0, 0)" stroke="rgb(66, 66, 66)" stroke-width="1px" opacity="0.25"></line><line x1="892.67578125" y1="0" x2="892.67578125" y2="377" fill="rgb(0, 0, 0)" stroke="rgb(66, 66, 66)" stroke-width="1px" opacity="0.25"></line><line x1="973.828125" y1="0" x2="973.828125" y2="377" fill="rgb(0, 0, 0)" stroke="rgb(66, 66, 66)" stroke-width="1px" opacity="0.25"></line></g><g><line x1="0" y1="377" x2="973.828125" y2="377" fill="rgb(0, 0, 0)" stroke="rgb(66, 66, 66)" stroke-width="1px" opacity="0.25"></line><line x1="0" y1="350.07142857142856" x2="973.828125" y2="350.07142857142856" fill="rgb(0, 0, 0)" stroke="rgb(66, 66, 66)" stroke-width="1px" opacity="0.25"></line><line x1="0" y1="323.14285714285717" x2="973.828125" y2="323.14285714285717" fill="rgb(0, 0, 0)" stroke="rgb(66, 66, 66)" stroke-width="1px" opacity="0.25"></line><line x1="0" y1="296.2142857142857" x2="973.828125" y2="296.2142857142857" fill="rgb(0, 0, 0)" stroke="rgb(66, 66, 66)" stroke-width="1px" opacity="0.25"></line><line x1="0" y1="269.28571428571433" x2="973.828125" y2="269.28571428571433" fill="rgb(0, 0, 0)" stroke="rgb(66, 66, 66)" stroke-width="1px" opacity="0.25"></line><line x1="0" y1="242.35714285714286" x2="973.828125" y2="242.35714285714286" fill="rgb(0, 0, 0)" stroke="rgb(66, 66, 66)" stroke-width="1px" opacity="0.25"></line><line x1="0" y1="215.42857142857142" x2="973.828125" y2="215.42857142857142" fill="rgb(0, 0, 0)" stroke="rgb(66, 66, 66)" stroke-width="1px" opacity="0.25"></line><line x1="0" y1="188.5" x2="973.828125" y2="188.5" fill="rgb(0, 0, 0)" stroke="rgb(66, 66, 66)" stroke-width="1px" opacity="0.25"></line><line x1="0" y1="161.57142857142858" x2="973.828125" y2="161.57142857142858" fill="rgb(0, 0, 0)" stroke="rgb(66, 66, 66)" stroke-width="1px" opacity="0.25"></line><line x1="0" y1="134.64285714285714" x2="973.828125" y2="134.64285714285714" fill="rgb(0, 0, 0)" stroke="rgb(66, 66, 66)" stroke-width="1px" opacity="0.25"></line><line x1="0" y1="107.71428571428575" x2="973.828125" y2="107.71428571428575" fill="rgb(0, 0, 0)" stroke="rgb(66, 66, 66)" stroke-width="1px" opacity="0.25"></line><line x1="0" y1="80.78571428571429" x2="973.828125" y2="80.78571428571429" fill="rgb(0, 0, 0)" stroke="rgb(66, 66, 66)" stroke-width="1px" opacity="0.25"></line><line x1="0" y1="53.85714285714292" x2="973.828125" y2="53.85714285714292" fill="rgb(0, 0, 0)" stroke="rgb(66, 66, 66)" stroke-width="1px" opacity="0.25"></line><line x1="0" y1="26.92857142857146" x2="973.828125" y2="26.92857142857146" fill="rgb(0, 0, 0)" stroke="rgb(66, 66, 66)" stroke-width="1px" opacity="0.25"></line><line x1="0" y1="0" x2="973.828125" y2="0" fill="rgb(0, 0, 0)" stroke="rgb(66, 66, 66)" stroke-width="1px" opacity="0.25"></line></g></g></g><g><g><line x1="0" y1="430.85714285714283" x2="973.828125" y2="430.85714285714283" fill="rgb(0, 0, 0)" stroke="rgb(153, 153, 153)" stroke-width="1.5px"></line></g></g><g><g><line x1="81.15234375" y1="0" x2="81.15234375" y2="377" fill="rgb(0, 0, 0)" stroke="rgb(153, 153, 153)" stroke-width="1.5px"></line></g></g><g><g><g><g><g><path stroke="rgb(255, 112, 67)" stroke-width="2px" d="M81.15234375,106.83841940334868L97.3828125,120.49383580471788L113.61328125,130.09487107682853L129.84375,138.83692392005642L146.07421875,145.90285740373068L162.3046875,151.66507421670812L178.53515625,158.45549210484793L194.765625,163.9834741917988L210.99609375,167.25805125095258L227.2265625,171.35322236671982L243.45703125,174.59474024444643L259.6875,177.31503741975067L275.91796875,179.00383120549728L292.1484375,180.4039053495478L308.37890625,181.0122015169142L324.609375,182.02526049065239L340.83984375,183.57963952757808L357.0703125,182.83641078692733L373.30078125,183.164218164686L389.53125,182.95278315324637L405.76171875,182.2115706548472L421.9921875,181.0477865037975L438.22265625,179.57237788691162L454.453125,178.5622909781486L470.68359375,175.66288863035615L486.9140625,173.0044843633278L503.14453125000006,167.51315756782344L519.375,163.93457606192544L535.60546875,159.22160454129224L551.8359375,152.06983297205682L568.06640625,147.47149679629848L584.296875,144.94772141583684L600.52734375,133.85362715354722L616.7578125,129.6186920551919L632.98828125,122.83413683126656L649.21875,116.53192274137166L665.44921875,108.50579312206419L681.6796875,101.46939474228745L697.91015625,92.26573302499305L714.140625,83.17707505293814L730.37109375,72.70250870450104L746.6015625,61.93562311237317L762.83203125,42.925401375711445L779.0625,33.628648616861284L795.29296875,22.356830333997273L811.5234375,13.808569967835764L827.75390625,-0.7102391162730304" style="fill: none;" fill="none"></path></g><g><path stroke="rgb(187, 187, 187)" stroke-width="2px" d="M81.15234375,93.03663284438L97.3828125,107.91757880364146L113.61328125,120.9277804155044L129.84375,131.78734363822127L146.07421875,141.31094408006916L162.3046875,149.80873450493726L178.53515625,157.42205737736714L194.765625,164.3482370950017L210.99609375,170.7792045587769L227.2265625,176.7252303785293L243.45703125,182.2308056713254L259.6875,187.42099572365257L275.91796875,192.26704290913125L292.1484375,196.92842706198326L308.37890625,201.41640025928308L324.609375,205.7936751503371L340.83984375,210.1130114030814L357.0703125,214.38874519198131L373.30078125,218.62454477976976L389.53125,222.82518787035065L405.76171875,227.14322305484143L421.9921875,231.53632520666204L438.22265625,235.8707677786469L454.453125,240.34447036616456L470.68359375,244.87235450662266L486.9140625,249.48019669941885L503.14453125000006,254.11914957031908L519.375,258.9421050118978L535.60546875,263.85683742286454L551.8359375,268.79866332403236L568.06640625,273.76627328735185L584.296875,278.8907539352013L600.52734375,284.06976326851844L616.7578125,289.11121142376896L632.98828125,294.1549860691293L649.21875,299.341399401165L665.44921875,304.38339614141074L681.6796875,309.6285700540455L697.91015625,314.77552483704835L714.140625,319.7625026987442L730.37109375,324.82072001765107L746.6015625,329.89205787808186L762.83203125,334.8304265629291L779.0625,339.76414376273885L795.29296875,344.6700245917055L811.5234375,349.11005101794865L827.75390625,353.3800753776957L843.984375,357.58217569490995L860.21484375,361.5882746008196L876.4453125,365.23813436962513" style="fill: none;" fill="none"></path></g></g></g></g><g opacity="0.2"><g><g><g><path stroke="rgb(255, 112, 67)" stroke-width="2px" d="M81.15234375,106.83841940334868L97.3828125,128.6870856455394L113.61328125,139.31186493805478L129.84375,149.11757806369238L146.07421875,155.12814016001568L162.3046875,159.6362944671086L178.53515625,168.16589833157406L194.765625,172.043325143201L210.99609375,172.0874163593565L227.2265625,177.43407420601164L243.45703125,179.4276167324611L259.6875,181.3806794456073L275.91796875,181.53150767939434L292.1484375,182.50127367462431L308.37890625,181.92393073865347L324.609375,183.5441344635827L340.83984375,185.91055032185145L357.0703125,181.72175638164794L373.30078125,183.6558792931693L389.53125,182.63564996208464L405.76171875,181.09979255710329L421.9921875,179.3021485720362L438.22265625,177.3592940909522L454.453125,177.04717258044653L470.68359375,171.31380571637834L486.9140625,169.01688929966517L503.14453125000006,159.27618142536707L519.375,158.56670929704393L535.60546875,152.15215160165513L551.8359375,141.34217957087927L568.06640625,140.5739940575191L584.296875,141.16205884729112L600.52734375,117.21248708452497L616.7578125,123.26628971099854L632.98828125,112.65730428695679L649.21875,107.07860176903863L665.44921875,96.46659881728038L681.6796875,90.91479723794122L697.91015625,78.4602405003139L714.140625,69.54408812522888L730.37109375,56.99065920284819L746.6015625,45.78529473713469L762.83203125,14.410068784441279L779.0625,19.683519482612652L795.29296875,5.449102912630366L811.5234375,0.9861794199262586L827.75390625,-22.488452741077907" style="fill: none;" fill="none"></path></g><g><path stroke="rgb(187, 187, 187)" stroke-width="2px" d="M81.15234375,93.03663284438L97.3828125,116.84614637919836L113.61328125,133.41757396289282L129.84375,144.5581899881363L146.07421875,153.74495681694577L162.3046875,161.56423786708288L178.53515625,168.3092308981078L194.765625,174.4466736146382L210.99609375,180.26363241672516L227.2265625,185.55438574722834L243.45703125,190.4392334478242L259.6875,195.17803601707735L275.91796875,199.52029050248012L292.1484375,203.9113711544446L308.37890625,208.1430846112115L324.609375,212.35650029352732L340.83984375,216.59018798385347L357.0703125,220.80126026698522L373.30078125,224.97759888001852L389.53125,229.1257685508047L405.76171875,233.62003902026586L421.9921875,238.12583387749538L438.22265625,242.37234606061662L454.453125,247.05497125216894L470.68359375,251.66414853504725L486.9140625,256.391940338271L503.14453125000006,261.0775670068605L519.375,266.17653076989313L535.60546875,271.22893151215146L551.8359375,276.211399444512L568.06640625,281.21768658501765L584.296875,286.57747388737545L600.52734375,291.83827665022443L616.7578125,296.67338329553604L632.98828125,301.7206478204046L649.21875,307.12101926548144L665.44921875,311.9463911737715L681.6796875,317.4963308743068L697.91015625,322.4959569828851L714.140625,327.2429694746222L730.37109375,332.408045985869L746.6015625,337.49906466262684L762.83203125,342.23797958663533L779.0625,347.16471956031666L795.29296875,352.02884583388055L811.5234375,355.7700906566211L827.75390625,359.7851119169167L843.984375,363.8853261704956L860.21484375,367.5974229595491L876.4453125,370.7129240227597" style="fill: none;" fill="none"></path></g></g></g></g></g></g><g transform="translate(41, 377)" clip-path="url(#clip_1)"><clipPath id="clip_1"><rect width="973" height="23"></rect></clipPath><g><g><line x1="0" y1="0" x2="0" y2="5" style="visibility: inherit;" fill="rgb(0, 0, 0)" stroke="rgb(204, 204, 204)" stroke-width="1px"></line><line x1="81.15234375" y1="0" x2="81.15234375" y2="5" style="visibility: inherit;" fill="rgb(0, 0, 0)" stroke="rgb(204, 204, 204)" stroke-width="1px"></line><line x1="162.3046875" y1="0" x2="162.3046875" y2="5" style="visibility: inherit;" fill="rgb(0, 0, 0)" stroke="rgb(204, 204, 204)" stroke-width="1px"></line><line x1="243.45703125" y1="0" x2="243.45703125" y2="5" style="visibility: inherit;" fill="rgb(0, 0, 0)" stroke="rgb(204, 204, 204)" stroke-width="1px"></line><line x1="324.609375" y1="0" x2="324.609375" y2="5" style="visibility: inherit;" fill="rgb(0, 0, 0)" stroke="rgb(204, 204, 204)" stroke-width="1px"></line><line x1="405.76171875" y1="0" x2="405.76171875" y2="5" style="visibility: inherit;" fill="rgb(0, 0, 0)" stroke="rgb(204, 204, 204)" stroke-width="1px"></line><line x1="486.9140625" y1="0" x2="486.9140625" y2="5" style="visibility: inherit;" fill="rgb(0, 0, 0)" stroke="rgb(204, 204, 204)" stroke-width="1px"></line><line x1="568.06640625" y1="0" x2="568.06640625" y2="5" style="visibility: inherit;" fill="rgb(0, 0, 0)" stroke="rgb(204, 204, 204)" stroke-width="1px"></line><line x1="649.21875" y1="0" x2="649.21875" y2="5" style="visibility: inherit;" fill="rgb(0, 0, 0)" stroke="rgb(204, 204, 204)" stroke-width="1px"></line><line x1="730.37109375" y1="0" x2="730.37109375" y2="5" style="visibility: inherit;" fill="rgb(0, 0, 0)" stroke="rgb(204, 204, 204)" stroke-width="1px"></line><line x1="811.5234375" y1="0" x2="811.5234375" y2="5" style="visibility: inherit;" fill="rgb(0, 0, 0)" stroke="rgb(204, 204, 204)" stroke-width="1px"></line><line x1="892.67578125" y1="0" x2="892.67578125" y2="5" style="visibility: inherit;" fill="rgb(0, 0, 0)" stroke="rgb(204, 204, 204)" stroke-width="1px"></line><line x1="973.828125" y1="0" x2="973.828125" y2="5" style="visibility: inherit;" fill="rgb(0, 0, 0)" stroke="rgb(204, 204, 204)" stroke-width="1px"></line></g><g transform="translate(0, 8)"><text x="0" y="0" dx="0em" dy="0.95em" style="text-anchor: middle; visibility: hidden; font-family: Roboto, sans-serif; font-size: 12px; font-weight: 200;" fill="rgb(33, 33, 33)" stroke="none" stroke-width="1px">-5</text><text x="81.15234375" y="0" dx="0em" dy="0.95em" style="text-anchor: middle; visibility: inherit; font-family: Roboto, sans-serif; font-size: 12px; font-weight: 200;" fill="rgb(33, 33, 33)" stroke="none" stroke-width="1px">0</text><text x="162.3046875" y="0" dx="0em" dy="0.95em" style="text-anchor: middle; visibility: inherit; font-family: Roboto, sans-serif; font-size: 12px; font-weight: 200;" fill="rgb(33, 33, 33)" stroke="none" stroke-width="1px">5</text><text x="243.45703125" y="0" dx="0em" dy="0.95em" style="text-anchor: middle; visibility: inherit; font-family: Roboto, sans-serif; font-size: 12px; font-weight: 200;" fill="rgb(33, 33, 33)" stroke="none" stroke-width="1px">10</text><text x="324.609375" y="0" dx="0em" dy="0.95em" style="text-anchor: middle; visibility: inherit; font-family: Roboto, sans-serif; font-size: 12px; font-weight: 200;" fill="rgb(33, 33, 33)" stroke="none" stroke-width="1px">15</text><text x="405.76171875" y="0" dx="0em" dy="0.95em" style="text-anchor: middle; visibility: inherit; font-family: Roboto, sans-serif; font-size: 12px; font-weight: 200;" fill="rgb(33, 33, 33)" stroke="none" stroke-width="1px">20</text><text x="486.9140625" y="0" dx="0em" dy="0.95em" style="text-anchor: middle; visibility: inherit; font-family: Roboto, sans-serif; font-size: 12px; font-weight: 200;" fill="rgb(33, 33, 33)" stroke="none" stroke-width="1px">25</text><text x="568.06640625" y="0" dx="0em" dy="0.95em" style="text-anchor: middle; visibility: inherit; font-family: Roboto, sans-serif; font-size: 12px; font-weight: 200;" fill="rgb(33, 33, 33)" stroke="none" stroke-width="1px">30</text><text x="649.21875" y="0" dx="0em" dy="0.95em" style="text-anchor: middle; visibility: inherit; font-family: Roboto, sans-serif; font-size: 12px; font-weight: 200;" fill="rgb(33, 33, 33)" stroke="none" stroke-width="1px">35</text><text x="730.37109375" y="0" dx="0em" dy="0.95em" style="text-anchor: middle; visibility: inherit; font-family: Roboto, sans-serif; font-size: 12px; font-weight: 200;" fill="rgb(33, 33, 33)" stroke="none" stroke-width="1px">40</text><text x="811.5234375" y="0" dx="0em" dy="0.95em" style="text-anchor: middle; visibility: inherit; font-family: Roboto, sans-serif; font-size: 12px; font-weight: 200;" fill="rgb(33, 33, 33)" stroke="none" stroke-width="1px">45</text><text x="892.67578125" y="0" dx="0em" dy="0.95em" style="text-anchor: middle; visibility: inherit; font-family: Roboto, sans-serif; font-size: 12px; font-weight: 200;" fill="rgb(33, 33, 33)" stroke="none" stroke-width="1px">50</text><text x="973.828125" y="0" dx="0em" dy="0.95em" style="text-anchor: middle; visibility: hidden; font-family: Roboto, sans-serif; font-size: 12px; font-weight: 200;" fill="rgb(33, 33, 33)" stroke="none" stroke-width="1px">55</text></g><line x1="0" y1="0" x2="973.828125" y2="0" fill="rgb(0, 0, 0)" stroke="rgb(204, 204, 204)" stroke-width="1px"></line></g></g></g></g></svg>